<?xml version="1.0" encoding="UTF-8" standalone="no"?><!DOCTYPE svg PUBLIC "-//W3C//DTD SVG 1.1//EN" "http://www.w3.org/Graphics/SVG/1.1/DTD/svg11.dtd"><svg width="100%" height="100%" viewBox="0 0 512 512" version="1.1" xmlns="http://www.w3.org/2000/svg" xmlns:xlink="http://www.w3.org/1999/xlink" xml:space="preserve" xmlns:serif="http://www.serif.com/" style="fill-rule:evenodd;clip-rule:evenodd;stroke-linejoin:round;stroke-miterlimit:2;"><g><path d="M504.5,341.681l-24.915,0l-24.873,-124.364c-3.586,-17.934 -19.463,-30.95 -37.752,-30.95l-24.08,0c-16.34,-18.722 -36.741,-34.169 -59.203,-44.796c-3.744,-1.77 -8.215,-0.172 -9.986,3.572c-1.771,3.744 -0.173,8.216 3.572,9.987c16.517,7.814 31.82,18.47 44.962,31.236l-232.479,0c41.332,-40.315 102.201,-56.41 158.081,-41.917c4.008,1.04 8.103,-1.367 9.143,-5.377c1.04,-4.009 -1.367,-8.103 -5.377,-9.143c-65.848,-17.08 -137.802,5.186 -182.474,56.436l-24.079,0c-18.289,0 -34.166,13.016 -37.752,30.95l-24.873,124.366l-24.915,0c-4.143,0 -7.5,3.358 -7.5,7.5l0,31.06c0,4.142 3.357,7.5 7.5,7.5l277.61,0c4.143,0 7.5,-3.358 7.5,-7.5c0,-4.142 -3.357,-7.5 -7.5,-7.5l-270.11,0l0,-16.06l482,0l0,16.06l-179.2,0c-4.143,0 -7.5,3.358 -7.5,7.5c0,4.142 3.357,7.5 7.5,7.5l186.7,0c4.143,0 7.5,-3.358 7.5,-7.5l0,-31.06c0,-4.142 -3.357,-7.5 -7.5,-7.5Zm-52.65,-62.19l-143.084,0c-0.329,-3.772 -1.09,-7.598 -2.276,-11.43l0.262,-4.57l141.898,0l3.2,16Zm-159.667,-23.938c-0.001,0.022 -0.003,0.045 -0.004,0.067l-0.744,12.98c-0.056,0.956 0.073,1.914 0.379,2.821c1.42,4.217 2.14,8.368 2.14,12.336c0,24.92 -29.051,26.857 -37.954,26.857c-8.903,0 -37.954,-1.937 -37.954,-26.857c0,-3.965 0.719,-8.112 2.135,-12.324c0.306,-0.907 0.434,-1.864 0.379,-2.82l-1.993,-34.81l14.724,11.042c2.342,1.756 5.49,1.99 8.066,0.598c9.508,-5.14 19.775,-5.14 29.285,-0.002c2.575,1.392 5.725,1.158 8.065,-0.598l14.722,-11.041l-1.246,21.751Zm-86.678,12.523c-1.183,3.827 -1.943,7.648 -2.271,11.415l-56.054,-0c-4.143,-0 -7.5,3.358 -7.5,7.5c0,4.142 3.357,7.5 7.5,7.5l57.217,-0c5.09,19.222 24.224,31.125 51.603,31.125c27.38,-0 46.514,-11.903 51.603,-31.125l147.247,-0l9.438,47.187l-416.575,-0l9.438,-47.187l57.35,-0c4.143,-0 7.5,-3.358 7.5,-7.5c0,-4.142 -3.357,-7.5 -7.5,-7.5l-54.351,-0l3.2,-16l141.892,-0l0.263,4.585Zm-133.508,-47.818c2.188,-10.946 11.88,-18.891 23.043,-18.891l321.92,-0c11.163,-0 20.854,7.945 23.043,18.891l5.646,28.233l-138.038,-0l0.947,-16.538c0.636,-11.077 -13.383,-18.206 -21.959,-11.776l-13.261,9.945c-11.56,-4.734 -23.121,-4.733 -34.681,0.001l-13.263,-9.947c-8.575,-6.429 -22.595,0.699 -21.959,11.776l0.947,16.538l-138.032,-0l5.647,-28.232Z" style="fill:#767676;fill-rule:nonzero;"/><g><path d="M256,170.304c-4.142,0 -7.5,-3.358 -7.5,-7.5c0,-4.142 3.358,-7.5 7.5,-7.5c4.142,0 7.5,3.358 7.5,7.5c0,4.142 -3.358,7.5 -7.5,7.5Z" style="fill:#767676;fill-rule:nonzero;"/><path d="M210.546,170.304c-4.142,0 -7.5,-3.358 -7.5,-7.5c0,-4.142 3.358,-7.5 7.5,-7.5c4.142,0 7.5,3.358 7.5,7.5c0,4.142 -3.358,7.5 -7.5,7.5Z" style="fill:#767676;fill-rule:nonzero;"/><path d="M301.454,170.304c-4.142,0 -7.5,-3.358 -7.5,-7.5c0,-4.142 3.358,-7.5 7.5,-7.5c4.142,0 7.5,3.358 7.5,7.5c0,4.142 -3.357,7.5 -7.5,7.5Z" style="fill:#767676;fill-rule:nonzero;"/></g></g></svg>