<?xml version="1.0" encoding="UTF-8" standalone="no"?><!DOCTYPE svg PUBLIC "-//W3C//DTD SVG 1.1//EN" "http://www.w3.org/Graphics/SVG/1.1/DTD/svg11.dtd"><svg width="100%" height="100%" viewBox="0 0 512 512" version="1.1" xmlns="http://www.w3.org/2000/svg" xmlns:xlink="http://www.w3.org/1999/xlink" xml:space="preserve" xmlns:serif="http://www.serif.com/" style="fill-rule:evenodd;clip-rule:evenodd;stroke-linejoin:round;stroke-miterlimit:2;"><g><path d="M504.5,31.093l-356.41,0c-4.143,0 -7.5,3.357 -7.5,7.5c0,4.143 3.357,7.5 7.5,7.5l348.91,0l0,326.69l-82.292,0c1.841,-5.105 3.102,-10.485 3.702,-16.06l55.031,0c4.143,0 7.5,-3.357 7.5,-7.5l0,-50.96c0,-4.143 -3.357,-7.5 -7.5,-7.5c-4.143,0 -7.5,3.357 -7.5,7.5l0,43.46l-47.53,0c-3.75,-34.879 -33.365,-62.128 -69.224,-62.128c-35.858,0 -65.473,27.249 -69.223,62.128l-233.904,0l0,-264.56l419.88,0l0,188.41c0,4.143 3.357,7.5 7.5,7.5c4.143,0 7.5,-3.357 7.5,-7.5l0,-195.91c0,-4.143 -3.357,-7.5 -7.5,-7.5l-434.88,0c-4.143,0 -7.5,3.357 -7.5,7.5l0,279.561c0,4.143 3.357,7.5 7.5,7.5l241.405,0c0.6,5.575 1.861,10.955 3.702,16.06l-268.667,0l0,-326.691l100.41,0c4.143,0 7.5,-3.357 7.5,-7.5c0,-4.143 -3.357,-7.5 -7.5,-7.5l-107.91,0c-4.143,0 -7.5,3.357 -7.5,7.5l0,341.69c0,4.143 3.357,7.5 7.5,7.5l283.743,0c5.117,7.664 11.714,14.261 19.377,19.379l0,66.312c1.906,7.471 6.173,9.238 12.804,5.304l25.766,-25.767l25.756,25.766c4.29,4.287 12.805,1.898 12.805,-5.303l0,-66.309c7.666,-5.118 14.263,-11.716 19.381,-19.381l97.368,0c4.143,0 7.5,-3.357 7.5,-7.5l0,-341.691c0,-4.143 -3.357,-7.5 -7.5,-7.5Zm-131.75,424.269l-18.255,-18.262c-2.931,-2.929 -7.677,-2.93 -10.608,-0.001l-18.267,18.268l0,-40.628c15.71,5.473 31.42,5.474 47.13,0.001l0,40.622Zm-23.563,-51.517c-30.12,0 -54.624,-24.505 -54.624,-54.625c0,-30.12 24.504,-54.624 54.624,-54.624c30.08,0 54.559,24.438 54.625,54.503c-0.347,29.496 -24.615,54.746 -54.625,54.746Z" style="fill:#767676;fill-rule:nonzero;"/><path d="M349.187,310.657c-21.264,0 -38.562,17.299 -38.562,38.562c0,21.263 17.299,38.562 38.562,38.562c21.263,0 38.562,-17.299 38.562,-38.562c0,-21.263 -17.299,-38.562 -38.562,-38.562Zm0,62.125c-12.992,0 -23.562,-10.57 -23.562,-23.562c0,-12.992 10.57,-23.562 23.562,-23.562c12.992,0 23.562,10.57 23.562,23.562c0,12.992 -10.57,23.562 -23.562,23.562Z" style="fill:#767676;fill-rule:nonzero;"/><path d="M449.87,147.313l0,-34.221c0,-4.143 -3.357,-7.5 -7.5,-7.5l-69.07,-0c-4.143,-0 -7.5,3.357 -7.5,7.5c0,4.143 3.357,7.5 7.5,7.5l61.57,-0l0,19.221l-155.84,-0l0,-19.221l61.58,-0c4.143,-0 7.5,-3.357 7.5,-7.5c0,-4.143 -3.357,-7.5 -7.5,-7.5l-69.08,-0c-4.143,-0 -7.5,3.357 -7.5,7.5l0,34.221c0,4.143 3.357,7.5 7.5,7.5l170.84,-0c4.143,-0 7.5,-3.357 7.5,-7.5Z" style="fill:#767676;fill-rule:nonzero;"/><path d="M395.78,171.141l-124.249,0c-4.143,0 -7.5,3.357 -7.5,7.5c-0,4.143 3.357,7.5 7.5,7.5l124.249,0c4.143,0 7.5,-3.357 7.5,-7.5c-0,-4.143 -3.357,-7.5 -7.5,-7.5Z" style="fill:#767676;fill-rule:nonzero;"/><path d="M403.28,209.439c-0,-4.143 -3.357,-7.5 -7.5,-7.5l-124.249,0c-4.143,0 -7.5,3.357 -7.5,7.5c-0,4.143 3.357,7.5 7.5,7.5l124.249,0c4.143,0 7.5,-3.357 7.5,-7.5Z" style="fill:#767676;fill-rule:nonzero;"/><path d="M271.531,232.738c-4.143,0 -7.5,3.357 -7.5,7.5c0,4.143 3.357,7.5 7.5,7.5l93.187,0c4.143,0 7.5,-3.357 7.5,-7.5c0,-4.143 -3.357,-7.5 -7.5,-7.5l-93.187,0Z" style="fill:#767676;fill-rule:nonzero;"/><path d="M89.476,279.105c14.616,10.106 34.605,15.449 57.807,15.449c51.807,0 97.15,-33.687 79.07,-90.255l3.496,-61.06c0.829,-14.423 -17.43,-23.714 -28.598,-15.337l-24.429,18.321c-18.825,-8.731 -40.263,-8.73 -59.087,0.003l-24.432,-18.324c-11.167,-8.378 -29.427,0.915 -28.598,15.337l3.499,61.084c-8.778,27.49 -3.457,57.681 21.272,74.782Zm-6.215,-74.222l-3.58,-62.5c-0.132,-2.334 2.817,-3.833 4.624,-2.479l28.143,21.107c2.342,1.757 5.491,1.99 8.066,0.598c16.957,-9.165 36.575,-9.167 53.532,-0.002c2.575,1.392 5.724,1.158 8.065,-0.599l28.141,-21.105c1.807,-1.356 4.754,0.151 4.622,2.48l-3.578,62.477c-0.055,0.956 0.073,1.914 0.379,2.821c15.863,47.125 -21.9,71.874 -64.393,71.874c-20.139,0 -37.178,-4.422 -49.275,-12.787c-19.685,-13.612 -22.356,-37.565 -15.125,-59.065c0.306,-0.908 0.433,-1.865 0.379,-2.82Z" style="fill:#767676;fill-rule:nonzero;"/></g></svg>