<?xml version="1.0" encoding="UTF-8" standalone="no"?><!DOCTYPE svg PUBLIC "-//W3C//DTD SVG 1.1//EN" "http://www.w3.org/Graphics/SVG/1.1/DTD/svg11.dtd"><svg width="100%" height="100%" viewBox="0 0 512 512" version="1.1" xmlns="http://www.w3.org/2000/svg" xmlns:xlink="http://www.w3.org/1999/xlink" xml:space="preserve" xmlns:serif="http://www.serif.com/" style="fill-rule:evenodd;clip-rule:evenodd;stroke-linejoin:round;stroke-miterlimit:2;"><g><path d="M145.963,176.454c4.143,0 7.5,-3.358 7.5,-7.501l0,-9.844c0,-4.143 -3.357,-7.501 -7.5,-7.501c-4.143,0 -7.5,3.358 -7.5,7.501l0,9.844c0,4.143 3.357,7.501 7.5,7.501Z" style="fill:#767676;fill-rule:nonzero;"/><path d="M210.58,176.454c4.143,0 7.5,-3.358 7.5,-7.501l0,-9.844c0,-4.143 -3.357,-7.501 -7.5,-7.501c-4.143,0 -7.5,3.358 -7.5,7.501l0,9.844c0,4.143 3.358,7.501 7.5,7.501Z" style="fill:#767676;fill-rule:nonzero;"/><path d="M178.345,236.05c14.507,0 26.31,-11.803 26.31,-26.311c0,-4.143 -3.357,-7.501 -7.5,-7.501c-4.143,0 -7.5,3.358 -7.5,7.501c0,6.236 -5.073,11.309 -11.31,11.309c-6.235,0 -11.309,-5.074 -11.309,-11.309c0,-4.143 -3.357,-7.501 -7.5,-7.501c-4.143,0 -7.5,3.358 -7.5,7.501c0,14.508 11.802,26.311 26.309,26.311Z" style="fill:#767676;fill-rule:nonzero;"/><path d="M364.834,352.901l0,-9.433c0,-4.143 -3.357,-7.501 -7.5,-7.501c-4.143,0 -7.5,3.358 -7.5,7.501l0,9.433c0,4.143 3.357,7.501 7.5,7.501c4.143,0 7.5,-3.358 7.5,-7.501Z" style="fill:#767676;fill-rule:nonzero;"/><path d="M416.2,335.968c-4.143,0 -7.5,3.358 -7.5,7.501l0,9.433c0,4.143 3.357,7.501 7.5,7.501c4.143,0 7.5,-3.358 7.5,-7.501l0,-9.433c0,-4.144 -3.357,-7.501 -7.5,-7.501Z" style="fill:#767676;fill-rule:nonzero;"/><path d="M406.39,399.593c-4.997,0.313 -8.942,-2.404 -11.834,-8.152l7.7,-8.92c2.707,-3.136 2.359,-7.873 -0.775,-10.579c-3.137,-2.706 -7.873,-2.361 -10.578,0.775l-4.134,4.789l-4.135,-4.789c-2.707,-3.136 -7.443,-3.482 -10.578,-0.775c-3.135,2.707 -3.482,7.443 -0.775,10.579l7.701,8.92c-2.892,5.747 -6.837,8.465 -11.834,8.152c-4.143,0 -7.5,3.358 -7.5,7.501c0,4.143 3.357,7.501 7.5,7.501c7.079,0.194 13.619,-2.312 19.622,-7.518c6.003,5.206 12.543,7.712 19.622,7.518c4.143,0 7.5,-3.358 7.5,-7.501c0,-4.143 -3.36,-7.501 -7.502,-7.501Z" style="fill:#767676;fill-rule:nonzero;"/><path d="M435.634,394.933l19.622,0c4.143,0 7.5,-3.358 7.5,-7.501c0,-4.143 -3.357,-7.501 -7.5,-7.501l-19.622,0c-4.143,0 -7.5,3.358 -7.5,7.501c0,4.143 3.357,7.501 7.5,7.501Z" style="fill:#767676;fill-rule:nonzero;"/><path d="M458.443,409.518l-19.622,-9.214c-3.745,-1.757 -8.216,-0.147 -9.977,3.602c-1.761,3.749 -0.147,8.216 3.602,9.977l19.622,9.214c3.822,1.645 7.147,0.444 9.977,-3.602c1.761,-3.749 0.147,-8.216 -3.602,-9.977Z" style="fill:#767676;fill-rule:nonzero;"/><path d="M318.279,394.933l19.622,0c4.143,0 7.5,-3.358 7.5,-7.501c0,-4.143 -3.357,-7.501 -7.5,-7.501l-19.622,0c-4.143,0 -7.5,3.358 -7.5,7.501c0,4.143 3.358,7.501 7.5,7.501Z" style="fill:#767676;fill-rule:nonzero;"/><path d="M334.714,400.304l-19.622,9.214c-3.749,1.761 -5.362,6.228 -3.602,9.977c2.829,4.046 6.155,5.246 9.977,3.602l19.622,-9.214c3.749,-1.761 5.362,-6.228 3.602,-9.977c-1.76,-3.749 -6.226,-5.36 -9.977,-3.602Z" style="fill:#767676;fill-rule:nonzero;"/><path d="M509.114,401.181l-11.895,-9.285l11.78,-8.836c4.288,-4.549 3.971,-8.751 -0.949,-12.607c-15.459,-8.313 -30.237,-19.081 -32.336,-23.492l4.007,-64.337c0.892,-15.579 -18.83,-25.62 -30.895,-16.569l-28.306,21.231c-21.486,-10.151 -46.021,-10.151 -67.508,0l-28.305,-21.23c-1.695,-1.272 -3.597,-2.252 -5.606,-2.907c2.23,0.244 4.495,0.37 6.789,0.37c4.143,0 7.5,-3.358 7.5,-7.501l-0,-57.535c-0,-4.143 -3.357,-7.501 -7.5,-7.501c-4.143,0 -7.5,3.358 -7.5,7.501l-0,49.434c-22.287,-3.6 -39.36,-22.975 -39.36,-46.264l-0,-6.898c10.542,-4.152 18.022,-14.438 18.022,-26.437l-0,-15.658c-0,-11.999 -7.48,-22.284 -18.021,-26.437l-0.001,-28.454c22.356,3.575 39.36,23.504 39.36,46.271l-0,21.752c-0,4.143 3.357,7.501 7.5,7.501c4.143,0 7.5,-3.358 7.5,-7.501l-0,-21.752c-0,-30.954 -24.974,-58.689 -55.985,-61.591c-8.75,-48.042 -51.454,-81.143 -99.247,-82.449c-55.416,0 -100.5,45.088 -100.5,100.508l-0,25.716c-10.541,4.153 -18.02,14.437 -18.02,26.436l-0,15.659c-0,15.659 12.739,28.4 28.397,28.4l7.559,0c-1.65,26.304 10.051,52.857 31.369,68.595l0.004,5.652c-4.688,8.879 -8.507,18.189 -11.417,27.771l-81.406,25.648c-20.422,6.657 -34.144,25.567 -34.144,47.053l-0,36.943c-0,4.143 3.357,7.501 7.5,7.501c4.143,0 7.5,-3.358 7.5,-7.501l-0,-36.943c-0,-14.974 9.562,-28.152 23.724,-32.769l72.667,-22.894c-1.768,9.487 -2.669,19.142 -2.669,28.821l-0,25.99c-17.686,3.5 -31.062,19.133 -31.062,37.833l-0,31.065c-0,4.143 3.357,7.501 7.5,7.501l15.531,0c4.143,0 7.5,-3.358 7.5,-7.501c-0,-4.143 -3.357,-7.501 -7.5,-7.501l-8.031,0l-0,-23.564c-0,-12.993 10.57,-23.564 23.562,-23.564c12.992,0 23.562,10.571 23.562,23.564l-0,23.542l-7.192,0c-4.143,0 -7.5,3.358 -7.5,7.501c-0,4.143 3.357,7.501 7.5,7.501l14.692,0c4.143,0 7.5,-3.358 7.5,-7.501l-0,-31.042c-0,-18.699 -13.376,-34.332 -31.062,-37.832l-0,-25.99c-0,-11.471 1.399,-22.902 4.125,-34.006l2.22,-0.699l40.779,102.885l-0.018,84.223l-93.7,0l-0,-39.061c-0,-4.143 -3.357,-7.501 -7.5,-7.501c-4.143,0 -7.5,3.358 -7.5,7.501l-0,39.059l-47.128,0l-0,-55.935c-0,-4.143 -3.357,-7.501 -7.5,-7.501c-4.143,0 -7.5,3.358 -7.5,7.501l-0,63.436c-0,4.142 3.357,7.5 7.5,7.5l364.712,0c4.143,0 7.5,-3.358 7.5,-7.501c0,-4.143 -3.357,-7.501 -7.5,-7.501l-64.591,0c0.398,-17.781 6.71,-34.776 17.952,-48.453c39.198,8.01 83.239,8 122.389,0c11.247,13.674 17.561,30.668 17.96,48.453l-61.03,0c-4.143,0 -7.5,3.358 -7.5,7.501c0,4.143 3.357,7.501 7.5,7.501l68.55,0c4.143,0 7.5,-3.358 7.5,-7.501c0.609,-20.992 -4.978,-42.658 -17.158,-59.927c16.733,-5.086 43.18,-16.35 47.993,-35.661c0.718,-2.877 -0.326,-5.906 -2.663,-7.73Zm-196.015,-138.991c-12.313,1.273 -18.741,8.097 -19.284,20.472l2.075,33.32l-54.751,-17.244c-2.912,-9.588 -6.734,-18.904 -11.426,-27.789l0.004,-5.628c21.654,-15.981 32.296,-42.141 31.378,-68.601l2.936,0c-1.014,30.479 18.208,58.955 49.068,65.47Zm-72.629,125.609c4.417,-0 8.011,3.594 8.011,8.012c0,4.417 -3.594,8.011 -8.011,8.011c-4.417,-0 -8.011,-3.594 -8.011,-8.011c0,-4.418 3.594,-8.012 8.011,-8.012Zm-62.125,3.189l-20.445,-51.583l40.89,0l-20.445,51.583Zm36.346,-91.701l-9.956,25.118l-52.781,0l-9.965,-25.142l-0.019,-25.287c20.994,9.139 51.887,9.078 72.741,0.004l-0.02,25.307Zm67.363,-130.968c0,7.388 -6.01,13.398 -13.397,13.398l-7.561,-0l0,-42.456c0,-0 9.43,0.132 9.501,0.14c6.471,0.943 11.457,6.529 11.457,13.258l0,15.66Zm-189.396,-67.81c0,-47.149 38.355,-85.507 85.5,-85.507c46.289,1.417 85.707,37.766 85.873,85.203l0,24.056l-20.436,-0c-38.144,-0 -66.277,-24.728 -81.837,-57.983c-3.183,-6.368 -14.209,-5.382 -14.209,3.353l0,9.927c0,10.448 -2.487,44.551 -34.453,44.703l-20.438,0l0,-23.752Zm-4.622,81.209c-7.388,-0 -13.397,-6.01 -13.397,-13.398l0,-15.66c0,-7.388 6.01,-13.398 13.397,-13.398l7.559,-0l0,42.456l-7.559,-0Zm22.559,21.598l0.002,-64.055c27.001,1.067 46.184,-18.524 50.665,-44.184c19.88,28.263 50.186,44.506 84.834,44.184l0,64.055c0,34.195 -27.818,62.015 -62.011,62.015l-11.479,-0c-34.193,-0 -62.011,-27.82 -62.011,-62.015Zm182.024,293.683l-106.792,-0l0.018,-84.222l40.779,-102.885l2.221,0.699c2.725,11.103 4.125,22.532 4.125,34l0,29.461c-9.017,3.118 -15.511,11.694 -15.511,21.758c0,12.689 10.322,23.012 23.011,23.012c12.689,0 23.011,-10.323 23.011,-23.012c0,-10.064 -6.494,-18.64 -15.511,-21.758l0,-29.461c0,-9.678 -0.902,-19.331 -2.669,-28.817l51.589,16.248l0.93,14.938c-2.099,4.41 -16.877,15.179 -32.336,23.492c-4.921,3.856 -5.237,8.058 -0.949,12.607l11.78,8.836l-11.895,9.285c-2.337,1.823 -3.381,4.853 -2.662,7.729c4.74,19.031 31.368,30.61 47.995,35.663c-10.788,15.306 -16.779,33.499 -17.134,52.427Zm94.149,-58.111c-77.822,-0 -101.544,-20.762 -108.162,-29.749l14.666,-11.448c3.886,-4.009 3.848,-7.98 -0.114,-11.913l-10.545,-7.909c2.606,-1.591 5.509,-3.427 8.438,-5.405c18.513,-12.505 21.372,-19.482 21.795,-24.164c0.034,-0.38 -4.058,-66.533 -4.058,-66.533c-0.2,-3.488 4.217,-5.739 6.919,-3.71l32.033,24.026c2.342,1.758 5.492,1.989 8.065,0.599c7.627,-4.122 15.49,-6.696 23.462,-7.687l0,21.55c0,4.143 3.357,7.501 7.5,7.501c4.143,-0 7.5,-3.358 7.5,-7.501l0,-21.55c7.972,0.992 15.835,3.565 23.462,7.687c2.575,1.391 5.725,1.159 8.065,-0.599l32.032,-24.026c2.67,-2.002 7.122,0.188 6.922,3.673c0,-0 -4.094,66.19 -4.06,66.57c0.423,4.682 3.282,11.659 21.795,24.164c2.93,1.978 5.832,3.814 8.438,5.405l-10.545,7.909c-3.962,3.933 -4,7.904 -0.114,11.913l14.666,11.448c-6.616,8.987 -30.338,29.749 -108.16,29.749Z" style="fill:#767676;fill-rule:nonzero;"/></g></svg>