<?xml version="1.0" encoding="UTF-8" standalone="no"?><!DOCTYPE svg PUBLIC "-//W3C//DTD SVG 1.1//EN" "http://www.w3.org/Graphics/SVG/1.1/DTD/svg11.dtd"><svg width="100%" height="100%" viewBox="0 0 512 512" version="1.1" xmlns="http://www.w3.org/2000/svg" xmlns:xlink="http://www.w3.org/1999/xlink" xml:space="preserve" xmlns:serif="http://www.serif.com/" style="fill-rule:evenodd;clip-rule:evenodd;stroke-linejoin:round;stroke-miterlimit:2;"><g><path d="M458.441,248.5l-8.971,0c-3.511,-32.632 -29.664,-58.584 -62.386,-61.787c-2.93,-15.53 -15.196,-27.802 -30.721,-30.734c-0.778,-8.039 -2.937,-15.798 -6.445,-23.143c-1.787,-3.738 -6.266,-5.318 -10.001,-3.534c-3.737,1.786 -5.319,6.264 -3.534,10.001c2.558,5.352 4.199,10.988 4.907,16.823c-17.488,3.654 -30.664,19.191 -30.664,37.749c-0,4.143 3.357,7.5 7.5,7.5c4.143,0 7.5,-3.357 7.5,-7.5c-0,-12.992 10.57,-23.562 23.562,-23.562c0.052,0 0.103,-0.001 0.155,-0.002c12.922,0.082 23.409,10.623 23.409,23.569c-0,4.143 3.357,7.5 7.5,7.5c27.573,0 50.44,20.539 54.107,47.12l-263.77,0c-4.143,0 -7.5,3.357 -7.5,7.5c-0,4.143 3.357,7.5 7.5,7.5l287.853,0c4.136,0 7.5,3.364 7.5,7.5l-0,16.59c-0,4.136 -3.364,7.501 -7.5,7.501l-404.883,0c-4.136,0 -7.5,-3.365 -7.5,-7.501l-0,-16.59c-0,-4.136 3.364,-7.5 7.5,-7.5l84.351,0c4.143,0 7.5,-3.357 7.5,-7.5c-0,-4.143 -3.357,-7.5 -7.5,-7.5l-61.072,0c1.837,-28.035 21.626,-57.17 53.771,-44.391c4.827,1.32 8.163,-0.346 10.007,-4.998c5.901,-21.656 29.818,-34.068 50.846,-26.541c6.156,1.073 9.489,-1.504 9.998,-7.732c-1.209,-13.59 9.717,-25.588 23.479,-25.588c12.992,0 23.562,10.57 23.562,23.562c-0,4.143 3.357,7.5 7.5,7.5c4.143,0 7.5,-3.357 7.5,-7.5c-0,-14.356 -7.886,-26.904 -19.552,-33.542c17.167,-22.046 50.511,-27.406 73.661,-11.75c3.432,2.321 8.095,1.421 10.414,-2.01c2.321,-3.431 1.421,-8.094 -2.01,-10.414c-31.426,-21.26 -76.196,-12.231 -97.062,19.359c-19.789,-2.049 -38.446,11.863 -41.969,31.541c-23.696,-3.812 -48.655,9.777 -58.258,31.831c-39.818,-9.429 -64.832,24.456 -66.915,60.672l-8.251,0c-12.406,0 -22.5,10.094 -22.5,22.5l-0,16.59c-0,9.979 6.53,18.461 15.54,21.399l-0,71.452c-0,52.926 41.124,96.427 93.096,100.229l-0,23.831c-0,4.143 3.357,7.5 7.5,7.5l62.312,0c4.143,0 7.5,-3.357 7.5,-7.5l-0,-23.559l77.993,0l-0,23.559c-0,4.143 3.357,7.5 7.5,7.5l62.312,0c4.143,0 7.5,-3.357 7.5,-7.5l-0,-23.826c51.544,-3.735 92.744,-47.855 93.079,-99.564c0.026,-4.143 -3.31,-7.521 -7.451,-7.549l-0.05,0c-4.119,0 -7.473,3.326 -7.499,7.451c-0.302,46.786 -38.581,84.857 -85.358,84.929c-0.073,-0.002 -217.987,-0.002 -218.06,0c-47.088,-0.069 -85.374,-38.397 -85.374,-85.5l-0,-70.231l388.803,0l-0,38.161c-0,4.143 3.357,7.5 7.5,7.5c4.143,0 7.5,-3.357 7.5,-7.5l-0,-39.382c9.01,-2.938 15.54,-11.42 15.54,-21.399l-0,-16.59c-0.001,-12.406 -10.094,-22.5 -22.501,-22.5Zm-256.434,248.5l-47.312,-0l-0,-16.059l47.312,-0l-0,16.059Zm107.993,-0l-0,-16.059l47.312,-0l-0,16.059l-47.312,-0Z" style="fill:#767676;fill-rule:nonzero;"/><path d="M162.819,139.25c12.699,0 23.031,-10.332 23.031,-23.031c-0,-12.699 -10.332,-23.031 -23.031,-23.031c-12.699,0 -23.031,10.332 -23.031,23.031c-0,12.699 10.332,23.031 23.031,23.031Zm-0,-31.062c4.429,0 8.031,3.603 8.031,8.031c-0,4.428 -3.603,8.031 -8.031,8.031c-4.428,0 -8.031,-3.603 -8.031,-8.031c-0,-4.428 3.603,-8.031 8.031,-8.031Z" style="fill:#767676;fill-rule:nonzero;"/><path d="M248.234,77.125c16.981,0 30.797,-13.815 30.797,-30.797c0,-16.982 -13.815,-30.797 -30.797,-30.797c-16.982,0 -30.797,13.815 -30.797,30.797c0,16.982 13.816,30.797 30.797,30.797Zm0,-46.594c8.71,0 15.797,7.087 15.797,15.797c0,8.71 -7.087,15.797 -15.797,15.797c-8.71,0 -15.797,-7.087 -15.797,-15.797c0,-8.71 7.087,-15.797 15.797,-15.797Z" style="fill:#767676;fill-rule:nonzero;"/><path d="M100.688,92.656c12.699,0 23.031,-10.332 23.031,-23.031c0,-12.699 -10.332,-23.031 -23.031,-23.031c-12.699,0 -23.032,10.332 -23.032,23.031c0,12.699 10.332,23.031 23.032,23.031Zm0,-31.062c4.429,0 8.031,3.603 8.031,8.031c0,4.428 -3.603,8.031 -8.031,8.031c-4.428,0 -8.031,-3.603 -8.031,-8.031c0,-4.428 3.602,-8.031 8.031,-8.031Z" style="fill:#767676;fill-rule:nonzero;"/><path d="M388.016,92.656c25.546,0 46.328,-20.782 46.328,-46.328c0,-25.546 -20.782,-46.328 -46.328,-46.328c-25.546,0 -46.328,20.782 -46.328,46.328c0,25.546 20.782,46.328 46.328,46.328Zm-0,-77.656c17.274,0 31.328,14.054 31.328,31.328c-0,17.274 -14.054,31.328 -31.328,31.328c-17.274,0 -31.328,-14.054 -31.328,-31.328c-0,-17.274 14.053,-31.328 31.328,-31.328Z" style="fill:#767676;fill-rule:nonzero;"/><path d="M393.016,61.355c8.287,-0 15.028,-6.741 15.028,-15.027c0,-4.143 -3.372,-7.486 -7.515,-7.486c-4.142,-0 -7.514,3.371 -7.514,7.514c-4.143,-0 -7.5,3.357 -7.5,7.5c0,4.143 3.358,7.499 7.501,7.499Z" style="fill:#767676;fill-rule:nonzero;"/><path d="M256,450.524c36.964,0 60.848,-18.771 60.848,-47.823c0,-5.971 -0.977,-12.107 -2.903,-18.263l2.44,-42.612c0.688,-11.948 -14.44,-19.644 -23.69,-12.705l-16.165,12.124c-13.688,-5.81 -27.376,-5.81 -41.063,0.001l-16.163,-12.122c-9.251,-6.947 -24.379,0.754 -23.694,12.701l2.441,42.632c-1.923,6.149 -2.897,12.28 -2.897,18.244c-0.002,29.052 23.882,47.823 60.846,47.823Zm-43.273,-62.702c0.306,-0.907 0.434,-1.864 0.379,-2.819l-2.5,-43.652l19.521,14.642c2.342,1.758 5.491,1.99 8.066,0.598c11.542,-6.239 24.061,-6.24 35.61,-0.001c2.577,1.392 5.725,1.158 8.065,-0.599l19.519,-14.64l-2.499,43.636c-0.056,0.956 0.073,1.914 0.379,2.822c1.712,5.084 2.58,10.094 2.58,14.893c0,30.456 -35.093,32.823 -45.848,32.823c-10.755,0 -45.848,-2.367 -45.848,-32.823c0.001,-4.794 0.868,-9.8 2.576,-14.88Z" style="fill:#767676;fill-rule:nonzero;"/><path d="M162.819,357.219l-62.132,0c-4.143,0 -7.5,3.357 -7.5,7.5c-0,4.143 3.357,7.5 7.5,7.5l62.132,0c4.143,0 7.5,-3.357 7.5,-7.5c-0,-4.143 -3.357,-7.5 -7.5,-7.5Z" style="fill:#767676;fill-rule:nonzero;"/><path d="M162.819,388.281l-62.132,0c-4.143,0 -7.5,3.357 -7.5,7.5c-0,4.143 3.357,7.5 7.5,7.5l62.132,0c4.143,0 7.5,-3.357 7.5,-7.5c-0,-4.143 -3.357,-7.5 -7.5,-7.5Z" style="fill:#767676;fill-rule:nonzero;"/><path d="M411.312,357.219l-62.132,0c-4.143,0 -7.5,3.357 -7.5,7.5c0,4.143 3.357,7.5 7.5,7.5l62.132,0c4.143,0 7.5,-3.357 7.5,-7.5c0,-4.143 -3.357,-7.5 -7.5,-7.5Z" style="fill:#767676;fill-rule:nonzero;"/><path d="M411.312,388.281l-62.132,0c-4.143,0 -7.5,3.357 -7.5,7.5c0,4.143 3.357,7.5 7.5,7.5l62.132,0c4.143,0 7.5,-3.357 7.5,-7.5c0,-4.143 -3.357,-7.5 -7.5,-7.5Z" style="fill:#767676;fill-rule:nonzero;"/></g></svg>