<svg id="Capa_1" enable-background="new 0 0 512 512" height="512" viewBox="0 0 512 512" width="512" xmlns="http://www.w3.org/2000/svg"><g><path d="m454.624 297.715c-11.38-11.379-28.684-14.199-43.062-7.017-14.541 7.266-27.295 16.459-38.043 27.404l-27.02-54.03c7.741-6.038 14.342-12.862 19.763-20.394l58.319 19.401c3.818 1.195 6.98-.389 9.486-4.75 1.307-3.931-.819-8.178-4.75-9.486l-55.127-18.34c4.44-8.978 7.471-18.736 9.044-29.175h43.715c4.143 0 7.501-3.358 7.501-7.501s-3.358-7.501-7.501-7.501h-42.471c.291-15.722-2.685-32.752-7.51-47.513l2.538-44.286c.237-4.136-2.924-7.681-7.06-7.918-4.133-.23-7.681 2.924-7.918 7.06l-2.62 45.717c-.055.956.074 1.914.379 2.822 4.596 13.656 7.489 29.519 7.185 44.12h-35.724c-4.143 0-7.501 3.358-7.501 7.501s3.358 7.501 7.501 7.501h34.298c-1.577 9.006-4.397 17.115-8.252 24.386l-23.678-7.877c-3.932-1.307-8.178.819-9.486 4.75-1.307 3.931.819 8.178 4.75 9.486l19.798 6.586c-46.802 57.198-174.501 57.147-221.262 0l19.798-6.587c3.931-1.308 6.057-5.554 4.75-9.486-1.308-3.931-5.552-6.057-9.486-4.75l-23.678 7.877c-3.855-7.271-6.675-15.38-8.252-24.386h34.298c4.143 0 7.501-3.358 7.501-7.501s-3.358-7.501-7.501-7.501h-35.724c-.304-14.588 2.58-30.436 7.166-44.083.305-.907.433-1.864.378-2.818l-6.451-112.623c-.513-9.054 10.931-14.887 17.945-9.626l50.718 38.036c2.342 1.756 5.492 1.99 8.068.598 4.135-2.236 8.315-4.195 12.533-5.875v19.687c0 4.143 3.358 7.501 7.501 7.501s7.501-3.358 7.501-7.501v-24.455c5.316-1.267 10.676-2.104 16.064-2.507v38.942c0 4.143 3.358 7.501 7.501 7.501s7.501-3.358 7.501-7.501v-38.942c5.496.411 10.962 1.273 16.382 2.583v24.317c0 4.143 3.358 7.501 7.501 7.501s7.501-3.358 7.501-7.501v-19.502c4.107 1.65 8.178 3.564 12.207 5.741 2.575 1.391 5.724 1.158 8.066-.598l50.708-38.026c7.015-5.262 18.458.565 17.945 9.622l-1.96 34.205c-.237 4.136 2.924 7.681 7.06 7.918 4.143.236 7.681-2.924 7.918-7.06l1.96-34.21c1.2-21.146-23.973-35.98-41.924-22.479l-46.94 35.2c-34.413-17.071-73.452-17.07-107.861.009l-46.946-35.206c-17.085-13.502-43.124 1.338-41.925 22.481l6.369 111.199c-4.815 14.751-7.78 31.764-7.49 47.472h-42.471c-4.143 0-7.501 3.358-7.501 7.501s3.358 7.501 7.501 7.501h43.715c1.573 10.439 4.604 20.197 9.044 29.175l-55.127 18.34c-3.931 1.308-6.058 5.555-4.75 9.486 2.506 4.361 5.668 5.944 9.486 4.75l58.319-19.401c5.473 7.603 12.148 14.485 19.984 20.566l-10.176 20.36c-1.852 3.706-.349 8.211 3.357 10.064 3.817 1.737 7.171.619 10.063-3.356l9.296-18.6c52.593 30.872 134.113 30.837 186.618-.139l29.79 59.571c-7.831 2.291-14.418 6.276-19.659 11.912-2.822 3.034-2.65 7.78.384 10.601 3.586 2.801 7.12 2.673 10.601-.384 3.954-4.251 9.067-7.023 15.537-8.406l13.582 27.159c-14.186 2.29-21.781 11.31-25.797 19.404-1.842 3.71-.326 8.212 3.385 10.053 3.817 1.727 7.168.599 10.053-3.385 4.304-8.674 11.461-12.347 22.458-11.506 19.288 8.796 31.919 35.01 20.89 55.059-7.708-12.493-27.786-14.956-39.112-6.229-3.282 2.529-3.893 7.238-1.364 10.52 2.528 3.282 7.239 3.892 10.52 1.365 10.892-5.126 17.221-1.929 18.988 9.591 0 26.951-36.353 28.451-53.805 19.101-2.127-3.5-5.096-6.532-8.86-8.599v-88.17c0-4.143-3.358-7.501-7.501-7.501s-7.501 3.358-7.501 7.501v19.951c-11.376-2.18-24.358 2.589-30.129 13.015-2.007 3.625-.695 8.189 2.93 10.195 3.802 1.898 7.2.922 10.195-2.93 4.475-5.794 10.143-7.372 17.004-4.735v14.85c-11.376-2.179-24.358 2.591-30.129 13.015-2.007 3.625-.695 8.189 2.93 10.195 3.802 1.898 7.2.922 10.195-2.93 4.475-5.794 10.143-7.373 17.004-4.737v27.368c0 3.481 2.394 6.504 5.783 7.302 6.87 1.616 10.86 16.205 1.719 16.205h-31.067c-14.968 0-23.556-8.559-23.565-23.482 0-.01 0-.02 0-.03 0-.013 0-.026 0-.039v-77.683c0-4.143-3.358-7.501-7.501-7.501s-7.501 3.358-7.501 7.501v70.22h-47.446v-11.252c0-4.143-3.358-7.501-7.501-7.501s-7.501 3.358-7.501 7.501v18.753c0 14.943-8.589 23.513-23.564 23.513h-31.074c-9.034 0-5.025-14.624 1.719-16.212 3.388-.797 5.782-3.821 5.782-7.301v-27.363c6.862-2.638 12.531-1.059 17.006 4.735 2.995 3.851 6.394 4.828 10.195 2.93 3.625-2.006 4.936-6.571 2.93-10.195-5.771-10.426-18.754-15.196-30.131-13.015v-14.851c6.862-2.638 12.531-1.06 17.006 4.735 2.995 3.851 6.394 4.828 10.195 2.93 3.625-2.006 4.936-6.571 2.93-10.195-5.771-10.426-18.754-15.196-30.131-13.015v-19.95c0-4.143-3.358-7.501-7.501-7.501s-7.501 3.358-7.501 7.501v88.165c-3.765 2.068-6.734 5.101-8.861 8.602-17.56 9.406-53.798 7.745-53.798-19.106 0-8.89 10.496-16.127 18.985-9.586 3.281 2.528 7.991 1.917 10.52-1.365 2.528-3.282 1.917-7.991-1.365-10.52-11.325-8.726-31.402-6.264-39.11 6.227-11.026-20.048 1.604-46.261 20.891-55.057 11-.839 18.152 2.833 22.455 11.506 2.885 3.984 6.236 5.112 10.053 3.385 3.711-1.841 5.227-6.342 3.385-10.053-4.015-8.094-11.61-17.115-25.795-19.406l13.579-27.158c6.471 1.382 11.584 4.154 15.538 8.405 3.481 3.056 7.015 3.184 10.601.384 3.034-2.822 3.205-7.568.384-10.601-5.242-5.636-11.829-9.622-19.661-11.912l5.783-11.566c1.853-3.705.351-8.211-3.354-10.063-3.705-1.854-8.211-.35-10.063 3.354-10.106 20.212-20.212 40.424-30.318 60.636-30.855 15.029-45.177 62.198-17.36 87.044 2.648 31.678 39.384 41.106 64.992 33.153 1.583 10.386 9.528 17.301 20.02 17.301h31.074c20.818 0 35.09-11.938 38.011-31.014h48.555c2.92 19.075 17.194 31.012 38.014 31.012h31.067c10.493 0 18.438-6.913 20.022-17.297 25.561 7.938 62.355-1.577 64.996-33.154 22.202-19.831 17.435-56.347-2.179-76.112 8.655-11.894 19.288-21.988 31.676-30.062 19.728-12.84 22.458-41.237 6.041-57.655zm-14.231 45.086c-2.254 1.469-4.456 2.997-6.605 4.584l-16.425-18.653c-2.737-3.109-7.477-3.41-10.587-.672-3.109 2.738-3.41 7.478-.672 10.587l16.12 18.307c-6.321 5.852-12.064 12.299-17.194 19.304-1.081-.623-2.183-1.21-3.306-1.756-7.019-14.035-14.037-28.07-21.056-42.105 10.276-11.435 22.903-20.935 37.599-28.279 8.592-4.292 18.94-2.603 25.748 4.204 9.9 9.901 7.612 27.166-3.622 34.479z"/><path d="m172.038 77.955c2.486-3.314 1.814-8.016-1.5-10.501l-28.004-21.003c-2.335-1.751-5.473-1.989-8.046-.609-2.572 1.379-4.11 4.126-3.943 7.04l2.96 51.598c1.664 4.91 4.303 7.263 7.919 7.059 4.136-.237 7.297-3.783 7.059-7.919l-2.036-35.481 15.09 11.318c3.314 2.484 8.017 1.812 10.501-1.502z"/><path d="m339.665 111.508c3.615.204 6.254-2.15 7.917-7.061l2.95-51.568c.167-2.914-1.372-5.66-3.944-7.039-2.573-1.379-5.712-1.141-8.046.61l-27.984 20.993c-3.314 2.486-3.985 7.188-1.499 10.501 2.486 3.314 7.187 3.986 10.502 1.499l15.072-11.306-2.028 35.453c-.237 4.137 2.924 7.681 7.06 7.918z"/><path d="m209.482 232.457c11.63-.144 23.764-4.659 31.067-14.141 7.303 9.481 19.437 13.997 31.067 14.141 4.143 0 7.501-3.358 7.501-7.501s-3.358-7.501-7.501-7.501c-10.696-.48-21.923-6.527-23.406-18.563l13.55-15.695c2.707-3.136 2.36-7.873-.776-10.58-3.136-2.708-7.873-2.36-10.58.776l-9.856 11.416-9.856-11.416c-2.707-3.136-7.444-3.483-10.58-.776s-3.483 7.444-.776 10.58l13.55 15.695c-1.484 12.036-12.71 18.083-23.406 18.563-4.143 0-7.501 3.358-7.501 7.501s3.36 7.501 7.503 7.501z"/><path d="m201.982 395.762v26.274c0 4.143 3.358 7.501 7.501 7.501s7.501-3.358 7.501-7.501v-26.274c0-4.143-3.358-7.501-7.501-7.501s-7.501 3.359-7.501 7.501z"/><path d="m306.324 324.88c3.713-1.836 5.236-6.335 3.399-10.049-1.836-3.714-6.335-5.236-10.049-3.399-39.813 19.687-78.383 19.689-117.917.009-3.71-1.847-8.212-.337-10.058 3.372-1.846 3.708-.336 8.212 3.372 10.058 41.926 20.872 89.229 20.788 131.253.009z"/><path d="m194.113 172.548c21.264 0 38.562-13.815 38.562-30.797s-17.299-30.797-38.562-30.797-38.562 13.815-38.562 30.797 17.299 30.797 38.562 30.797zm0-46.594c12.772 0 23.562 7.234 23.562 15.797s-10.791 15.797-23.562 15.797c-9.771 0-18.381-4.233-21.889-10.057 1.304 1.098 2.988 1.76 4.827 1.76 4.142 0 7.5-3.358 7.5-7.5 0-4.142-3.358-7.5-7.5-7.5-1.838 0-3.522.662-4.826 1.76 3.507-5.824 12.118-10.057 21.888-10.057z"/><path d="m325.862 141.751c0-16.981-17.299-30.797-38.562-30.797-21.264 0-38.562 13.815-38.562 30.797s17.299 30.797 38.562 30.797 38.562-13.816 38.562-30.797zm-60.451 5.74c1.304 1.098 2.988 1.76 4.826 1.76 4.142 0 7.5-3.358 7.5-7.5 0-4.142-3.358-7.5-7.5-7.5-1.838 0-3.522.662-4.826 1.76 3.508-5.823 12.118-10.056 21.889-10.056 12.772 0 23.562 7.234 23.562 15.797s-10.79 15.797-23.562 15.797c-9.77-.001-18.381-4.235-21.889-10.058z"/></g></svg>