<svg id="Capa_1" enable-background="new 0 0 512 512" height="512" viewBox="0 0 512 512" width="512" xmlns="http://www.w3.org/2000/svg"><g><path d="m473.454 356.75c4.142 0 7.5-3.358 7.5-7.5v-31.092c0-4.142-3.358-7.5-7.5-7.5h-39.103v-87.776c0-4.142-3.358-7.5-7.5-7.5s-7.5 3.358-7.5 7.5v87.776h-31.593v-264.628h31.593v144.16c0 4.142 3.358 7.5 7.5 7.5s7.5-3.358 7.5-7.5v-144.186h39.099c4.142 0 7.5-3.358 7.5-7.5v-31.004c0-4.142-3.358-7.5-7.5-7.5h-139.789c-4.142 0-7.5 3.358-7.5 7.5v31.004c0 4.142 3.358 7.5 7.5 7.5h39.097v78.222h-84.886c-4.142 0-7.5 3.358-7.5 7.5s3.358 7.5 7.5 7.5h84.886v171.432h-202.454v-171.432h84.886c4.142 0 7.5-3.358 7.5-7.5s-3.358-7.5-7.5-7.5h-92.386c-4.142 0-7.5 3.358-7.5 7.5v178.932h-18.722v-202.495h41.757c4.142 0 7.5-3.358 7.5-7.5v-31.004c0-4.142-3.358-7.5-7.5-7.5h-139.789c-4.142 0-7.5 3.358-7.5 7.5v31.003c0 4.142 3.358 7.5 7.5 7.5h36.438v202.496h-36.442c-4.142 0-7.5 3.358-7.5 7.5v31.092c0 4.142 3.358 7.5 7.5 7.5h36.443v147.75c0 4.142 3.358 7.5 7.5 7.5h46.593c4.142 0 7.5-3.358 7.5-7.5v-147.75h55.944c4.142 0 7.5-3.358 7.5-7.5s-3.358-7.5-7.5-7.5h-146.48v-16.092h419.908v16.092h-240.736c-4.142 0-7.5 3.358-7.5 7.5s3.358 7.5 7.5 7.5h116.478v16.022h-8.035c-4.142 0-7.5 3.358-7.5 7.5v31.004c0 4.142 3.358 7.5 7.5 7.5h8.035v16.124h-8.035c-4.142 0-7.5 3.358-7.5 7.5v31.003c0 4.142 3.358 7.5 7.5 7.5h8.035v23.597c0 4.142 3.358 7.5 7.5 7.5h108.717c4.142 0 7.5-3.358 7.5-7.5v-23.597h8.037c4.142 0 7.5-3.358 7.5-7.5v-31.003c0-4.142-3.358-7.5-7.5-7.5h-8.037v-16.124h8.037c4.142 0 7.5-3.358 7.5-7.5v-31.004c0-4.142-3.358-7.5-7.5-7.5h-8.037v-16.022zm-132.293-341.75h124.789v16.004h-124.789zm-295.111 62.159h124.789v16.003h-124.789zm75.532 419.841h-31.593v-140.25h31.593zm-31.593-388.836h31.593v202.494h-31.593zm360.424 388.836h-93.717v-16.097h93.717zm15.537-31.097h-124.789v-16.003h124.789zm-15.537-31.003h-93.717v-16.124h93.717zm15.537-31.124h-7.843c-.064-.002-.129-.002-.194-.002s-.129.001-.194.002h-108.33c-.064-.002-.129-.002-.194-.002s-.129.001-.194.002h-7.842v-16.004h124.791zm-15.537-31.004h-93.717v-16.022h93.717z"/><path d="m313.88 158.457-18.866 14.149c-15.657-6.815-31.313-6.814-46.969.002l-18.869-14.151c-9.879-7.41-26.028.81-25.297 13.566l2.788 48.669c-2.193 6.953-3.304 13.883-3.304 20.62 0 32.413 26.758 53.357 68.169 53.357s68.169-20.944 68.169-53.357c0-6.743-1.113-13.68-3.311-20.64l2.787-48.649c0-13.523-15.677-20.523-25.297-13.566zm-42.348 121.212c-12.473 0-53.169-2.766-53.169-38.357 0-5.564 1.003-11.367 2.981-17.25.305-.907.434-1.864.379-2.819l-2.868-50.079c-.039-.666.806-1.097 1.321-.708l22.55 16.912c2.341 1.756 5.491 1.99 8.066.598 13.436-7.262 28.041-7.262 41.476-.001 2.575 1.391 5.724 1.157 8.065-.599l22.546-16.91c.823-.264 1.264-.027 1.321.709l-2.867 50.06c-.055.956.074 1.914.38 2.821 1.982 5.888 2.987 11.697 2.987 17.266.001 35.591-40.695 38.357-53.168 38.357z"/></g></svg>