<svg id="Capa_1" enable-background="new 0 0 512 512" height="512" viewBox="0 0 512 512" width="512" xmlns="http://www.w3.org/2000/svg"><g><g><path d="m512 349.19c0-12.699-10.331-23.03-23.03-23.03h-13.473c-8.41-16.971-25.56-28.924-44.208-30.802-5.421-11.57-15.03-21.035-26.974-26.399-10.313-4.632-21.755-5.935-32.577-3.873-1.672-11.72-7.812-21.345-17.854-27.692-3.88-2.452-8.166-4.295-12.723-5.535v-53.58c0-21.229-17.271-38.5-38.5-38.5h-15.861v-12.75c0-4.142-3.357-7.5-7.5-7.5s-7.5 3.358-7.5 7.5v12.75h-31.6v-62.592h31.6v17.163c0 4.142 3.357 7.5 7.5 7.5s7.5-3.358 7.5-7.5v-48.02c0-16.81-13.99-30.8-30.8-30.8-16.983 0-30.8 13.817-30.8 30.8v93.45h-15.86c-21.229 0-38.5 17.271-38.5 38.5v53.572c-15.195 4.107-28.175 16.939-30.547 32.86-23.316-3.655-47.453 9.016-57.532 30.451-19.448.971-37.412 13.001-46.245 30.998h-13.486c-12.699-.001-23.03 10.33-23.03 23.029 0 10.603 7.203 19.555 16.972 22.222l23.973 95.903c4.305 17.166 19.665 29.155 37.355 29.155h79.59c4.142 0 7.5-3.358 7.5-7.5s-3.358-7.5-7.5-7.5h-79.59c-10.799 0-20.176-7.321-22.804-17.799l-22.861-91.451h446.729l-22.858 91.446c-2.629 10.482-12.007 17.804-22.806 17.804h-243.13c-4.142 0-7.5 3.358-7.5 7.5s3.358 7.5 7.5 7.5h243.13c17.689 0 33.051-11.989 37.356-29.161l23.971-95.897c9.771-2.667 16.973-11.619 16.973-22.222zm-256-318.66c9.635.897 14.901 6.163 15.8 15.8v15.857h-31.6v-15.857c0-8.712 7.088-15.8 15.8-15.8zm-46.66 124.25h93.32c12.958 0 23.5 10.542 23.5 23.5v51.665c-5.266.016-10.677.704-16.07 2.058v-38.123c-1.315-14.04-8.992-21.72-23.03-23.04-12.698 0-23.029 10.336-23.029 23.04v24.191c-5.304-.756-10.756-.759-16.06-.006v-24.185c-1.315-14.04-8.992-21.72-23.03-23.04-12.699 0-23.03 10.336-23.03 23.04v38.127c-5.39-1.351-10.801-2.038-16.07-2.056v-51.671c-.001-12.958 10.541-23.5 23.499-23.5zm85.75 78.934c-4.597-4.736-10.044-8.546-16.06-11.28v-28.554c0-4.433 3.602-8.04 8.029-8.04 4.896.462 7.573 3.142 8.03 8.04v39.834zm-62.12-11.288c-6.014 2.734-11.462 6.546-16.06 11.286v-39.832c0-4.433 3.602-8.04 8.03-8.04 4.896.462 7.573 3.142 8.03 8.04zm256.056 134.793c-.061 0-.121 0-.181.001h-465.627c-4.116-.099-8.218-3.77-8.218-8.03 0-4.428 3.602-8.03 8.03-8.03h341.53c4.143 0 7.5-3.358 7.5-7.5s-3.357-7.5-7.5-7.5h-310.459c7.905-10.349 20.545-16.733 33.25-16.002 3.331.192 6.395-1.847 7.504-4.999 7.014-19.939 30.081-30.946 49.997-23.88 6.008 1.075 9.34-1.421 9.996-7.489-1.857-33.087 37.934-32.737 58.194-21.299 3.467 1.958 7.858.865 10.004-2.488 14.796-23.118 51.107-23.125 65.905 0 2.146 3.353 6.538 4.446 10.003 2.489 20.548-11.592 60.507-11.568 58.153 21.963.672 6.31 4.11 8.8 10.314 7.47 20.145-8.217 44.42 2.643 51.665 23.171 1.058 2.999 3.893 5.004 7.072 5.004 12.359 0 24.233 6.256 31.754 16.06h-60.672c-4.143 0-7.5 3.358-7.5 7.5s3.357 7.5 7.5 7.5h91.729c4.428 0 8.03 3.602 8.03 8.03.001 4.409-3.571 7.999-7.973 8.029z"/><path d="m356.687 411.312c0-12.699-10.331-23.031-23.03-23.031h-155.313c-12.699 0-23.031 10.332-23.031 23.031s10.332 23.031 23.031 23.031h155.312c12.699 0 23.031-10.331 23.031-23.031zm-186.374 0c0-4.428 3.603-8.031 8.031-8.031h155.312c4.428 0 8.03 3.603 8.03 8.031s-3.603 8.031-8.03 8.031h-155.312c-4.428 0-8.031-3.602-8.031-8.031z"/><path d="m100.689 216.906c5.345 1.364 6.61 4.417 3.794 9.161l-9.098 9.098c-2.929 2.929-2.929 7.678 0 10.606 3.535 2.929 7.071 2.929 10.606 0l9.098-9.098c12.612-12.611 3.433-34.768-14.401-34.768-5.345-1.364-6.61-4.417-3.794-9.161l9.098-9.098c2.929-2.929 2.929-7.678 0-10.606-2.929-2.929-7.678-2.929-10.606 0l-9.098 9.098c-12.612 12.612-3.433 34.768 14.401 34.768z"/><path d="m411.312 216.906c5.346 1.364 6.611 4.417 3.794 9.161l-9.098 9.098c-2.929 2.929-2.929 7.678.001 10.606 3.535 2.929 7.071 2.929 10.606 0l9.097-9.098c12.612-12.611 3.435-34.768-14.4-34.768-5.345-1.363-6.61-4.417-3.796-9.161l9.099-9.098c2.93-2.929 2.93-7.677.001-10.606s-7.678-2.93-10.606 0l-9.1 9.098c-12.61 12.613-3.433 34.768 14.402 34.768z"/></g><g><path d="m256 279.098c-4.142 0-7.5-3.358-7.5-7.5 0-4.142 3.358-7.5 7.5-7.5 4.142 0 7.5 3.358 7.5 7.5 0 4.142-3.358 7.5-7.5 7.5z"/><path d="m209.375 294.562c-4.142 0-7.5-3.358-7.5-7.5 0-4.142 3.358-7.5 7.5-7.5 4.142 0 7.5 3.358 7.5 7.5 0 4.142-3.357 7.5-7.5 7.5z"/><path d="m162.694 310.093c-4.142 0-7.5-3.358-7.5-7.5 0-4.142 3.358-7.5 7.5-7.5 4.142 0 7.5 3.358 7.5 7.5 0 4.142-3.358 7.5-7.5 7.5z"/><path d="m349.187 310.093c-4.142 0-7.5-3.358-7.5-7.5 0-4.142 3.358-7.5 7.5-7.5 4.142 0 7.5 3.358 7.5 7.5 0 4.142-3.358 7.5-7.5 7.5z"/><path d="m302.593 294.562c-4.142 0-7.5-3.358-7.5-7.5 0-4.142 3.358-7.5 7.5-7.5 4.142 0 7.5 3.358 7.5 7.5 0 4.142-3.357 7.5-7.5 7.5z"/><path d="m256 310.094c-4.142 0-7.5-3.358-7.5-7.5 0-4.142 3.358-7.5 7.5-7.5 4.142 0 7.5 3.358 7.5 7.5 0 4.142-3.358 7.5-7.5 7.5z"/></g></g></svg>