<svg id="Capa_1" enable-background="new 0 0 512 512" height="512" viewBox="0 0 512 512" width="512" xmlns="http://www.w3.org/2000/svg"><g><path d="m442.997 511.974c4.042-.329 7.764-4.093 6.717-9.027l-46.516-263.065c-.541-3.546-3.896-6.475-7.657-6.362h-100.979v-53.53c0-4.142-3.357-7.5-7.5-7.5s-7.5 3.358-7.5 7.5v53.53h-47.119v-125.331h47.119v39.121c0 4.142 3.357 7.5 7.5 7.5s7.5-3.358 7.5-7.5v-108.75c0-21.033-17.526-38.56-38.56-38.56-21.262 0-38.56 17.298-38.56 38.56v194.96h-100.957c-3.924-.127-7.132 2.787-7.678 6.362l-14.91 84.292c-.721 4.079 2.001 7.97 6.079 8.691 4.084.723 7.971-2 8.692-6.079l5.502-31.105 8.35 83.197-36.186 74.235 16.644-94.137c.721-4.079-2.001-7.97-6.08-8.691-4.075-.721-7.97 2-8.691 6.08l-25.918 146.587c-1.116 5.274 3.088 9.048 7.343 9.048 0 0 373.159-.009 373.365-.026zm-210.554-418.785v-16.063h47.119v16.062h-47.119zm23.559-78.189c14.355 1.351 22.209 9.205 23.56 23.56v23.566h-47.119v-23.566c0-12.991 10.568-23.56 23.559-23.56zm141.831 280.691 27.896 157.758-36.29-74.114zm-10.342-47.171-12.467 124.229h-18.754c-3.505-17.703-19.153-31.093-37.869-31.093h-4.625c25.494-27.818 7.865-77.533-31.926-77.533-5.817.897-8.172 4.235-7.065 10.016l4.765 13.381c1.14 3.49-.664 6.045-5.412 7.666h-56.688c-23.456 0-38.517 26.437-26.354 46.597-17.306 1.399-31.423 14.262-34.73 30.966h-19.386l-12.467-124.229zm-194.684 155.3c-29.465-1.764-28.319-47.164 1.426-47.164h124.167c28.603 0 32.244 45.318 1.426 47.164zm8.886-77.878c0-8.688 7.068-15.756 15.756-15.756h56.688c16.689 0 22.362-15.477 19.184-28.705 29.234 12.59 18.719 58.606-12.049 60.175h-64.95c-8.165-.578-14.629-7.405-14.629-15.714zm-66.81 61.807h21.477c1.177 5.961 3.73 11.433 7.313 16.071-20.73.542-39.101 17.143-39.101 38.56 0 21.268 17.298 38.57 38.56 38.57h84.29c4.143 0 7.5-3.358 7.5-7.5s-3.357-7.5-7.5-7.5h-84.29c-30.446 0-30.475-47.13 0-47.13h186.37c30.453 0 30.463 47.13 0 47.13h-69.39c-4.143 0-7.5 3.358-7.5 7.5s3.357 7.5 7.5 7.5h69.39c21.041 0 38.56-17.533 38.56-38.57 0-21.954-18.406-37.357-39.101-38.56 3.584-4.638 6.137-10.11 7.313-16.071h20.583l53.495 109.251h-348.724z"/><path d="m162.816 185.844c5.346 1.363 6.611 4.417 3.794 9.161l-9.098 9.098c-2.929 2.929-2.929 7.678.001 10.606 3.535 2.929 7.071 2.929 10.606 0l9.098-9.098c12.611-12.611 3.433-34.768-14.401-34.768-5.345-1.363-6.611-4.417-3.796-9.161l9.099-9.098c2.93-2.929 2.93-7.678.001-10.607-2.93-2.928-7.679-2.929-10.606 0l-9.1 9.099c-12.61 12.613-3.433 34.768 14.402 34.768z"/><path d="m349.189 185.844c5.345 1.363 6.611 4.417 3.796 9.161l-9.099 9.098c-2.93 2.929-2.93 7.677-.001 10.606 3.536 2.929 7.071 2.929 10.606 0l9.1-9.099c12.61-12.612 3.432-34.767-14.402-34.767-5.346-1.363-6.611-4.417-3.794-9.161l9.098-9.098c2.929-2.929 2.929-7.678 0-10.606-2.93-2.929-7.678-2.929-10.607 0l-9.098 9.098c-12.612 12.612-3.434 34.768 14.401 34.768z"/></g></svg>