<svg id="Capa_1" enable-background="new 0 0 512 512" height="512" viewBox="0 0 512 512" width="512" xmlns="http://www.w3.org/2000/svg"><g><path d="m80.049 268.508c9.041 0 17.584-5.255 22.854-14.058 2.128-3.554.972-8.16-2.582-10.287-3.551-2.128-8.159-.973-10.287 2.582-2.573 4.298-6.213 6.763-9.985 6.763-7.183 0-13.25-8.815-13.25-19.25 0-10.44 6.067-19.26 13.25-19.26 3.766 0 7.407 2.468 9.989 6.77 2.133 3.552 6.738 4.703 10.291 2.57 3.551-2.132 4.702-6.739 2.57-10.29-5.281-8.798-13.823-14.05-22.851-14.05-15.577 0-28.25 15.369-28.25 34.26.001 18.886 12.674 34.25 28.251 34.25z"/><path d="m49.396 292.635c0-16.363-11.079-29.675-24.697-29.675-13.62 0-24.699 13.312-24.699 29.675s11.079 29.675 24.698 29.675c13.618 0 24.698-13.312 24.698-29.675zm-24.698 14.675c-5.166 0-9.698-6.857-9.698-14.675s4.532-14.675 9.698-14.675 9.697 6.857 9.697 14.675-4.531 14.675-9.697 14.675z"/><path d="m155.893 268.509c15.577 0 28.25-15.367 28.25-34.255s-12.673-34.255-28.25-34.255c-15.578 0-28.251 15.367-28.251 34.255s12.672 34.255 28.251 34.255zm0-53.51c7.183 0 13.25 8.818 13.25 19.255s-6.067 19.255-13.25 19.255-13.251-8.818-13.251-19.255 6.068-19.255 13.251-19.255z"/><path d="m211.238 262.96c-13.619 0-24.698 13.312-24.698 29.675s11.079 29.675 24.698 29.675c13.618 0 24.697-13.312 24.697-29.675s-11.079-29.675-24.697-29.675zm0 44.35c-5.166 0-9.698-6.857-9.698-14.675s4.532-14.675 9.698-14.675 9.697 6.857 9.697 14.675-4.531 14.675-9.697 14.675z"/><path d="m60.329 338.621c7.068-4.11 19.692-13.116 21.515-22.546 4.382-22.794 28.758-24.565 36.125-24.565s31.743 1.771 36.125 24.565c1.821 9.428 14.451 18.438 21.517 22.545 8.364 4.864 15.588 9.065 18.489 20.486 1.021 4.015 5.105 6.441 9.116 5.422 4.015-1.02 6.442-5.101 5.423-9.116-4.453-17.528-16.116-24.31-25.488-29.76-6.659-3.873-11.956-6.952-14.464-13.103-5.487-26.558-29.728-36.042-50.718-36.042s-45.23 9.485-50.718 36.042c-2.507 6.15-7.803 9.23-14.462 13.102-10.279 5.977-23.072 13.415-26.476 34.554-7.552 46.905 41.757 78.672 79.578 44.287 4.179-3.8 6.088-5.532 11.913-5.406.109.003.219.003.328 0 5.841-.121 7.734 1.607 11.913 5.406 22.145 20.13 64.319 18.894 76.946-11.692 1.58-3.829-.242-8.214-4.071-9.794s-8.214.242-9.794 4.071c-8.8 21.318-38.156 19.805-52.99 6.317-4.81-4.372-10.244-9.313-21.474-9.313-.229 0-.46.002-.694.006-11.703-.225-17.26 4.846-22.167 9.307-24.979 22.705-60.27 3.939-54.68-30.803 2.275-14.126 9.748-18.47 19.208-23.97z"/><path d="m356.107 161.547c15.578 0 28.251-15.367 28.251-34.255s-12.673-34.256-28.251-34.256c-15.577 0-28.25 15.367-28.25 34.256s12.673 34.255 28.25 34.255zm0-53.511c7.183 0 13.251 8.818 13.251 19.256s-6.068 19.255-13.251 19.255-13.25-8.818-13.25-19.255c0-10.438 6.068-19.256 13.25-19.256z"/><path d="m325.46 185.672c0-16.363-11.079-29.675-24.698-29.675-13.618 0-24.697 13.312-24.697 29.675s11.079 29.675 24.697 29.675c13.619.001 24.698-13.312 24.698-29.675zm-24.698 14.676c-5.166 0-9.697-6.857-9.697-14.675s4.531-14.675 9.697-14.675 9.698 6.857 9.698 14.675-4.532 14.675-9.698 14.675z"/><path d="m431.956 161.547c15.577 0 28.25-15.367 28.25-34.255s-12.673-34.256-28.25-34.256-28.25 15.367-28.25 34.256 12.673 34.255 28.25 34.255zm0-53.511c7.183 0 13.25 8.818 13.25 19.256s-6.067 19.255-13.25 19.255-13.25-8.818-13.25-19.255c0-10.438 6.067-19.256 13.25-19.256z"/><path d="m487.302 155.997c-13.618 0-24.697 13.312-24.697 29.675s11.079 29.675 24.697 29.675c13.619 0 24.698-13.312 24.698-29.675s-11.079-29.675-24.698-29.675zm0 44.351c-5.166 0-9.697-6.857-9.697-14.675s4.531-14.675 9.697-14.675 9.698 6.857 9.698 14.674-4.532 14.676-9.698 14.676z"/><path d="m459.21 218.696c-6.659-3.873-11.955-6.953-14.461-13.105-5.486-26.558-29.728-36.043-50.718-36.043s-45.23 9.484-50.718 36.042c-2.507 6.15-7.804 9.23-14.462 13.102-10.279 5.977-23.073 13.416-26.476 34.555-7.583 47.096 42.158 78.307 79.578 44.286 4.179-3.8 6.091-5.532 11.913-5.406.109.003.219.003.328 0 5.824-.131 7.734 1.607 11.913 5.406 20.849 18.952 59.484 19.823 74.682-7.042 2.039-3.605.77-8.181-2.836-10.221-3.604-2.04-8.181-.77-10.221 2.835-10.647 18.82-37.597 15.997-51.535 3.328-4.906-4.46-10.426-9.486-22.167-9.307-11.725-.228-17.261 4.846-22.168 9.307-24.977 22.71-60.271 3.936-54.679-30.803 2.274-14.126 9.746-18.47 19.206-23.971 7.068-4.11 19.693-13.116 21.516-22.546 4.382-22.794 28.758-24.565 36.125-24.565s31.743 1.771 36.125 24.565c1.823 9.432 14.443 18.438 21.513 22.549 9.401 5.468 16.827 9.787 19.155 23.694.684 4.084 4.553 6.844 8.636 6.159 4.085-.684 6.843-4.55 6.159-8.635-3.491-20.855-16.198-28.245-26.408-34.184z"/></g></svg>