<svg id="Capa_1" enable-background="new 0 0 512 512" height="512" viewBox="0 0 512 512" width="512" xmlns="http://www.w3.org/2000/svg"><g><path d="m325.629 256c0-21.265-21.945-38.565-48.919-38.565-11.038 0-21.845 2.948-30.431 8.302-6.014 3.75-13.75 3.823-19.022-.669-18.259-15.561-40.887-4.561-40.887 15.399v31.068c.002 21.894 21.878 30.225 40.886 15.398 5.462-4.261 13.008-4.419 19.022-.669 8.586 5.353 19.393 8.302 30.431 8.302 26.975-.001 48.92-17.301 48.92-38.566zm-107.373 18.932c-4.691 4.469-16.882 7.66-16.885-3.399v-31.066c.002-10.492 11.706-7.988 16.885-3.4 10.535 7.901 24.649 8.45 35.959 1.398 6.236-3.888 14.225-6.03 22.494-6.03 18.386 0 33.919 10.791 33.919 23.564s-15.533 23.564-33.919 23.564c-8.269 0-16.431-1.876-22.494-6.03-11.715-8.025-29.216-5.025-35.959 1.399z"/><path d="m411.322 0h-310.644c-4.142 0-7.5 3.358-7.5 7.5v15.575c0 12.707 6.188 23.996 15.709 31.012-9.52 7.016-15.707 18.305-15.707 31.011v106.357c0 4.142 3.358 7.5 7.5 7.5s7.5-3.358 7.5-7.5v-106.357c0-12.959 10.543-23.502 23.502-23.502h248.637c12.959 0 23.502 10.543 23.502 23.502v53.533c0 4.142 3.358 7.5 7.5 7.5s7.5-3.358 7.5-7.5v-53.533c0-12.707-6.188-23.995-15.707-31.011 9.521-7.016 15.709-18.305 15.709-31.012v-15.575c-.001-4.142-3.359-7.5-7.501-7.5zm-7.5 23.075c0 12.959-10.543 23.502-23.502 23.502h-248.64c-12.959 0-23.502-10.543-23.502-23.502v-8.075h47.128v11.317c0 4.142 3.358 7.5 7.5 7.5s7.5-3.358 7.5-7.5v-11.317h47.128v11.317c0 4.142 3.358 7.5 7.5 7.5s7.5-3.358 7.5-7.5v-11.317h47.128v11.317c0 4.142 3.358 7.5 7.5 7.5s7.5-3.358 7.5-7.5v-11.317h47.128v11.317c0 4.142 3.358 7.5 7.5 7.5s7.5-3.358 7.5-7.5v-11.317h47.128v8.075z"/><path d="m403.085 457.964c9.536-7.015 15.736-18.313 15.736-31.032v-255.618c0-4.142-3.358-7.5-7.5-7.5s-7.5 3.358-7.5 7.5v255.618c0 12.959-10.543 23.502-23.502 23.502h-248.638c-12.959 0-23.502-10.543-23.502-23.502v-202.784c0-4.142-3.358-7.5-7.5-7.5s-7.5 3.358-7.5 7.5v202.784c0 12.719 6.2 24.017 15.736 31.032-9.537 7.015-15.737 18.313-15.737 31.033v15.503c0 4.142 3.358 7.5 7.5 7.5h310.644c4.142 0 7.5-3.358 7.5-7.5v-15.502c0-12.721-6.2-24.019-15.737-31.034zm.737 39.036h-47.128v-11.552c0-4.142-3.358-7.5-7.5-7.5s-7.5 3.358-7.5 7.5v11.552h-47.128v-11.552c0-4.142-3.358-7.5-7.5-7.5s-7.5 3.358-7.5 7.5v11.552h-47.128v-11.552c0-4.142-3.358-7.5-7.5-7.5s-7.5 3.358-7.5 7.5v11.552h-47.128v-11.552c0-4.142-3.358-7.5-7.5-7.5s-7.5 3.358-7.5 7.5v11.552h-47.128v-8.002c0-12.959 10.543-23.502 23.502-23.502h248.636c12.959 0 23.502 10.543 23.502 23.502z"/><path d="m169.1 349.024c17.191 14.035 41.354 22.751 69.876 25.206 4.13.357 7.76-2.703 8.115-6.829.355-4.127-2.702-7.76-6.829-8.115-58.213-5.012-100.45-45.597-79.831-106.822.306-.908.435-1.866.38-2.822l-5.141-89.746c-.342-5.979 7.229-9.834 11.863-6.363l40.403 30.312c2.341 1.757 5.491 1.991 8.067.599 25.316-13.682 54.668-13.674 79.987-.008 2.576 1.39 5.723 1.155 8.063-.6l40.41-30.308c4.628-3.481 12.197.412 11.856 6.367l-5.14 89.717c-.055.958.075 1.918.381 2.827 20.663 61.257-21.535 101.859-79.899 106.857-4.127.354-7.186 3.985-6.833 8.113.335 3.909 3.611 6.861 7.465 6.861 69.047 0 115.31-59.53 93.944-125.228l5.059-88.288c1.033-18.043-21.851-29.738-35.84-19.22l-36.656 27.49c-27.21-13.201-58.404-13.205-85.612.008l-36.658-27.503c-13.998-10.486-36.87 1.151-35.837 19.223l5.059 88.32c-11.375 35.036-6.615 75.489 23.348 99.952z"/><path d="m325.629 100.678c0-4.142-3.358-7.5-7.5-7.5h-124.258c-4.142 0-7.5 3.358-7.5 7.5s3.358 7.5 7.5 7.5h124.258c4.142 0 7.5-3.358 7.5-7.5z"/><path d="m124.242 395.79c0 4.142 3.358 7.5 7.5 7.5h93.193c4.142 0 7.5-3.358 7.5-7.5s-3.358-7.5-7.5-7.5h-93.193c-4.142 0-7.5 3.358-7.5 7.5z"/><path d="m131.742 434.355h62.129c4.142 0 7.5-3.358 7.5-7.5s-3.358-7.5-7.5-7.5h-62.129c-4.142 0-7.5 3.358-7.5 7.5s3.358 7.5 7.5 7.5z"/><path d="m380.258 388.29h-93.193c-4.142 0-7.5 3.358-7.5 7.5s3.358 7.5 7.5 7.5h93.193c4.142 0 7.5-3.358 7.5-7.5s-3.358-7.5-7.5-7.5z"/><path d="m380.258 418.948h-62.129c-4.142 0-7.5 3.358-7.5 7.5s3.358 7.5 7.5 7.5h62.129c4.142 0 7.5-3.358 7.5-7.5s-3.358-7.5-7.5-7.5z"/><path d="m224.936 124.242c-4.142 0-7.5 3.358-7.5 7.5s3.358 7.5 7.5 7.5h62.129c4.142 0 7.5-3.358 7.5-7.5s-3.358-7.5-7.5-7.5z"/></g></svg>