<svg id="Capa_1" enable-background="new 0 0 512 512" height="512" viewBox="0 0 512 512" width="512" xmlns="http://www.w3.org/2000/svg"><g><path d="m96.314 338.376c-3.914-17.667-5.92-36.067-5.988-54.836 55.479 19.746 134.658 16.725 180.544-24.321 0 0 42.324 3.954 42.553 3.955 37.21.068 66.787 14.344 87.91 42.434 3.297 3.413 6.798 3.907 10.502 1.483 3.309-2.494 3.972-7.202 1.481-10.515-24.035-31.964-57.517-48.253-99.518-48.418l-30.085-2.818c3.583-4.721 6.69-9.733 9.309-15.014l24.56 1.804c3.635.266 6.311-2.047 8.029-6.939.303-4.136-2.8-7.735-6.931-8.038l-19.858-1.459c1.436-4.713 2.538-9.596 3.3-14.637h16.009c4.142 0 7.5-3.362 7.5-7.509s-3.358-7.509-7.5-7.509h-14.757c.3-15.76-2.667-32.831-7.507-47.627l2.388-41.72c.237-4.14-2.923-7.689-7.058-7.926-4.126-.242-7.68 2.927-7.917 7.067l-2.47 43.155c-.055.959.075 1.919.381 2.83 4.61 13.687 7.494 29.588 7.181 44.223h-51.245c-4.142 0-7.5 3.362-7.5 7.509s3.358 7.509 7.5 7.509h49.807c-.835 4.749-2.014 9.248-3.509 13.506l-45.749-3.361c-4.138-.298-7.725 2.804-8.029 6.939-.303 4.136 2.8 7.735 6.931 8.038l40.011 2.94c-21.867 36.31-70.678 50.271-117.119 50.271-46.238 0-94.828-13.839-116.832-49.799l46.432-3.411c4.131-.304 7.234-3.902 6.931-8.038-.304-4.136-3.901-7.244-8.029-6.939l-52.286 3.841c-1.575-4.4-2.813-9.059-3.679-13.987h56.513c4.142 0 7.5-3.362 7.5-7.509s-3.358-7.509-7.5-7.509h-57.951c-.313-14.623 2.571-30.509 7.172-44.186.306-.909.435-1.868.38-2.826l-6.45-112.729c-.522-9.068 10.936-14.888 17.942-9.628l50.699 38.069c2.34 1.757 5.488 1.992 8.063.6 32.11-17.358 70.02-17.416 102.176-.002 2.575 1.394 5.725 1.16 8.068-.598l50.699-38.069c7.007-5.262 18.465.562 17.942 9.63l-2.11 36.868c-.237 4.141 2.923 7.689 7.058 7.926 4.138.228 7.68-2.927 7.917-7.067l2.11-36.865c1.219-21.175-25.546-34.799-41.917-22.506l-46.93 35.239c-34.019-16.91-73.785-16.905-107.842.002l-46.934-35.244c-16.367-12.29-43.135 1.329-41.916 22.503l6.368 111.293c-4.83 14.785-7.797 31.84-7.497 47.586h-8.051c-4.142 0-7.5 3.362-7.5 7.509s3.358 7.509 7.5 7.509h9.303c.788 5.214 1.94 10.258 3.448 15.119l-13.3.977c-4.131.304-7.344 3.912-6.931 8.038.48 4.792 4.394 7.205 8.029 6.939l18.092-1.329c10.468 20.809 28.482 36.409 49.216 46.489-.401 22.024 1.713 43.643 6.297 64.338 2.194 4.608 5.176 6.51 8.946 5.705 4.043-.897 6.594-4.907 5.698-8.955z"/><path d="m449.479 404.057c-1.957-27.845-8.543-55.244-18.766-77.817-1.71-3.777-6.157-5.451-9.927-3.738-3.772 1.712-5.444 6.162-3.733 9.939 9.334 20.61 15.411 45.652 17.36 71.256-25.121-.526-49.416 12.317-60.868 35.245-1.852 3.709-.351 8.22 3.353 10.074 3.816 1.74 7.17.621 10.062-3.357 10.286-20.594 33.612-28.894 55.415-26.944 29.433 0 54.625 25.136 54.625 54.684v23.583h-232.862c1.751-8.819 7.64-14.729 23.576-16.107 5.548-1.301 7.654-4.724 6.318-10.27-19.21-48.075 5.102-82.985 55.159-82.985 4.142 0 7.5-3.362 7.5-7.509s-3.358-7.509-7.5-7.509c-55.428 0-89.763 40.119-72.258 94.775-16.439 3.823-25.804 13.742-27.949 29.604h-62.686c1.383-9.32 5.698-13.646 9.585-16.079h13.531c4.142 0 7.5-3.362 7.5-7.509s-3.358-7.509-7.5-7.509h-8.031v-54.68c0-4.147-3.358-7.509-7.5-7.509s-7.5 3.362-7.5 7.509v58.016c-6.842 4.857-13.6 13.267-15.188 27.76h-64.725c-1.264-7.769 2.147-12.535 11.14-16.079h14.15c4.142 0 7.5-3.362 7.5-7.509s-3.358-7.509-7.5-7.509h-8.031v-54.681c0-1.278-.326-2.535-.947-3.652-6.973-12.542-12.904-25.549-17.628-38.657-1.405-3.901-5.701-5.923-9.6-4.514-3.896 1.407-5.915 5.71-4.509 9.611 4.781 13.269 10.727 26.43 17.684 39.148v55.28c-15.718 7.628-21.089 21.134-15.122 38.512 1.041 3.032 3.891 5.067 7.093 5.067h403.8c4.142 0 7.5-3.362 7.5-7.509v-31.092c0-36.029-27.455-65.763-62.521-69.339z"/><path d="m90.974 77.503c2.485-3.318 1.813-8.024-1.501-10.512l-27.999-21.022c-2.333-1.753-5.472-1.991-8.045-.61-2.571 1.381-4.109 4.13-3.942 7.047l2.96 51.643c.229 3.994 3.535 7.079 7.481 7.079 3.916 0 7.716-4.067 7.494-7.939l-2.036-35.512 15.088 11.328c3.315 2.489 8.016 1.817 10.5-1.502z"/><path d="m258.571 111.086c3.615.204 6.253-2.152 7.916-7.068l2.95-51.613c.167-2.917-1.372-5.665-3.943-7.046-2.573-1.381-5.71-1.143-8.045.611l-27.979 21.011c-3.313 2.489-3.985 7.195-1.499 10.513 2.485 3.317 7.186 3.989 10.5 1.501l15.069-11.317-2.028 35.483c-.237 4.14 2.924 7.688 7.059 7.925z"/><path d="m89.962 242.731c2.049 4.706 4.941 6.741 8.677 6.106 24.777-4.329 46.926-18.635 61.21-39.079 14.117 20.395 35.572 34.351 60.387 38.925 3.744.67 6.655-1.339 8.734-6.025.75-4.078-1.944-7.993-6.018-8.744-22.787-4.201-42.204-17.805-53.9-37.594l11.627-13.481c2.707-3.139 2.36-7.881-.775-10.591-3.137-2.711-7.871-2.362-10.578.776l-9.854 11.426-9.854-11.426c-2.707-3.138-7.443-3.486-10.578-.776-3.135 2.711-3.482 7.452-.775 10.591l12.09 14.018c-11.794 19.491-31.75 33.247-54.295 37.187-4.08.712-6.811 4.602-6.098 8.687z"/><path d="m112.879 171.841c21.263 0 38.562-13.815 38.562-30.797 0-16.981-17.299-30.796-38.562-30.796-21.264 0-38.562 13.815-38.562 30.796-.001 16.982 17.298 30.797 38.562 30.797zm0-46.593c9.77 0 18.381 4.233 21.888 10.056-1.304-1.098-2.988-1.76-4.826-1.76-4.142 0-7.5 3.358-7.5 7.5 0 4.142 3.358 7.5 7.5 7.5 1.838 0 3.522-.662 4.826-1.76-3.508 5.823-12.118 10.056-21.888 10.056-12.772 0-23.562-7.234-23.562-15.797-.001-8.561 10.79-15.795 23.562-15.795z"/><path d="m244.628 141.044c0-16.981-17.299-30.796-38.562-30.796s-38.562 13.815-38.562 30.796 17.299 30.797 38.562 30.797 38.562-13.815 38.562-30.797zm-38.563 15.797c-12.772 0-23.562-7.234-23.562-15.797 0-8.562 10.79-15.796 23.562-15.796 9.77 0 18.381 4.233 21.889 10.056-1.304-1.098-2.988-1.759-4.826-1.759-4.142 0-7.5 3.358-7.5 7.5 0 4.142 3.358 7.5 7.5 7.5 1.838 0 3.522-.662 4.826-1.76-3.508 5.823-12.118 10.056-21.889 10.056z"/></g></svg>