<svg id="Capa_1" enable-background="new 0 0 512 512" height="512" viewBox="0 0 512 512" width="512" xmlns="http://www.w3.org/2000/svg"><g><path d="m434.34 467.194v-96.944c0-4.142-3.357-7.5-7.5-7.5s-7.5 3.358-7.5 7.5v95.69h-237.86c-4.142 0-7.5 3.358-7.5 7.5s3.358 7.5 7.5 7.5h245.36c4.428 0 8.03 3.603 8.03 8.03s-3.603 8.03-8.03 8.03h-341.68c-4.428 0-8.03-3.602-8.03-8.03s3.603-8.03 8.03-8.03h63.64c4.142 0 7.5-3.358 7.5-7.5s-3.358-7.5-7.5-7.5h-56.14v-171.267h326.68v42.887c0 4.142 3.357 7.5 7.5 7.5s7.5-3.358 7.5-7.5v-44.14c9.03-3.117 15.533-11.702 15.533-21.778 0-12.7-10.331-23.031-23.03-23.031h-19.411c7.556-16.227 11.378-33.394 11.378-51.191 0-60.438-45.453-111.986-108.72-131.058v-27.862c0-21.229-17.271-38.5-38.5-38.5h-31.18c-21.229 0-38.5 17.271-38.5 38.5v27.862c-63.266 19.071-108.72 70.62-108.72 131.058 0 17.797 3.822 34.963 11.378 51.191h-19.41c-12.699 0-23.031 10.332-23.031 23.031 0 10.076 6.504 18.661 15.534 21.778v173.774c-9.028 3.118-15.53 11.702-15.53 21.776 0 12.699 10.332 23.03 23.03 23.03h341.68c12.699 0 23.03-10.331 23.03-23.03-.001-10.074-6.503-18.658-15.531-21.776zm-217.43-428.694c0-12.958 10.542-23.5 23.5-23.5h31.18c12.958 0 23.5 10.542 23.5 23.5v24.028c-5.258-1.11-10.616-2.001-16.06-2.662v-5.766c-1.315-14.041-8.992-21.721-23.03-23.04-12.699 0-23.03 10.336-23.03 23.04v5.766c-5.444.661-10.802 1.552-16.06 2.662zm47.121 20.147c-5.353-.223-10.707-.223-16.06 0v-4.547c0-4.433 3.602-8.04 8.03-8.04 4.897.461 7.573 3.141 8.03 8.04zm-155.841 138.773c0-68.341 66.307-123.94 147.81-123.94s147.81 55.599 147.81 123.94c0 17.899-4.429 35.099-13.17 51.191h-46.66c11.907-14.971 18.311-32.656 18.311-51.191 0-48.899-43.874-83.554-88.906-89.887-4.094-.573-7.895 2.281-8.471 6.382-.577 4.102 2.28 7.895 6.382 8.471 44.035 6.193 75.995 37.749 75.995 75.033 0 19.058-8.428 37.138-23.795 51.191h-134.992c-15.367-14.052-23.794-32.133-23.794-51.191 0-37.285 31.96-68.84 75.995-75.033 4.102-.577 6.959-4.37 6.382-8.471s-4.365-6.963-8.471-6.382c-45.032 6.333-88.906 40.988-88.906 89.887 0 18.536 6.403 36.22 18.31 51.191h-46.66c-8.741-16.093-13.17-33.293-13.17-51.191zm-23.032 66.191h341.685c4.428 0 8.03 3.603 8.03 8.031-1.319 5.91-3.997 8.516-8.033 7.818h-341.68c-4.036.698-6.714-1.908-8.034-7.818.001-4.428 3.604-8.031 8.032-8.031z"/><path d="m256 449.874c41.372 0 68.105-20.925 68.105-53.309 0-6.738-1.112-13.668-3.307-20.62l2.783-48.598c.731-12.749-15.409-20.965-25.282-13.559l-18.843 14.132c-15.64-6.806-31.279-6.805-46.919.002l-18.846-14.134c-9.874-7.405-26.012.811-25.282 13.56l2.785 48.617c-2.191 6.945-3.301 13.869-3.301 20.6.001 32.384 26.735 53.309 68.107 53.309zm-49.749-73.358-2.865-50.026c-.039-.659.797-1.086 1.308-.702l22.526 16.895c2.341 1.756 5.491 1.99 8.066.598 13.42-7.251 28.01-7.252 41.426-.002 2.575 1.392 5.724 1.158 8.065-.598l22.523-16.893c.814-.261 1.25-.027 1.308.702l-2.864 50.008c-.056.956.073 1.914.379 2.822 1.979 5.879 2.983 11.681 2.983 17.245 0 35.546-40.647 38.309-53.105 38.309s-53.106-2.763-53.106-38.309c0-5.558 1.002-11.355 2.978-17.229.304-.908.433-1.865.378-2.82z"/><path d="m162.814 403.811h-46.594c-4.142 0-7.5 3.358-7.5 7.5s3.358 7.5 7.5 7.5h46.594c4.142 0 7.5-3.358 7.5-7.5s-3.358-7.5-7.5-7.5z"/><path d="m162.814 434.874h-46.594c-4.142 0-7.5 3.358-7.5 7.5s3.358 7.5 7.5 7.5h46.594c4.142 0 7.5-3.358 7.5-7.5s-3.358-7.5-7.5-7.5z"/><path d="m395.781 403.811h-46.594c-4.143 0-7.5 3.358-7.5 7.5s3.357 7.5 7.5 7.5h46.594c4.143 0 7.5-3.358 7.5-7.5s-3.358-7.5-7.5-7.5z"/><path d="m395.781 434.874h-46.594c-4.143 0-7.5 3.358-7.5 7.5s3.357 7.5 7.5 7.5h46.594c4.143 0 7.5-3.358 7.5-7.5s-3.358-7.5-7.5-7.5z"/></g></svg>