<svg id="Capa_1" enable-background="new 0 0 512 512" height="512" viewBox="0 0 512 512" width="512" xmlns="http://www.w3.org/2000/svg"><g><path d="m504.5 264.087h-25.022l-24.387-109.636c-3.941-17.749-19.396-30.144-37.581-30.144h-57.686l-13.37-52.288c-6.038-24.15-27.64-41.017-52.533-41.017h-75.842c-24.894 0-46.496 16.867-52.523 40.978l-13.379 52.327h-57.687c-18.186 0-33.64 12.396-37.581 30.142l-24.387 109.638h-25.022c-4.143 0-7.5 3.358-7.5 7.5v61.93c0 4.142 3.357 7.5 7.5 7.5h24.999l24.41 109.826c3.943 17.754 19.396 30.154 37.581 30.154h83.05c4.143 0 7.5-3.358 7.5-7.5s-3.357-7.5-7.5-7.5h-83.05c-11.099 0-20.531-7.569-22.938-18.408l-23.643-106.372h138.467v8.027c0 4.142 3.357 7.5 7.5 7.5h124.248c4.143 0 7.5-3.358 7.5-7.5v-8.027h138.467l-23.643 106.374c-2.407 10.837-11.84 18.406-22.938 18.406h-207.29c-4.143 0-7.5 3.358-7.5 7.5s3.357 7.5 7.5 7.5h207.29c18.185 0 33.638-12.4 37.581-30.153l24.41-109.827h24.999c4.143 0 7.5-3.358 7.5-7.5v-61.93c0-4.142-3.357-7.5-7.5-7.5zm-324.401-188.43c4.364-17.46 19.982-29.655 37.98-29.655h75.842c17.998 0 33.616 12.194 37.99 29.693l12.429 48.611h-17.079l-11.172-44.696c-2.549-10.19-11.664-17.308-22.168-17.308h-75.842c-10.504 0-19.619 7.117-22.168 17.309l-11.173 44.696h-17.079zm-165.099 203.43h171.376v46.93h-171.376zm186.376 62.657v-78.187h109.248v78.187zm295.624-15.726h-171.376v-46.93h38.286c4.143 0 7.5-3.358 7.5-7.5s-3.357-7.5-7.5-7.5h-38.286v-8.03c0-4.142-3.357-7.5-7.5-7.5h-124.248c-4.143 0-7.5 3.358-7.5 7.5v7.93h-138.465l23.641-106.284c2.406-10.831 11.839-18.396 22.938-18.396h145.17c4.143 0 7.5-3.358 7.5-7.5s-3.357-7.5-7.5-7.5h-39.46l10.264-41.058c.875-3.501 4.007-5.947 7.615-5.947h75.842c3.608 0 6.74 2.445 7.615 5.946l10.264 41.059h-39.46c-4.143 0-7.5 3.358-7.5 7.5s3.357 7.5 7.5 7.5h145.17c11.1 0 20.532 7.565 22.938 18.398l23.641 106.282h-67.499c-4.143 0-7.5 3.358-7.5 7.5 0 .017 0 .033.001.05 0 .017-.001.033-.001.05 0 4.142 3.357 7.5 7.5 7.5h100.41z"/><path d="m131.751 155.371c-12.699 0-23.031 10.332-23.031 23.031v31.062c0 12.7 10.332 23.031 23.031 23.031s23.031-10.332 23.031-23.031v-31.062c0-12.7-10.332-23.031-23.031-23.031zm8.031 54.093c0 4.428-3.603 8.031-8.031 8.031s-8.031-3.603-8.031-8.031v-31.062c0-4.428 3.603-8.031 8.031-8.031s8.031 3.603 8.031 8.031z"/><path d="m256 155.371c-12.699 0-23.031 10.332-23.031 23.031v31.062c0 12.7 10.332 23.031 23.031 23.031s23.031-10.332 23.031-23.031v-31.062c0-12.7-10.332-23.031-23.031-23.031zm8.031 54.093c0 4.428-3.603 8.031-8.031 8.031s-8.031-3.603-8.031-8.031v-31.062c0-4.428 3.603-8.031 8.031-8.031s8.031 3.603 8.031 8.031z"/><path d="m403.28 209.464v-31.062c0-12.7-10.332-23.031-23.031-23.031s-23.031 10.332-23.031 23.031v31.062c0 12.7 10.332 23.031 23.031 23.031s23.031-10.331 23.031-23.031zm-15 0c0 4.428-3.603 8.031-8.031 8.031s-8.031-3.603-8.031-8.031v-31.062c0-4.428 3.603-8.031 8.031-8.031s8.031 3.603 8.031 8.031z"/><path d="m193.875 155.371c-12.699 0-23.03 10.332-23.03 23.031v31.062c0 12.7 10.332 23.031 23.031 23.031s23.03-10.332 23.03-23.031v-31.062c0-12.7-10.332-23.031-23.031-23.031zm8.031 54.093c0 4.428-3.603 8.031-8.03 8.031h-.001c-4.428 0-8.03-3.603-8.03-8.031v-31.062c0-4.428 3.603-8.031 8.031-8.031s8.03 3.603 8.03 8.031z"/><path d="m318.124 155.371c-12.699 0-23.03 10.332-23.03 23.031v31.062c0 12.7 10.332 23.031 23.031 23.031s23.03-10.332 23.03-23.031v-31.062c0-12.7-10.332-23.031-23.031-23.031zm8.031 54.093c0 4.428-3.603 8.031-8.03 8.031h-.001c-4.428 0-8.03-3.603-8.03-8.031v-31.062c0-4.428 3.603-8.031 8.031-8.031s8.03 3.603 8.03 8.031z"/><path d="m108.72 395.837v31.063c0 12.699 10.332 23.031 23.031 23.031s23.031-10.332 23.031-23.031v-31.062c0-12.7-10.332-23.031-23.031-23.031s-23.031 10.331-23.031 23.03zm31.062 0v31.063c0 4.428-3.603 8.031-8.031 8.031s-8.031-3.603-8.031-8.031v-31.062c0-4.428 3.603-8.031 8.031-8.031s8.031 3.602 8.031 8.03z"/><path d="m279.031 426.9v-31.062c0-12.7-10.332-23.031-23.031-23.031s-23.031 10.332-23.031 23.031v31.062c0 12.699 10.332 23.031 23.031 23.031s23.031-10.332 23.031-23.031zm-31.062 0v-31.062c0-4.428 3.603-8.031 8.031-8.031s8.031 3.603 8.031 8.031v31.062c0 4.428-3.603 8.031-8.031 8.031s-8.031-3.603-8.031-8.031z"/><path d="m403.28 426.9v-31.062c0-12.7-10.332-23.031-23.031-23.031s-23.031 10.332-23.031 23.031v31.062c0 12.699 10.332 23.031 23.031 23.031s23.031-10.332 23.031-23.031zm-31.062 0v-31.062c0-4.428 3.603-8.031 8.031-8.031s8.031 3.603 8.031 8.031v31.062c0 4.428-3.603 8.031-8.031 8.031s-8.031-3.603-8.031-8.031z"/><path d="m216.906 426.9v-31.062c0-12.7-10.332-23.031-23.031-23.031s-23.03 10.332-23.03 23.031v31.062c0 12.699 10.332 23.031 23.031 23.031s23.03-10.332 23.03-23.031zm-15 0c0 4.428-3.603 8.031-8.03 8.031h-.001c-4.428 0-8.03-3.603-8.03-8.031v-31.062c0-4.428 3.603-8.031 8.031-8.031s8.03 3.603 8.03 8.031z"/><path d="m341.155 426.9v-31.062c0-12.7-10.332-23.031-23.031-23.031s-23.03 10.332-23.03 23.031v31.062c0 12.699 10.332 23.031 23.031 23.031s23.03-10.332 23.03-23.031zm-31.061 0v-31.062c0-4.428 3.603-8.031 8.031-8.031s8.03 3.603 8.03 8.031v31.062c0 4.428-3.603 8.031-8.03 8.031h-.001c-4.428 0-8.03-3.603-8.03-8.031z"/><path d="m256 279.52c-12.699 0-23.031 10.332-23.031 23.031s10.332 23.031 23.031 23.031 23.031-10.332 23.031-23.031c0-12.7-10.332-23.031-23.031-23.031zm0 31.062c-4.429 0-8.031-3.603-8.031-8.031s3.603-8.031 8.031-8.031 8.031 3.603 8.031 8.031-3.602 8.031-8.031 8.031z"/></g></svg>