<svg id="Capa_1" enable-background="new 0 0 512 512" height="512" viewBox="0 0 512 512" width="512" xmlns="http://www.w3.org/2000/svg"><g><path d="m442.44 434.87h-44.94c-4.143 0-7.5 3.358-7.5 7.5s3.357 7.5 7.5 7.5h44.94c12.958 0 23.5 10.542 23.5 23.5v23.63h-155.846v-23.626c0-8.842-2.997-16.997-8.027-23.503h62.753c4.143 0 7.5-3.358 7.5-7.5s-3.357-7.5-7.5-7.5h-85.774l.047-23.536c.002-1.174-.271-2.332-.798-3.381-6.067-12.083-15.531-21.617-26.919-27.696 10.148-5.417 18.768-13.578 24.817-23.841 16.967-2.031 30.579-15.142 33.37-31.868 9.302-2.961 16.06-11.682 16.06-21.952 0-10.076-6.505-18.662-15.535-21.779v-86.128c0-4.142-3.357-7.5-7.5-7.5s-7.5 3.358-7.5 7.5v84.874h-233.488v-202.434h233.49v84.87c0 4.142 3.357 7.5 7.5 7.5s7.5-3.358 7.5-7.5v-86.126c9.028-3.12 15.53-11.704 15.53-21.779 0-10.27-6.755-18.99-16.055-21.954-3.04-18.214-18.912-32.141-37.975-32.141h-186.49c-19.062 0-34.933 13.926-37.975 32.138-9.305 2.96-16.065 11.684-16.065 21.957 0 10.078 6.507 18.666 15.54 21.782v204.939c-9.031 3.117-15.535 11.702-15.535 21.779 0 10.27 6.758 18.991 16.06 21.952 2.791 16.726 16.403 29.836 33.37 31.868 6.05 10.263 14.669 18.424 24.817 23.842-11.388 6.079-20.851 15.614-26.917 27.697-.524 1.044-.798 2.197-.798 3.365v24.289c-17.651 3.499-31 19.103-31 37.766v31.125c0 4.142 3.357 7.5 7.5 7.5h77.655c4.143 0 7.5-3.358 7.5-7.5 0-12.992 10.57-23.562 23.562-23.562h31.062c12.992 0 23.562 10.57 23.562 23.562 0 4.142 3.357 7.5 7.5 7.5l248.502.001c4.143 0 7.5-3.358 7.5-7.5v-31.13c0-21.229-17.271-38.5-38.5-38.5zm-388.345-388.81h68.695c4.143 0 7.5-3.358 7.5-7.5s-3.357-7.5-7.5-7.5h-59.983c3.119-9.323 11.934-16.06 22.293-16.06h186.49c10.348 0 19.154 6.723 22.283 16.06h-138.393c-4.143 0-7.5 3.358-7.5 7.5s3.357 7.5 7.5 7.5h147.104c4.431 0 8.035 3.604 8.035 8.035 0 4.43-3.604 8.035-8.035 8.035h-248.489c-4.431 0-8.035-3.604-8.035-8.035 0-4.43 3.604-8.035 8.035-8.035zm.001 248.504h248.498c4.429 0 8.031 3.603 8.031 8.031s-3.603 8.031-8.031 8.031h-248.498c-4.429 0-8.031-3.603-8.031-8.031s3.602-8.031 8.031-8.031zm8.72 31.062h231.068c-3.118 9.325-11.934 16.064-22.294 16.064h-186.49c-10.35 0-19.157-6.724-22.284-16.064zm36.391 31.068h158.275c-9.107 10.117-22.136 16.055-36.232 16.055h-85.812c-14.096 0-27.125-5.938-36.231-16.055zm-6.611 56.468c8.576-15.709 24.837-25.397 42.843-25.397h85.812c18.004 0 34.263 9.684 42.84 25.39l-.044 21.719h-171.451zm101.28 52.774h-31.062c-18.697 0-34.33 13.377-37.83 31.062h-63.388v-23.625c0-12.958 10.542-23.5 23.5-23.5h186.498c12.958 0 23.5 10.542 23.5 23.5v23.625h-63.389c-3.5-17.686-19.132-31.062-37.829-31.062z"/><path d="m119.168 249.635c14.957 10.344 35.421 15.811 59.177 15.811 53.024 0 99.427-34.448 80.899-92.349l3.589-62.659c.837-14.635-17.69-24.065-29.023-15.564l-25.146 18.859c-19.317-8.992-41.329-8.992-60.646.002l-25.147-18.861c-11.333-8.5-29.865.926-29.024 15.564l3.59 62.683c-8.992 28.122-3.573 59.016 21.731 76.514zm-6.675-75.953-3.672-64.101c-.145-2.544 3.078-4.187 5.049-2.707l28.863 21.647c2.342 1.757 5.491 1.99 8.066.598 17.448-9.431 37.636-9.431 55.085-.003 2.577 1.392 5.725 1.158 8.065-.598l28.86-21.645c1.971-1.481 5.193.165 5.048 2.707l-3.671 64.076c-.056.957.073 1.915.379 2.822 16.318 48.459-22.516 73.966-66.222 73.966-43.698 0-82.526-25.493-66.23-73.944.307-.906.435-1.863.38-2.818z"/><path d="m178.345 209.141c12.699 0 23.031-10.332 23.031-23.031 0-10.129-12.905-29.599-16.86-35.325-1.4-2.027-3.707-3.237-6.171-3.237s-4.771 1.21-6.171 3.237c-3.955 5.726-16.86 25.196-16.86 35.325-.001 12.7 10.332 23.031 23.031 23.031zm.002-40.22c4.632 7.757 7.989 14.773 8.029 17.192-.002 4.427-3.604 8.028-8.031 8.028-4.429 0-8.031-3.603-8.031-8.028.04-2.413 3.399-9.43 8.033-17.192z"/></g></svg>