<svg id="Capa_1" enable-background="new 0 0 512 512" height="512" viewBox="0 0 512 512" width="512" xmlns="http://www.w3.org/2000/svg"><g><path d="m279.172 124.65v-23.962c0-4.142-3.358-7.5-7.5-7.5h-39.218v-31.696h15.796c4.142 0 7.5-3.358 7.5-7.5v-.096h70.25v31.379c0 4.142 3.358 7.5 7.5 7.5h31.301c4.142 0 7.5-3.358 7.5-7.5v-39.529c0-21.036-17.114-38.15-38.151-38.15h-78.4v-.096c0-4.142-3.358-7.5-7.5-7.5h-77.656c-4.142 0-7.5 3.358-7.5 7.5v46.492c0 4.142 3.358 7.5 7.5 7.5h15.797v31.697h-39.09c-4.142 0-7.5 3.358-7.5 7.5v23.95c-34.861 3.701-62.11 33.283-62.11 69.11v279.751c0 21.229 17.271 38.5 38.5 38.5h186.48c21.229 0 38.5-17.271 38.5-38.5v-129.131c0-4.142-3.358-7.5-7.5-7.5s-7.5 3.358-7.5 7.5v90.361h-145.729c-4.142 0-7.5 3.358-7.5 7.5s3.358 7.5 7.5 7.5h145.731v23.77c0 12.958-10.542 23.5-23.5 23.5h-186.48c-12.958 0-23.5-10.542-23.5-23.5v-23.77h55.07c4.142 0 7.5-3.358 7.5-7.5s-3.358-7.5-7.5-7.5h-55.07v-233.481h233.481v110.431c0 4.142 3.358 7.5 7.5 7.5s7.5-3.358 7.5-7.5v-117.931c-.001-35.789-27.193-65.347-62.002-69.099zm54.979-102.054c12.766 0 23.151 10.385 23.151 23.15v32.029h-16.301v-31.379c0-4.142-3.358-7.5-7.5-7.5h-77.75v-16.3zm-156.056-7.596h62.656v31.492h-62.656zm23.297 78.187v-31.593h16.062v31.593zm-54.2 46.062h45.89c4.142 0 7.5-3.358 7.5-7.5s-3.358-7.5-7.5-7.5h-38.28v-16.06h109.371v16.06h-38.41c-4.142 0-7.5 3.358-7.5 7.5s3.358 7.5 7.5 7.5h45.91c27.508 0 50.321 20.485 53.986 47h-232.453c3.666-26.516 26.479-47 53.986-47z"/><path d="m372.302 131.75c0-12.7-10.332-23.031-23.031-23.031s-23.031 10.331-23.031 23.031 10.332 23.031 23.031 23.031 23.031-10.332 23.031-23.031zm-23.031 8.031c-4.428 0-8.031-3.603-8.031-8.031s3.603-8.031 8.031-8.031 8.031 3.603 8.031 8.031-3.603 8.031-8.031 8.031z"/><path d="m403.571 155.312c-16.949 0-30.737 13.789-30.737 30.737s13.789 30.737 30.737 30.737 30.737-13.789 30.737-30.737-13.788-30.737-30.737-30.737zm0 46.475c-8.678 0-15.737-7.06-15.737-15.737s7.06-15.737 15.737-15.737 15.737 7.06 15.737 15.737-7.059 15.737-15.737 15.737z"/><path d="m380.333 232.968c-12.7 0-23.031 10.332-23.031 23.031s10.332 23.031 23.031 23.031 23.031-10.332 23.031-23.031-10.331-23.031-23.031-23.031zm0 31.062c-4.428 0-8.031-3.603-8.031-8.031s3.603-8.031 8.031-8.031 8.031 3.603 8.031 8.031-3.602 8.031-8.031 8.031z"/><path d="m209.49 335.527c32.129 0 52.89-16.411 52.89-41.808 0-5.13-.827-10.397-2.46-15.677l2.065-36.055c.633-11.066-13.375-18.196-21.945-11.769l-13.237 9.928c-11.22-4.708-23.411-4.707-34.629.001l-13.24-9.93c-8.571-6.425-22.577.702-21.944 11.77l2.066 36.07c-1.63 5.273-2.456 10.536-2.456 15.662 0 25.398 20.761 41.808 52.89 41.808zm-35.379-56.93-1.99-34.738 14.684 11.013c2.341 1.756 5.491 1.99 8.066.598 9.493-5.13 19.74-5.131 29.235-.001 2.575 1.391 5.725 1.157 8.065-.599l14.682-11.011-1.989 34.724c-.055.956.074 1.914.38 2.821 1.417 4.21 2.136 8.354 2.136 12.315 0 24.875-29.001 26.808-37.89 26.808s-37.89-1.933-37.89-26.808c0-3.958.717-8.097 2.132-12.302.305-.907.434-1.865.379-2.82z"/><path d="m279.172 363.305c0-4.142-3.358-7.5-7.5-7.5h-124.374c-4.142 0-7.5 3.358-7.5 7.5s3.358 7.5 7.5 7.5h124.374c4.142 0 7.5-3.358 7.5-7.5z"/><path d="m164.1 388.249c-4.142 0-7.5 3.358-7.5 7.5s3.358 7.5 7.5 7.5h91.984c4.142 0 7.5-3.358 7.5-7.5s-3.358-7.5-7.5-7.5z"/></g></svg>