<svg id="Capa_1" enable-background="new 0 0 512 512" height="512" viewBox="0 0 512 512" width="512" xmlns="http://www.w3.org/2000/svg"><g><path d="m510.208 51.585c-.716-6.04-2.442-11.948-5.129-17.561-1.789-3.737-6.275-5.319-10.019-3.532-3.743 1.786-5.328 6.263-3.539 10 1.977 4.127 3.243 8.452 3.767 12.866 6.06 50.552-4.308 94.837-31.7 135.389-4.34 4.54-8.603 4.444-12.787-.287-31.974-50.885-75.098-94.002-126.032-125.989-4.668-4.251-4.655-8.512.041-12.784 44.723-28.536 90.145-39.544 134.996-32.713 4.218.645 8.276 1.913 12.061 3.769 3.724 1.825 8.226.292 10.055-3.426 1.828-3.718.292-8.212-3.433-10.037-5.158-2.528-10.678-4.254-16.413-5.131-48.567-7.398-97.474 4.348-145.358 34.9-13.723 8.749-13.77 29.426.043 38.116 17.985 11.295 34.828 23.88 50.475 37.7l-17.867 17.841c-19.819-13.311-44.415-21.732-73.221-25.053-14.247-.308-22.847 6.497-25.799 20.414.042 14.618 6.859 23.198 20.453 25.742 17.819 2.06 32.567 6.211 44.774 12.626l-21.524 21.478c-4.883-3.278-10.069-6.273-15.484-8.942-3.722-1.835-8.226-.309-10.062 3.405-1.837 3.714-.31 8.211 3.411 10.044 6.604 3.254 12.811 7.046 18.448 11.272 3.361 2.212 6.635 1.981 9.823-.693l32.826-32.757c3.26-4.191 2.888-8.032-1.114-11.523-15.639-10.518-35.059-16.998-59.38-19.81-10.354-1.183-8.849-17.61 1.9-16.357 28.768 3.317 52.742 12.042 71.257 25.932 2.991 2.244 7.181 1.95 9.828-.693l22.793-22.76c3.916 3.745 7.751 7.572 11.503 11.481l-22.734 22.692c-2.658 2.653-2.943 6.859-.666 9.844 14.111 18.508 22.824 42.472 25.895 71.226.063 5.041-2.38 8.064-7.329 9.067-4.529.487-8.598-2.805-9.084-7.314-2.587-24.286-9.054-43.695-19.772-59.336-3.503-3.955-7.341-4.311-11.515-1.068l-32.837 32.787c-2.657 2.653-2.941 6.857-.666 9.842 14.113 18.519 22.825 42.487 25.896 71.237.063 5.038-2.38 8.057-7.328 9.057-4.53.48-8.603-2.801-9.085-7.318-2.6-24.309-9.068-43.714-19.772-59.325-3.503-3.953-7.34-4.308-11.512-1.067l-32.847 32.787c-2.659 2.654-2.943 6.861-.665 9.847 14.109 18.491 22.821 42.455 25.893 71.223.482 4.514-2.81 8.582-7.329 9.067-5.049.062-8.073-2.377-9.074-7.317-2.596-24.284-9.063-43.691-19.77-59.33-3.502-3.958-7.341-4.315-11.516-1.072l-32.846 32.787c-2.657 2.653-2.943 6.857-.667 9.843 14.113 18.52 22.826 42.488 25.896 71.237.482 4.514-2.806 8.577-7.329 9.057-4.521.487-8.602-2.8-9.084-7.314-2.587-24.292-9.056-43.699-19.773-59.328-3.502-3.952-7.339-4.308-11.511-1.068l-25.521 25.466-11.494-11.473 25.43-25.385c3.259-4.191 2.888-8.031-1.114-11.522-15.645-10.522-35.069-16.999-59.368-19.797-10.357-1.215-8.872-17.599 1.885-16.37 28.79 3.329 52.761 12.054 71.248 25.932 2.99 2.244 7.18 1.951 9.827-.69l32.827-32.757c3.259-4.189 2.889-8.029-1.11-11.521-15.622-10.517-35.043-16.997-59.384-19.812-4.814-.906-7.229-3.948-7.244-9.125.524-4.511 4.637-7.754 9.145-7.232 28.767 3.315 52.742 12.04 71.256 25.932 2.992 2.244 7.18 1.95 9.827-.692l32.827-32.767c3.259-4.191 2.888-8.031-1.114-11.522-15.645-10.522-35.069-16.998-59.369-19.798-10.357-1.215-8.871-17.613 1.891-16.369 8.147.936 16.022 2.33 23.408 4.142 4.028.99 8.098-1.471 9.089-5.493.99-4.022-1.473-8.084-5.503-9.072-7.998-1.962-16.502-3.469-25.271-4.477-12.75-1.471-24.32 7.687-25.796 20.409.038 14.613 6.853 23.199 20.445 25.758 17.821 2.053 32.572 6.201 44.782 12.617l-21.524 21.485c-19.819-13.312-44.416-21.733-73.221-25.053-12.751-1.472-24.32 7.68-25.799 20.413.045 14.608 6.862 23.189 20.453 25.743 17.832 2.062 32.58 6.211 44.777 12.624l-21.524 21.477c-19.796-13.3-44.388-21.719-73.213-25.053-14.244-.307-22.843 6.495-25.797 20.408.038 14.614 6.853 23.201 20.445 25.76 17.821 2.053 32.572 6.2 44.782 12.616l-20.605 20.568c-35.934-11.983-70.377-13.256-110.964-4.197-16.211 3.62-24.332 21.019-12.38 36.443 20.746 26.775 49.498 38.848 84.687 39.194 1.079 36.27 13.29 64.775 39.027 84.68 14.468 11.19 32.99 3.292 36.505-12.355 2.782-12.349 4.545-23.74 5.39-34.824.315-4.13-2.785-7.732-6.922-8.047-4.152-.311-7.747 2.779-8.061 6.909-.788 10.352-2.446 21.039-5.068 32.675-2.537 5.907-6.636 7.26-12.297 4.06-23.459-19.272-34.137-44.884-33.605-80.601-.418-4.774-3.024-7.309-7.815-7.604-33.929 1.362-60.191-9.655-80.312-33.705-3.164-5.599-1.787-9.662 4.13-12.188 38.753-8.65 71.389-7.213 105.565 4.686l19.705 19.67c4.899 14.083 7.964 27.717 9.363 41.628.414 4.121 4.088 7.131 8.226 6.713 4.129-.414 7.139-4.09 6.725-8.211-1.423-14.16-4.428-28.023-9.162-42.237l20.744-20.699c6.492 12.159 10.596 26.854 12.488 44.621 1.228 11.511 14.008 21.873 25.616 20.642 12.761-1.356 22.038-12.823 20.68-25.561-3.083-28.869-11.495-53.521-25.032-73.391l21.559-21.52c6.488 12.167 10.593 26.864 12.492 44.625 2.826 13.942 11.364 20.822 25.614 20.641 12.756-1.37 22.029-12.84 20.671-25.57-3.085-28.885-11.497-53.534-25.029-73.384l21.561-21.522c6.482 12.148 10.587 26.844 12.488 44.618 1.359 12.737 12.847 21.996 25.616 20.642 13.964-2.82 20.857-11.34 20.679-25.56-3.083-28.87-11.496-53.523-25.032-73.392l21.553-21.521c6.493 12.166 10.597 26.866 12.49 44.635 1.373 12.733 12.864 21.993 25.615 20.634 12.762-1.356 22.039-12.827 20.679-25.571-3.084-28.872-11.496-53.521-25.031-73.382l17.781-17.749c13.972 15.76 26.684 32.737 38.081 50.874 8.5 13.528 29.012 13.991 37.978.698 29.5-43.656 40.673-91.266 34.167-145.537z"/><path d="m411.586 86.705c4.149 0 7.513-3.358 7.513-7.499v-14.584h14.611c4.149 0 7.513-3.358 7.513-7.499s-3.364-7.499-7.513-7.499h-14.611v-14.585c0-4.142-3.364-7.499-7.513-7.499s-7.513 3.358-7.513 7.499v14.584h-14.611c-4.149 0-7.513 3.358-7.513 7.499s3.364 7.499 7.513 7.499h14.611v14.584c0 4.143 3.364 7.5 7.513 7.5z"/></g></svg>