<svg id="Capa_1" enable-background="new 0 0 512 512" height="512" viewBox="0 0 512 512" width="512" xmlns="http://www.w3.org/2000/svg"><g><path d="m404.383 374.583-12.838-25.666c-1.852-3.702-6.353-5.205-10.06-3.351-3.703 1.852-5.203 6.356-3.351 10.059l8.744 17.483c-14.178 2.289-21.767 11.303-25.781 19.392-1.84 3.709-.325 8.208 3.384 10.048 3.816 1.726 7.166.598 10.049-3.384 4.301-8.667 11.453-12.337 22.444-11.498 19.277 8.792 31.893 34.988 20.878 55.026-7.703-12.488-27.77-14.948-39.091-6.227-3.28 2.527-3.89 7.235-1.364 10.515 2.527 3.28 7.233 3.892 10.515 1.364 10.885-5.123 17.21-1.928 18.975 9.585 0 26.889-36.049 28.575-53.766 19.097-2.126-3.501-5.095-6.535-8.86-8.602v-88.117c0-4.141-3.356-7.498-7.498-7.498s-7.498 3.357-7.498 7.498v93.205c0 3.479 2.394 6.501 5.78 7.298 4.983 1.173 7.473 6.797 6.951 11.298-.568 4.896-3.838 4.896-5.234 4.896h-31.049c-14.967 0-23.551-8.563-23.551-23.492v-77.68c0-4.141-3.356-7.498-7.498-7.498s-7.498 3.357-7.498 7.498v77.68c0 14.93-8.584 23.492-23.551 23.492h-31.049c-1.396 0-4.665 0-5.234-4.896-.525-4.523 1.983-10.129 6.951-11.298 3.387-.797 5.78-3.819 5.78-7.298v-93.205c0-4.141-3.357-7.498-7.498-7.498s-7.498 3.357-7.498 7.498v88.117c-3.672 2.016-6.586 4.95-8.7 8.342-19.504 10.761-52.34 7.399-54.266-19.372 2-11.099 8.323-14.116 18.969-9.051 3.281 2.527 7.988 1.916 10.515-1.364s1.916-7.988-1.364-10.515c-11.311-8.713-31.363-6.265-39.074 6.201-10.98-20.034 1.624-46.212 20.894-55.002 10.975-.831 18.116 2.841 22.413 11.5 2.883 3.982 6.233 5.11 10.048 3.384 3.709-1.84 5.224-6.339 3.384-10.048-4.011-8.084-11.599-17.094-25.756-19.39l45.125-90.234c8.143 3.582 14.593 7.735 21.154 13.907 9.33 8.777 19.904 18.724 46.273 18.724 26.694-.066 36.958-10.697 45.204-19.238 6.907-7.153 12.911-10.106 22.048-13.027l21.572 43.144c2.891 3.973 6.244 5.091 10.059 3.353 3.703-1.851 5.204-6.355 3.352-10.059l-19.706-39.411c7.307 5.274 13.985 11.607 20.098 19.039 3.377 3.264 6.894 3.606 10.553 1.027 3.198-2.63 3.658-7.355 1.027-10.553-7.187-8.737-15.055-16.143-23.687-22.269 6.03-7.066 10.897-14.803 14.599-23.21 5.195 2.387 9.749 5.44 13.648 9.157 3.568 2.843 7.102 2.758 10.6-.254 2.857-2.997 2.743-7.743-.254-10.6-5.387-5.135-11.647-9.269-18.76-12.397 3.504-11.555 5.494-24.015 5.753-36.498.08-3.947 1.753-7.685 4.588-10.251 11.751-10.62 32.539-33.779 39.737-69.555.817-4.06-1.812-8.013-5.871-8.829-4.066-.815-8.012 1.812-8.829 5.871-6.35 31.557-24.711 52.007-35.095 61.392-5.89 5.331-9.36 13.011-9.521 21.066-.221 10.646-1.978 21.757-5.086 32.119-14.382-3.293-31.367-3.463-50.845-.488-4.093.626-6.905 4.451-6.279 8.545.626 4.093 4.453 6.902 8.544 6.279 16.704-2.554 31.145-2.6 43.234-.156-3.594 7.736-8.047 14.565-13.256 19.803-9.519-4.964-19.864-8.637-31.118-11.069-4.052-.878-8.038 1.698-8.913 5.744-.875 4.047 1.698 8.037 5.744 8.912 6.785 1.467 13.193 3.448 19.247 5.957-11.234 3.488-19.688 8.223-27.974 16.804-7.568 7.839-14.104 14.608-34.435 14.659-20.405 0-27.278-6.466-35.98-14.651-8.079-7.599-16.199-12.405-26.107-17.041 5.89-2.401 12.112-4.306 18.689-5.728 4.048-.875 6.619-4.865 5.744-8.912-.875-4.048-4.864-6.619-8.912-5.744-10.625 2.297-20.439 5.698-29.514 10.249-5.198-5.244-9.826-11.787-13.656-19.215 11.84-2.203 25.876-2.079 42.028.39 4.097.624 7.919-2.185 8.545-6.279.625-4.093-2.186-7.919-6.279-8.545-19.2-2.934-35.978-2.81-50.228.348-3.368-10.011-5.392-20.945-5.679-32.083-.202-8.025-3.675-15.657-9.526-20.938-18.448-16.662-57.747-63.948-24.339-142.968 5.434-13.2 14.477-17.141 27.129-11.822 12.31 7.911 23.233 18.207 32.47 30.611 2.473 3.321 7.171 4.009 10.491 1.535 3.321-2.473 4.008-7.17 1.535-10.491-10.418-13.99-22.799-25.608-36.798-34.53-18.768-11.966-40.904.601-48.629 18.855-23.038 54.493-17.387 118.852 28.101 159.939 2.815 2.54 4.486 6.253 4.585 10.19.317 12.293 2.516 24.69 6.351 36.255-7.37 3.159-13.838 7.383-19.381 12.667-2.997 2.857-3.111 7.603-.254 10.6 3.499 3.012 7.032 3.097 10.6.254 4.147-3.953 9.033-7.155 14.645-9.603 3.925 8.207 8.914 15.775 14.967 22.703-9.169 6.306-17.487 14.027-25.051 23.223-2.63 3.198-2.171 7.923 1.027 10.553 3.659 2.579 7.176 2.236 10.553-1.027 6.075-7.386 12.707-13.686 19.961-18.94l-31.498 62.986c-10.729-12.018-23.626-22.146-38.471-30.191-37.047-20.079-67.111 29.892-30.553 55.563 11.25 7.9 21.204 17.25 29.347 28.264-12.133 20.346-11.654 48.18 6.709 64.594 2.656 31.793 39.643 41.144 65.264 33.039 1.552 10.428 9.508 17.376 20.024 17.376h31.049c13.583 0 24.378-5.084 31.049-13.917 6.671 8.833 17.465 13.917 31.049 13.917h31.049c10.486 0 18.426-6.908 20.01-17.285 25.54 7.927 62.318-1.572 64.958-33.129 27.684-24.736 13.471-71.989-17.351-87.002zm-304.697-18.237c-20.096-13.733-4.876-40.741 14.947-30 15.167 8.22 28.041 18.833 38.326 31.585l-8.327 16.651c-5.335 2.599-10.215 6.086-14.479 10.244-8.638-10.99-18.855-20.544-30.467-28.48z"/><path d="m215.853 119.321c-7.946-32.833-23.201-49.993-43.662-65.656-3.97-2.468-7.509-1.956-10.617 1.537-23.893 32.785-13.726 71.64 2.24 94.951 8.316 12.144 25.631 13.167 35.314 2.432l11.579-12.836c4.982-5.522 6.906-13.158 5.146-20.428zm-16.279 10.384-11.579 12.836c-.896.993-7.369 5.327-11.808-.862-12.495-17.42-20.334-45.997-6.717-70.986 15.042 12.682 25.706 26.941 31.808 52.155.594 2.453-.043 5.016-1.704 6.857z"/><path d="m217.619 196.426c7.441-6.777 13.51-6.777 20.951 0 3.598 2.762 7.129 2.597 10.591-.494 2.789-3.061 2.568-7.803-.494-10.591-13.266-12.085-27.88-12.085-41.146 0-3.062 2.788-3.283 7.53-.494 10.591 2.788 3.062 7.531 3.282 10.592.494z"/><path d="m236.297 153.425c2.189 4.604 5.168 6.506 8.937 5.707 4.044-.892 6.598-4.893 5.707-8.937l-6.881-31.201c5.742-.955 14.142-1.534 23.11-1.738v34.554c0 4.141 3.356 7.498 7.498 7.498s7.498-3.357 7.498-7.498v-34.548c8.92.209 17.259.791 22.953 1.745l-6.74 32.222c-.848 4.053 1.75 8.026 5.803 8.874 3.761.758 6.719-1.176 8.874-5.804 10.773-51.501 21.535-105.915 69.467-136.726 12.65-5.319 21.689-1.379 27.118 11.819 7.392 17.492 11.679 34.603 12.738 50.856.269 4.132 3.838 7.268 7.97 6.993 4.131-.269 7.263-3.837 6.994-7.97-1.17-17.93-6.902-36.263-13.89-55.717-8.403-23.388-32.895-28.636-48.632-18.856-32.704 20.325-55.911 55.936-66.552 99.773-20.803-3.571-46.755-3.551-67.432 0-3.051-12.57-7.2-24.566-12.37-35.753-1.736-3.758-6.192-5.396-9.951-3.66-3.759 1.737-5.177 6.098-3.66 9.951 15.004 38.121 18.621 65.629 21.441 78.416z"/><path d="m385.286 150.153c15.937-23.332 26.133-62.167 2.24-94.951-3.108-3.493-6.647-4.005-10.618-1.537-20.46 15.664-35.715 32.824-43.662 65.657-1.758 7.27.165 14.906 5.146 20.427l11.579 12.836c12.596 11.528 28.591 7.412 35.315-2.432zm-37.464-27.304c6.103-25.213 16.766-39.472 31.809-52.155 13.617 24.989 5.398 53.3-6.716 70.987-3.677 4.12-7.613 4.407-11.808.861l-11.58-12.837c-1.66-1.841-2.298-4.404-1.705-6.856z"/><path d="m310.531 196.426c7.44-6.777 13.509-6.779 20.951 0 3.599 2.761 7.129 2.597 10.592-.494 2.788-3.062 2.567-7.803-.494-10.592-13.267-12.084-27.881-12.083-41.148 0-3.061 2.789-3.282 7.53-.494 10.592 2.791 3.062 7.53 3.282 10.593.494z"/><path d="m302.545 234.717c2.392-3.38 1.591-8.059-1.788-10.451-3.382-2.394-8.059-1.591-10.452 1.788-5.139 7.262-10.303 11.278-15.754 12.245-5.451-.968-10.614-4.984-15.754-12.245-2.393-3.38-7.072-4.181-10.452-1.788-3.38 2.392-4.18 7.071-1.788 10.451 4.886 6.903 10.091 11.859 15.731 14.948-4.916 2.868-9.77 7.92-13.496 16.549-1.641 3.801.11 8.214 3.912 9.855 3.824 1.524 7.109.22 9.855-3.912 3.986-9.232 8.68-10.73 11.991-10.925 3.311.195 8.005 1.693 11.991 10.925 2.746 4.132 6.031 5.436 9.855 3.912 3.801-1.642 5.553-6.054 3.912-9.855-3.725-8.629-8.58-13.681-13.496-16.549 5.641-3.089 10.847-8.045 15.733-14.948z"/></g></svg>