<svg id="Capa_1" enable-background="new 0 0 512 512" height="512" viewBox="0 0 512 512" width="512" xmlns="http://www.w3.org/2000/svg"><path d="m507.4 455.635c-5.184-5.765-8.281-15.155-3.513-22.82 2.418-3.875 4.349-8.179 5.741-12.791 1.197-3.968-1.05-8.156-5.018-9.353-3.964-1.198-8.156 1.049-9.353 5.017-1.008 3.343-2.389 6.433-4.11 9.191-7.045 11.324-6.492 25.446 1.405 35.971 4.285 4.869 7.668 16.894-3.398 16.906h-31.082c-10.498-.011-8.005-11.71-3.412-16.9 7.903-10.532 8.456-24.654 1.402-35.989-3.891-6.228-6.034-14.219-6.034-22.5 0-14.637 6.84-27.466 16.076-32.095v21.738c0 4.145 3.36 7.505 7.505 7.505s7.505-3.36 7.505-7.505v-21.756c5.84 2.894 10.843 9.073 13.668 17.324 1.343 3.922 5.611 6.012 9.532 4.669s6.012-5.61 4.669-9.532c-5.083-14.844-15.588-25.306-27.869-28.366v-103.1c0-15.427-10.825-24.381-24.519-33.671-11.748-7.969-11.801-18.943-2.558-29.718 7.332-6.356 11.537-15.567 11.537-25.271v-22.9c0-9.736-4.228-18.966-11.6-25.325l-16.072-13.864c9.32-5.144 14.224-20.778 9.576-30.284l16.184-16.183c2.93-2.93 2.931-7.681.001-10.612l-21.974-21.984c-2.931-2.932-7.683-2.932-10.615-.001l-16.189 16.189c-13.525-6.61-32.454 4.265-33.13 19.692-15.412.693-26.29 19.572-19.687 33.106l-83.442 83.432c-2.932 2.931-2.932 7.683-.001 10.614 3.538 2.931 7.076 2.931 10.613 0l82.559-82.55 11.366 11.366-212.615 212.584-11.366-11.365 106.91-106.901c2.932-2.931 2.932-7.683.001-10.614-2.931-2.93-7.683-2.931-10.613 0l-106.912 106.901-5.686-5.686c-2.932-2.931-7.683-2.931-10.614 0l-121.519 121.519c-14.333 14.334-14.332 38.208.001 52.541 14.373 15.092 39.247 17.356 54.572 2.031l54.975-54.976c2.931-2.931 2.931-7.683 0-10.613-2.932-2.931-7.683-2.931-10.614 0l-54.975 54.976c-10.086 10.087-24.338 6.095-33.345-2.031-8.648-10.438-8.648-20.876 0-31.314l116.212-116.212 33.346 33.345-38.103 38.102c-2.931 2.931-2.931 7.683 0 10.613 2.931 2.931 7.682 2.931 10.614 0l43.409-43.408c2.93-3.538 2.93-7.076 0-10.613l-5.681-5.681 213.49-213.461c10.828 5.304 27.512-1.351 31.713-12.652l17.806 15.36c4.063 3.505 6.394 8.593 6.394 13.959v22.9c0 5.349-2.318 10.426-6.36 13.929-16.927 14.676-14.547 42.348 4.642 53.914 7.875 3.472 17.258 11.652 17.258 20.816v103.107c-17.699 4.444-31.086 24.282-31.086 48.011 0 11.056 2.953 21.872 8.307 30.442 4.771 7.666 1.677 17.059-3.507 22.826-10.34 13.806-.164 37.11 18.245 37.13h31.099c15.531-1.278 30.71-15.621 18.239-37.129zm-71.021-418.279 11.363 11.368-9.999 9.999-11.366-11.365zm-37.285 15.309c1.518-1.518 3.535-2.354 5.682-2.354 2.146 0 4.164.836 5.681 2.354l21.816 21.816c.052.055.105.11.159.165.036.037.074.072.111.108 1.451 1.505 2.247 3.478 2.247 5.574 0 2.146-.836 4.164-2.354 5.682-2.793 2.793-7.148 3.096-10.279.91l-1.278-1.102-21.786-21.788c-1.518-1.518-2.353-3.535-2.353-5.682s.836-4.165 2.354-5.683zm11.364 55.323c-1.518 1.518-3.535 2.354-5.681 2.354-2.147 0-4.165-.836-5.682-2.354l-21.856-21.856c-.043-.046-.088-.091-.133-.136-.021-.021-.043-.042-.065-.063-1.471-1.509-2.28-3.495-2.28-5.607 0-2.147.836-4.165 2.353-5.682 3.135-3.134 8.233-3.133 11.366 0l21.978 21.979c3.134 3.133 3.134 8.232 0 11.365z"/></svg>