<svg id="Capa_1" enable-background="new 0 0 512 512" height="512" viewBox="0 0 512 512" width="512" xmlns="http://www.w3.org/2000/svg"><g><path d="m504.5 341.681h-24.915l-24.873-124.364c-3.586-17.934-19.463-30.95-37.752-30.95h-24.08c-16.34-18.722-36.741-34.169-59.203-44.796-3.744-1.77-8.215-.172-9.986 3.572s-.173 8.216 3.572 9.987c16.517 7.814 31.82 18.47 44.962 31.236h-232.479c41.332-40.315 102.201-56.41 158.081-41.917 4.008 1.04 8.103-1.367 9.143-5.377 1.04-4.009-1.367-8.103-5.377-9.143-65.848-17.08-137.802 5.186-182.474 56.436h-24.079c-18.289 0-34.166 13.016-37.752 30.95l-24.873 124.366h-24.915c-4.143 0-7.5 3.358-7.5 7.5v31.06c0 4.142 3.357 7.5 7.5 7.5h277.61c4.143 0 7.5-3.358 7.5-7.5s-3.357-7.5-7.5-7.5h-270.11v-16.06h482v16.06h-179.2c-4.143 0-7.5 3.358-7.5 7.5s3.357 7.5 7.5 7.5h186.7c4.143 0 7.5-3.358 7.5-7.5v-31.06c0-4.142-3.357-7.5-7.5-7.5zm-52.65-62.19h-143.084c-.329-3.772-1.09-7.598-2.276-11.43l.262-4.57h141.898zm-159.667-23.938c-.001.022-.003.045-.004.067l-.744 12.98c-.056.956.073 1.914.379 2.821 1.42 4.217 2.14 8.368 2.14 12.336 0 24.92-29.051 26.857-37.954 26.857s-37.954-1.937-37.954-26.857c0-3.965.719-8.112 2.135-12.324.306-.907.434-1.864.379-2.82l-1.993-34.81 14.724 11.042c2.342 1.756 5.49 1.99 8.066.598 9.508-5.14 19.775-5.14 29.285-.002 2.575 1.392 5.725 1.158 8.065-.598l14.722-11.041zm-86.678 12.523c-1.183 3.827-1.943 7.648-2.271 11.415h-56.054c-4.143 0-7.5 3.358-7.5 7.5s3.357 7.5 7.5 7.5h57.217c5.09 19.222 24.224 31.125 51.603 31.125 27.38 0 46.514-11.903 51.603-31.125h147.247l9.438 47.187h-416.575l9.438-47.187h57.35c4.143 0 7.5-3.358 7.5-7.5s-3.357-7.5-7.5-7.5h-54.351l3.2-16h141.892zm-133.508-47.818c2.188-10.946 11.88-18.891 23.043-18.891h321.92c11.163 0 20.854 7.945 23.043 18.891l5.646 28.233h-138.038l.947-16.538c.636-11.077-13.383-18.206-21.959-11.776l-13.261 9.945c-11.56-4.734-23.121-4.733-34.681.001l-13.263-9.947c-8.575-6.429-22.595.699-21.959 11.776l.947 16.538h-138.032z"/><g><path d="m256 170.304c-4.142 0-7.5-3.358-7.5-7.5 0-4.142 3.358-7.5 7.5-7.5 4.142 0 7.5 3.358 7.5 7.5 0 4.142-3.358 7.5-7.5 7.5z"/><path d="m210.546 170.304c-4.142 0-7.5-3.358-7.5-7.5 0-4.142 3.358-7.5 7.5-7.5 4.142 0 7.5 3.358 7.5 7.5 0 4.142-3.358 7.5-7.5 7.5z"/><path d="m301.454 170.304c-4.142 0-7.5-3.358-7.5-7.5 0-4.142 3.358-7.5 7.5-7.5 4.142 0 7.5 3.358 7.5 7.5 0 4.142-3.357 7.5-7.5 7.5z"/></g></g></svg>