<svg id="Capa_1" enable-background="new 0 0 512 512" height="512" viewBox="0 0 512 512" width="512" xmlns="http://www.w3.org/2000/svg"><g><path d="m161.362 176.455c4.142 0 7.501-3.358 7.501-7.501v-9.844c0-4.142-3.358-7.501-7.501-7.501-4.142 0-7.501 3.358-7.501 7.501v9.844c0 4.143 3.358 7.501 7.501 7.501z"/><path d="m225.984 176.455c4.142 0 7.501-3.358 7.501-7.501v-9.844c0-4.142-3.358-7.501-7.501-7.501-4.142 0-7.501 3.358-7.501 7.501v9.844c.001 4.143 3.359 7.501 7.501 7.501z"/><path d="m193.746 236.051c14.508 0 26.311-11.803 26.311-26.311 0-4.142-3.358-7.501-7.501-7.501-4.142 0-7.501 3.358-7.501 7.501 0 6.236-5.074 11.31-11.31 11.31s-11.309-5.074-11.309-11.31c0-4.142-3.358-7.501-7.501-7.501s-7.501 3.358-7.501 7.501c.002 14.508 11.804 26.311 26.312 26.311z"/><path d="m178.214 108.197h31.064c4.142 0 7.501-3.358 7.501-7.501v-8.032h8.032c4.142 0 7.501-3.358 7.501-7.501v-31.063c0-4.142-3.358-7.501-7.501-7.501h-8.032v-8.032c0-4.142-3.358-7.501-7.501-7.501h-31.064c-4.142 0-7.501 3.358-7.501 7.501v8.032h-8.032c-4.142 0-7.501 3.358-7.501 7.501v31.064c0 4.142 3.358 7.501 7.501 7.501h8.032v8.032c.001 4.142 3.359 7.5 7.501 7.5zm-8.031-30.533v-16.064h8.032c4.142 0 7.501-3.358 7.501-7.501v-8.032h16.063v8.033c0 4.142 3.358 7.501 7.501 7.501h8.032v16.063h-8.032c-4.142 0-7.501 3.358-7.501 7.501v8.032h-16.063v-8.032c0-4.142-3.358-7.501-7.501-7.501z"/><path d="m491.122 348.213 4.458-77.828c.954-16.671-20.148-27.411-33.059-17.729l-31.957 23.967c-23.991-11.486-51.438-11.485-75.428.003l-31.961-23.971c-12.911-9.683-34.013 1.058-33.059 17.729l2.27 39.641-35.841-11.29c-2.91-9.582-6.73-18.892-11.419-27.772l.004-5.649c21.651-15.982 32.29-42.138 31.372-68.595h7.562c15.659 0 28.4-12.74 28.4-28.4v-15.66c0-12-7.482-22.286-18.026-26.438v-32.264c0-4.142-3.358-7.501-7.501-7.501-4.142 0-7.501 3.358-7.501 7.501v30.303h-171.423v-73.256c0-5.927 2.405-11.727 6.602-15.916l13.518-13.508c4.189-4.181 9.985-6.579 15.903-6.579h99.408c6.013 0 11.666 2.342 15.918 6.594l13.491 13.492c4.246 4.245 6.584 9.895 6.584 15.907v10.271c0 4.142 3.358 7.501 7.501 7.501 4.142 0 7.501-3.358 7.501-7.501v-10.271c0-10.02-3.899-19.437-10.978-26.515l-13.491-13.492c-7.087-7.085-16.507-10.987-26.526-10.987h-99.408c-9.862 0-19.521 3.996-26.503 10.966l-13.518 13.508c-6.992 6.979-11.002 16.649-11.002 26.53v75.237c-10.52 4.163-17.981 14.437-17.981 26.42v15.66c0 15.659 12.74 28.4 28.4 28.4h7.559c-1.65 26.307 10.055 52.862 31.379 68.6l.004 5.631c-4.692 8.885-8.514 18.201-11.426 27.788l-81.403 25.645c-20.425 6.659-34.148 25.568-34.148 47.054v20.631c0 4.142 3.358 7.501 7.501 7.501s7.501-3.358 7.501-7.501v-20.631c0-14.974 9.563-28.152 23.725-32.769l72.663-22.892c-1.768 9.487-2.669 19.14-2.669 28.819v25.989c-17.687 3.5-31.065 19.133-31.065 37.833v31.065c0 4.142 3.358 7.501 7.501 7.501h15.532c4.142 0 7.501-3.358 7.501-7.501s-3.358-7.501-7.501-7.501h-8.032v-23.564c0-12.993 10.571-23.564 23.564-23.564s23.564 10.571 23.564 23.564v23.542h-7.193c-4.142 0-7.501 3.358-7.501 7.501s3.358 7.501 7.501 7.501h14.693c4.142 0 7.501-3.358 7.501-7.501v-31.042c0-18.699-13.377-34.332-31.065-37.833v-25.989c0-11.47 1.4-22.9 4.126-34.004l2.222-.7 40.781 102.882-.019 84.224h-93.707v-39.058c0-4.142-3.358-7.501-7.501-7.501s-7.501 3.358-7.501 7.501v39.058h-47.122v-72.235c0-4.142-3.358-7.501-7.501-7.501s-7.501 3.358-7.501 7.501v79.736c0 4.142 3.358 7.501 7.501 7.501h353.608c4.142 0 7.501-3.358 7.501-7.501 0-4.142-3.358-7.501-7.501-7.501h-53.814c-1.121-16.684 2.779-33.822 12.336-47.73 34.417 15.623 81.33 15.582 115.656 0 9.551 13.91 13.45 31.047 12.33 47.73h-53.814c-4.142 0-7.501 3.358-7.501 7.501 0 4.142 3.358 7.501 7.501 7.501h61.315c4.142 0 7.501-3.358 7.501-7.501v-15.491c-.099-27.307-14.151-47.024-14.151-47.024 19.718-10.954 43.72-46.175 27.259-93.773zm-235.246 39.587c4.418 0 8.012 3.594 8.012 8.011 0 4.418-3.594 8.012-8.012 8.012s-8.012-3.594-8.012-8.012c0-4.417 3.594-8.011 8.012-8.011zm-62.129 3.189-24.411-61.584h48.822zm36.376-117.013-.019 25.29-6 15.138h-60.714l-5.994-15.121-.019-25.305c20.997 9.138 51.892 9.075 72.746-.002zm67.34-105.655c0 7.388-6.011 13.398-13.398 13.398h-7.562v-42.457h7.562c7.388 0 13.398 6.011 13.398 13.398zm-194.032 13.398c-7.388 0-13.398-6.011-13.398-13.398v-15.66c0-7.388 6.011-13.398 13.398-13.398h7.559v42.457h-7.559zm22.56 21.599.002-64.057h135.509v64.057c0 34.195-27.82 62.015-62.015 62.015h-11.481c-34.195-.001-62.015-27.82-62.015-62.015zm181.698 285.691v7.99h-106.46l.019-84.222 40.782-102.886 2.221.699c2.726 11.103 4.126 22.533 4.126 34.003v29.46c-9.018 3.117-15.512 11.693-15.512 21.757 0 12.689 10.324 23.013 23.013 23.013s23.013-10.324 23.013-23.013c0-10.064-6.494-18.64-15.512-21.757v-29.46c0-9.679-.902-19.332-2.67-28.819l32.597 10.268 1.272 22.201c-11.035 34.185-4.187 72.757 27.27 93.741-9.18 13.866-14.159 30.269-14.159 47.025zm29.058-55.591c-5.578-3.485-10.513-6.262-15.438-10.987l18.548-6.172c3.931-1.308 6.057-5.554 4.749-9.485s-5.556-6.06-9.485-4.749l-23.601 7.853c-2.618-4.651-4.527-9.705-5.721-15.15h31.69c4.142 0 7.501-3.358 7.501-7.501s-3.358-7.501-7.501-7.501h-33.18c.07-9.099 1.733-18.549 4.945-28.099.305-.907.434-1.864.379-2.82l-4.541-79.281c-.262-4.579 5.535-7.531 9.082-4.87l35.699 26.774c2.342 1.756 5.491 1.99 8.067.598 8.901-4.81 18.092-7.749 27.413-8.775v24.979c0 4.142 3.358 7.501 7.501 7.501s7.501-3.358 7.501-7.501v-24.979c9.319 1.026 18.508 3.964 27.407 8.772 2.575 1.39 5.724 1.157 8.066-.599l35.694-26.771c3.546-2.66 9.344.291 9.082 4.87l-4.539 79.252c-.055.956.074 1.914.38 2.822 3.218 9.559 4.884 19.019 4.954 28.127h-33.172c-4.142 0-7.501 3.358-7.501 7.501s3.358 7.501 7.501 7.501h31.682c-1.194 5.445-3.102 10.498-5.72 15.148l-23.594-7.851c-3.93-1.309-8.177.818-9.485 4.749-1.308 3.93.818 8.177 4.749 9.485l18.542 6.17c-30.765 29.518-91.79 29.97-127.654 10.989z"/><path d="m367.552 349.658v-12.331c0-4.142-3.358-7.501-7.501-7.501s-7.501 3.358-7.501 7.501v12.331c0 4.142 3.358 7.501 7.501 7.501s7.501-3.359 7.501-7.501z"/><path d="m425.656 329.826c-4.142 0-7.501 3.358-7.501 7.501v12.331c0 4.142 3.358 7.501 7.501 7.501s7.501-3.358 7.501-7.501v-12.331c0-4.143-3.359-7.501-7.501-7.501z"/><path d="m414.722 401.638c-6.188-.124-12.761-3.419-14.119-10.177l8.862-10.265c2.707-3.135 2.36-7.872-.775-10.579-3.136-2.708-7.873-2.36-10.579.775l-5.257 6.089-5.257-6.089c-2.707-3.135-7.443-3.483-10.579-.775-3.135 2.707-3.483 7.443-.775 10.579l8.862 10.265c-1.358 6.758-7.931 10.053-14.119 10.177-4.142 0-7.501 3.358-7.501 7.501s3.358 7.501 7.501 7.501c7.961-.052 16.311-2.832 21.868-8.753 5.557 5.921 13.907 8.701 21.868 8.753 4.142 0 7.501-3.358 7.501-7.501s-3.359-7.501-7.501-7.501z"/></g></svg>