<svg id="Capa_1" enable-background="new 0 0 512 512" height="512" viewBox="0 0 512 512" width="512" xmlns="http://www.w3.org/2000/svg"><g><path d="m256 403.281c4.143 0 7.5-3.358 7.5-7.5v-102.143c13.29-3.338 23.18-15.336 23.295-29.62.003-.082.005-46.848.005-46.848 0-16.807-13.997-30.79-30.8-30.79-16.983 0-30.8 13.812-30.8 30.79 0 0 .002 46.776.005 46.864.122 14.278 10.01 26.268 23.295 29.605v102.143c0 4.141 3.358 7.499 7.5 7.499zm0-201.901c9.631.895 14.898 6.159 15.8 15.79v20.169c-10.533-5.827-21.067-5.827-31.6 0v-20.17c0-8.706 7.088-15.789 15.8-15.789zm-15.797 62.386c0-8.71 7.086-15.797 15.797-15.797 8.71 0 15.797 7.086 15.797 15.797s-7.087 15.796-15.797 15.796-15.797-7.086-15.797-15.796z"/><path d="m365.25 62.125h-8.56l-.002-54.625c0-4.142-3.357-7.5-7.5-7.5s-7.5 3.358-7.5 7.5v23.559h-16.062v-23.559c0-4.142-3.357-7.5-7.5-7.5s-7.5 3.358-7.5 7.5v23.559h-16.063v-23.559c0-4.142-3.357-7.5-7.5-7.5s-7.5 3.358-7.5 7.5v23.559h-16.063v-23.559c0-4.142-3.357-7.5-7.5-7.5-4.142 0-7.5 3.358-7.5 7.5v23.559h-16.063v-23.559c0-4.142-3.358-7.5-7.5-7.5s-7.5 3.358-7.5 7.5v23.559h-16.062v-23.559c0-4.142-3.358-7.5-7.5-7.5s-7.5 3.358-7.5 7.5v23.559h-16.063v-23.559c0-4.142-3.358-7.5-7.5-7.5s-7.5 3.358-7.5 7.5l-.003 54.625h-8.56c-12.407 0-22.5 10.093-22.5 22.5v32.125c0 12.407 10.093 22.5 22.5 22.5h8.56v32.66c0 16.16 6.294 31.36 17.732 42.809 8.713 8.958 13.159 19.686 13.338 32.182v89.661c0 4.142 3.358 7.5 7.5 7.5s7.5-3.358 7.5-7.5v-89.662c-.236-16.616-6.148-30.879-17.734-42.791-8.6-8.608-13.336-20.043-13.336-32.199l.003-88.46c12.33 27.88 37.662 48.273 67.928 54.104 3.75.699 6.678-1.283 8.784-5.946.783-4.067-1.879-8-5.946-8.784-40.012-7.708-57.654-41.048-67.863-76.766 55.189.005 110.379.005 165.568 0-10.264 35.733-27.735 69.042-67.861 76.766-4.067.783-6.73 4.714-5.948 8.782 2.105 4.664 5.032 6.646 8.782 5.947 29.59-5.694 55.784-26.541 67.931-54.092l.003 88.448c-.183 12.496-4.626 23.227-13.331 32.194-11.439 11.429-17.739 26.627-17.739 42.796v28.521c0 4.142 3.357 7.5 7.5 7.5s7.5-3.358 7.5-7.5v-28.52c0-11.983 4.862-23.714 13.343-32.187 11.579-11.92 17.488-26.188 17.728-42.804v-32.66h8.56c12.406 0 22.5-10.094 22.5-22.5v-32.124c-.001-12.407-10.095-22.5-22.501-22.5zm-218.5 62.125c-4.136 0-7.5-3.365-7.5-7.5v-32.125c0-4.136 3.364-7.5 7.5-7.5h8.56v47.125zm226-7.5c0 4.136-3.364 7.5-7.5 7.5h-8.56v-47.125h8.56c4.136 0 7.5 3.364 7.5 7.5z"/><path d="m380.25 465.938h-46.594c-12.699 0-23.031 10.332-23.031 23.031 0 4.428-3.603 8.031-8.031 8.031h-31.062c-4.429 0-8.031-3.603-8.031-8.031v-8.027h15.8c4.143 0 7.5-3.358 7.5-7.5v-30.713c23.646-11.68 38.82-36.208 38.82-62.477v-72.142c0-4.142-3.357-7.5-7.5-7.5s-7.5 3.358-7.5 7.5v72.141c0 29.363-25.373 54.621-54.62 54.621-30.118 0-54.621-24.503-54.621-54.621v-11c0-4.142-3.358-7.5-7.5-7.5s-7.5 3.358-7.5 7.5v11c0 27.338 15.838 51.045 38.82 62.43v30.761c0 4.142 3.358 7.5 7.5 7.5h15.8v8.027c0 12.7 10.332 23.031 23.031 23.031h31.062c12.699 0 23.031-10.332 23.031-23.031 0-4.428 3.603-8.031 8.031-8.031h46.594c4.143 0 7.5-3.358 7.5-7.5s-3.356-7.5-7.499-7.5zm-140.05-17.875c10.532 2.405 21.065 2.411 31.6.018v17.861h-31.6z"/></g></svg>