<svg id="Capa_1" enable-background="new 0 0 512 512" height="512" viewBox="0 0 512 512" width="512" xmlns="http://www.w3.org/2000/svg"><g><path d="m504.5 93.208h-148.532c-3.476-17.681-19.094-31.06-37.778-31.06h-46.04c-4.143 0-7.5 3.358-7.5 7.5s3.357 7.5 7.5 7.5h46.04c12.958 0 23.5 10.542 23.5 23.5v93.31c0 12.958-10.542 23.5-23.5 23.5h-39.16v-16.06h24.09c12.406 0 22.5-10.093 22.5-22.5v-63.19c0-12.407-10.094-22.5-22.5-22.5h-94.24c-12.406 0-22.5 10.093-22.5 22.5v63.19c0 12.407 10.094 22.5 22.5 22.5h24.09v16.06h-39.16c-12.958 0-23.5-10.542-23.5-23.5v-93.31c0-12.958 10.542-23.5 23.5-23.5h45.66c4.143 0 7.5-3.358 7.5-7.5s-3.357-7.5-7.5-7.5h-45.66c-18.684 0-34.302 13.379-37.778 31.06h-148.532c-4.143 0-7.5 3.358-7.5 7.5v93.19c0 4.142 3.357 7.5 7.5 7.5h53.55c4.143 0 7.5-3.358 7.5-7.5s-3.357-7.5-7.5-7.5h-46.05v-31.598h23.564c4.143 0 7.5-3.358 7.5-7.5s-3.357-7.5-7.5-7.5h-23.564v-31.592h140.31v78.19h-61.57c-4.143 0-7.5 3.358-7.5 7.5s3.357 7.5 7.5 7.5h62.292c3.476 17.681 19.094 31.06 37.778 31.06h39.16v49.869c-3.378 1.079-6.723 2.398-10.028 3.955l-27.664-20.748c-11.916-8.939-31.398.976-30.515 16.364l3.91 68.291c-19.696 61.368 20.66 99.664 87.327 99.664 66 0 107.082-38.172 87.318-99.691l3.909-68.264c.883-15.386-18.599-25.304-30.514-16.364l-27.662 20.746c-3.303-1.556-6.646-2.873-10.021-3.952v-49.869h39.16c18.684 0 34.302-13.379 37.778-31.06h62.292c4.143 0 7.5-3.358 7.5-7.5s-3.357-7.5-7.5-7.5h-61.57v-78.19h140.31v31.591h-23.564c-4.143 0-7.5 3.358-7.5 7.5s3.357 7.5 7.5 7.5h23.564v31.598h-46.05c-4.143 0-7.5 3.358-7.5 7.5s3.357 7.5 7.5 7.5h53.55c4.143 0 7.5-3.358 7.5-7.5v-93.19c0-4.142-3.357-7.5-7.5-7.5zm-295.62 93.19c-4.136 0-7.5-3.364-7.5-7.5v-63.19c0-4.135 3.364-7.5 7.5-7.5h94.24c4.136 0 7.5 3.365 7.5 7.5v63.19c0 4.136-3.364 7.5-7.5 7.5h-24.09v-8.04c-1.319-14.035-8.995-21.712-23.03-23.03-12.699 0-23.03 10.331-23.03 23.03v8.04zm85.448 114.674 31.387-23.539c2.555-1.916 6.725.212 6.538 3.507l-3.991 69.684c-.056.956.073 1.914.379 2.822 17.895 53.141-24.668 81.306-72.641 81.306-47.969 0-90.513-28.15-72.649-81.283.306-.907.434-1.864.379-2.819l-3.992-69.711c-.189-3.299 3.986-5.42 6.539-3.506l31.39 23.542c2.342 1.757 5.49 1.99 8.066.598 19.048-10.296 41.462-10.306 60.53-.003 2.577 1.391 5.724 1.158 8.065-.598zm-46.358-21.935v-100.779c0-4.428 3.603-8.03 8.03-8.03 4.893.46 7.569 3.137 8.03 8.03v100.779c-2.664-.289-13.396-.289-16.06 0z"/><path d="m131.751 154.8c4.143 0 7.5-3.358 7.5-7.5s-3.357-7.5-7.5-7.5h-15.531c-4.143 0-7.5 3.358-7.5 7.5s3.357 7.5 7.5 7.5z"/><path d="m92.657 147.3c0-4.142-3.357-7.5-7.5-7.5h-15.53c-4.143 0-7.5 3.358-7.5 7.5s3.357 7.5 7.5 7.5h15.53c4.143 0 7.5-3.358 7.5-7.5z"/><path d="m380.249 139.8c-4.143 0-7.5 3.358-7.5 7.5s3.357 7.5 7.5 7.5h15.531c4.143 0 7.5-3.358 7.5-7.5s-3.357-7.5-7.5-7.5z"/><path d="m449.873 147.3c0-4.142-3.357-7.5-7.5-7.5h-15.53c-4.143 0-7.5 3.358-7.5 7.5s3.357 7.5 7.5 7.5h15.53c4.143 0 7.5-3.358 7.5-7.5z"/><path d="m201.906 357.736c0 4.142 3.357 7.5 7.5 7.5h93.188c4.143 0 7.5-3.358 7.5-7.5s-3.357-7.5-7.5-7.5h-93.188c-4.142 0-7.5 3.358-7.5 7.5z"/><path d="m287.062 381.298h-62.125c-4.143 0-7.5 3.358-7.5 7.5s3.357 7.5 7.5 7.5h62.125c4.143 0 7.5-3.358 7.5-7.5s-3.357-7.5-7.5-7.5z"/></g></svg>