<svg id="Capa_1" enable-background="new 0 0 512 512" height="512" viewBox="0 0 512 512" width="512" xmlns="http://www.w3.org/2000/svg"><g><path d="m473.5 139.84h-23.626v-23.561c0-4.142-3.358-7.5-7.5-7.5h-62.125c-4.142 0-7.5 3.358-7.5 7.5v23.561h-15.939v-39.15c0-29.858-24.292-54.15-54.15-54.15h-30.32c-4.142 0-7.5 3.358-7.5 7.5s3.358 7.5 7.5 7.5h30.32c21.587 0 39.15 17.562 39.15 39.15v39.15h-16.3v-39.15c0-12.6-10.25-22.85-22.85-22.85h-93.32c-12.599 0-22.85 10.25-22.85 22.85v39.15h-16.3v-39.15c0-21.587 17.562-39.15 39.15-39.15h30.32c4.142 0 7.5-3.358 7.5-7.5s-3.358-7.5-7.5-7.5h-30.32c-29.858 0-54.15 24.292-54.15 54.15v39.15h-15.939v-23.561c0-4.142-3.358-7.5-7.5-7.5h-62.125c-4.142 0-7.5 3.358-7.5 7.5v23.561h-23.626c-21.229 0-38.5 17.271-38.5 38.5v248.62c0 21.229 17.271 38.5 38.5 38.5h107.85c4.142 0 7.5-3.358 7.5-7.5s-3.358-7.5-7.5-7.5h-107.85c-12.958 0-23.5-10.542-23.5-23.5v-248.62c0-12.958 10.542-23.5 23.5-23.5 145.01-.014 289.99-.014 435 0 12.958 0 23.5 10.542 23.5 23.5v248.62c0 12.958-10.542 23.5-23.5 23.5h-294.46c-4.142 0-7.5 3.358-7.5 7.5s3.358 7.5 7.5 7.5h294.46c21.229 0 38.5-17.271 38.5-38.5v-248.62c0-21.229-17.271-38.5-38.5-38.5zm-85.751-16.061h47.125v16.061h-47.125zm-186.259-23.089c0-4.329 3.521-7.85 7.85-7.85h93.32c4.328 0 7.85 3.521 7.85 7.85v39.15h-109.02zm-124.364 23.089h47.125v16.061h-47.125z"/><path d="m473.44 283.87c4.142 0 7.5-3.358 7.5-7.5v-82.97c0-12.407-10.093-22.5-22.5-22.5h-404.88c-12.407 0-22.5 10.093-22.5 22.5v218.5c0 12.407 10.093 22.5 22.5 22.5h404.88c12.407 0 22.5-10.093 22.5-22.5v-102.84c0-4.142-3.358-7.5-7.5-7.5s-7.5 3.358-7.5 7.5v102.84c0 4.136-3.365 7.5-7.5 7.5h-404.88c-4.135 0-7.5-3.364-7.5-7.5v-218.5c0-4.136 3.365-7.5 7.5-7.5h404.88c4.135 0 7.5 3.364 7.5 7.5v82.97c0 4.142 3.358 7.5 7.5 7.5z"/><path d="m209.407 336.245h23.532v23.533c0 4.142 3.358 7.5 7.5 7.5h31.122c4.142 0 7.5-3.358 7.5-7.5v-23.533h23.532c4.142 0 7.5-3.358 7.5-7.5v-31.122c0-4.142-3.358-7.5-7.5-7.5h-23.532v-23.533c0-4.142-3.358-7.5-7.5-7.5h-31.122c-4.142 0-7.5 3.358-7.5 7.5v23.533h-23.532c-4.142 0-7.5 3.358-7.5 7.5v31.122c0 4.142 3.358 7.5 7.5 7.5zm7.5-31.122h23.532c4.142 0 7.5-3.358 7.5-7.5v-23.533h16.122v23.533c0 4.142 3.358 7.5 7.5 7.5h23.532v16.122h-23.532c-4.142 0-7.5 3.358-7.5 7.5v23.533h-16.122v-23.533c0-4.142-3.358-7.5-7.5-7.5h-23.532z"/><path d="m256 399.572c70 0 112.333-39.795 90.668-103.523l4.078-71.19c.904-15.781-19.072-25.945-31.293-16.782l-28.975 21.731c-11.138-5.275-22.714-7.945-34.478-7.945-11.767 0-23.345 2.671-34.484 7.948l-28.979-21.735c-12.221-9.164-32.196 1.001-31.292 16.782l4.08 71.218c-19.658 61.591 20.008 103.496 90.675 103.496zm-75.62-102.932-4.161-72.638c-.211-3.69 4.46-6.068 7.317-3.924l32.708 24.531c2.341 1.756 5.491 1.989 8.066.598 10.243-5.536 20.905-8.343 31.689-8.343 10.782 0 21.442 2.806 31.684 8.34 2.575 1.391 5.724 1.158 8.065-.598l32.703-24.527c2.858-2.144 7.529.234 7.318 3.924l-4.159 72.611c-.055.956.074 1.914.38 2.822 18.273 54.282-25.592 85.137-75.991 85.137-50.383 0-94.256-30.838-76-85.112.307-.908.436-1.865.381-2.821z"/></g></svg>