<svg id="Capa_1" enable-background="new 0 0 512 512" height="512" viewBox="0 0 512 512" width="512" xmlns="http://www.w3.org/2000/svg"><path d="m393.269 56.394c-82.803-77.028-201.524-73.285-274.658-.152-73.243 73.243-76.163 201.916.128 274.634 23.022 22.98 51.715 39.958 82.971 48.984v15.782c0 4.434-3.607 8.041-8.041 8.041h-46.653c-12.714 0-23.059 10.344-23.059 23.059s10.344 23.059 23.059 23.059h217.696c4.434 0 8.041 3.607 8.041 8.041s-3.607 8.041-8.041 8.041h-93.298c-12.714 0-23.059 10.344-23.059 23.059v15.55c0 4.147 3.362 7.509 7.509 7.509s7.509-3.362 7.509-7.509v-15.55c0-4.434 3.607-8.041 8.041-8.041h93.298c12.714 0 23.059-10.344 23.059-23.059s-10.344-23.059-23.059-23.059h-217.695c-4.434 0-8.041-3.607-8.041-8.041s3.607-8.041 8.041-8.041h46.653c12.715 0 23.059-10.344 23.059-23.059v-12.086c63.417 12.957 129.947-7.889 176.39-52.807 77.604-75.056 72.398-207.146.15-274.355zm-137.404-41.901c11.163 0 22.326 1.035 33.332 3.104l-33.335 33.335-33.336-33.336c11.007-2.069 22.173-3.103 33.339-3.103zm-50.475 7.205 39.853 39.853-11.37 11.37-45.364-45.364c5.544-2.242 11.179-4.195 16.881-5.859zm-31.45 12.529 49.314 49.314-11.37 11.37-52.387-52.387c4.709-3.009 9.53-5.774 14.443-8.297zm-26.931 17.046 54.256 54.256-11.377 11.377-55.24-55.24c3.997-3.68 8.122-7.144 12.361-10.393zm-22.98 21.012 55.24 55.24-11.37 11.37-54.256-54.255c3.247-4.237 6.709-8.36 10.386-12.355zm-19.136 24.843 52.387 52.387-11.37 11.37-49.313-49.313c2.523-4.914 5.289-9.735 8.296-14.444zm-14.966 29.012 45.363 45.363-11.37 11.37-39.853-39.852c1.666-5.702 3.619-11.337 5.86-16.881zm-9.962 100.689c-4.138-22.013-4.137-44.658.001-66.672l33.335 33.335zm16.629 48.587 39.221-39.221c2.933-2.932 2.933-7.687 0-10.619-2.932-2.932-7.687-2.932-10.619 0l-35.271 35.271c-2.241-5.544-4.194-11.179-5.859-16.881l222.268-222.267c5.704 1.665 11.341 3.619 16.887 5.861l-174.878 174.868c-2.932 2.932-2.933 7.686 0 10.619 3.54 2.933 7.079 2.933 10.619 0l178.828-178.817c4.914 2.524 9.736 5.289 14.446 8.296l-247.342 247.341c-3.009-4.712-5.775-9.535-8.3-14.451zm38.054 49.911 194.058-194.047c2.932-2.932 2.933-7.686 0-10.619-2.932-2.933-7.686-2.932-10.619 0l-194.058 194.047c-3.677-3.995-7.138-8.117-10.385-12.353l251.079-251.08c4.238 3.248 8.362 6.711 12.358 10.389l-35.858 35.858c-2.933 2.932-2.933 7.687 0 10.619 3.54 2.933 7.079 2.933 10.619 0l35.858-35.858c3.677 3.995 7.139 8.117 10.385 12.353l-251.08 251.08c-4.236-3.247-8.36-6.71-12.357-10.389zm117.416-40.07c-2.932-2.932-7.687-2.932-10.619 0l-67.506 67.506c-4.914-2.523-9.734-5.289-14.444-8.296l247.341-247.342c3.007 4.71 5.773 9.53 8.296 14.444l-150.55 150.55c-2.933 2.932-2.933 7.687 0 10.619 3.54 2.933 7.079 2.933 10.619 0l146.601-146.601c2.243 5.547 4.196 11.184 5.862 16.889l-222.269 222.269c-5.704-1.665-11.342-3.619-16.889-5.862l63.557-63.557c2.934-2.932 2.934-7.687.001-10.619zm-29.532 84.14 33.337-33.337 33.336 33.336c-22.014 4.138-44.659 4.139-66.673.001zm83.809-4.103-39.853-39.853 11.37-11.37 45.363 45.364c-5.544 2.241-11.178 4.194-16.88 5.859zm31.449-12.529-49.313-49.313 11.37-11.37 52.387 52.387c-4.71 3.007-9.53 5.772-14.444 8.296zm26.932-17.046-54.256-54.256 11.37-11.37 55.24 55.24c-3.995 3.677-8.118 7.139-12.354 10.386zm22.974-21.005-55.24-55.24 11.377-11.377 54.256 54.256c-3.25 4.238-6.714 8.364-10.393 12.361zm19.142-24.85-52.387-52.387 11.37-11.37 49.313 49.313c-2.523 4.914-5.289 9.735-8.296 14.444zm14.966-29.012-45.363-45.363 11.37-11.37 39.852 39.852c-1.665 5.702-3.618 11.336-5.859 16.881zm9.96-34.018-33.335-33.334 33.336-33.336c4.138 22.013 4.138 44.657-.001 66.67z"/></svg>