<svg id="Capa_1" enable-background="new 0 0 512 512" height="512" viewBox="0 0 512 512" width="512" xmlns="http://www.w3.org/2000/svg"><g><g><path d="m485.143 153.321c-13.21-23.437-31.425-44.709-52.462-61.417 9.88-2.592 17.189-11.598 17.189-22.279 0-12.699-10.331-23.03-23.03-23.03h-217.88c-4.142 0-7.5 3.358-7.5 7.5s3.358 7.5 7.5 7.5h217.88c4.428 0 8.03 3.603 8.03 8.03s-3.603 8.03-8.03 8.03h-92.37c-4.143 0-7.5 3.358-7.5 7.5s3.357 7.5 7.5 7.5h73.569c22.147 14.312 40.738 32.549 55.102 53.499-14.114 9.837-34.606 7.74-46.528-4.182-19.834-19.835-52.893-19.835-72.727 0-14.06 14.06-37.468 14.056-51.526-.003-19.851-19.83-52.874-19.825-72.724.003-14.058 14.058-37.465 14.058-51.523 0-19.833-19.835-52.894-19.835-72.727 0-12.558 12.558-32.287 13.99-46.467 4.211 14.594-21.231 33.405-39.535 55.043-53.528h197.818c4.143 0 7.5-3.358 7.5-7.5s-3.357-7.5-7.5-7.5h-216.62c-4.428 0-8.03-3.602-8.03-8.03s3.603-8.03 8.03-8.03h91.11c4.142 0 7.5-3.358 7.5-7.5s-3.358-7.5-7.5-7.5h-91.11c-12.699 0-23.03 10.332-23.03 23.03 0 10.68 7.307 19.684 17.185 22.278-6.286 4.988-79.315 58.095-79.315 164.092 0 113.85 95.487 209.41 209.41 209.41h93.18c55.934 0 108.521-21.783 148.074-61.337 39.553-39.553 61.336-92.14 61.336-148.073 0-35.998-9.287-71.502-26.857-102.674zm-275.733 297.084c-48.39 0-92.707-17.772-126.768-47.13h227.678c4.143 0 7.5-3.358 7.5-7.5s-3.357-7.5-7.5-7.5h-145.693c9.886-19.14 5.767-44.783-9.377-59.927-14.054-14.054-14.054-37.463 0-51.518 2.929-2.929 2.929-7.677 0-10.606-2.929-2.93-7.678-2.929-10.606 0-19.841 19.84-19.841 52.89 0 72.73 13.261 13.261 14.145 35.077 2.027 49.32h-18.435c9.886-19.14 5.767-44.783-9.377-59.927-14.054-14.054-14.054-37.464 0-51.518 19.841-19.84 19.841-52.89 0-72.73-2.929-2.929-7.678-2.929-10.606 0-2.929 2.929-2.929 7.678 0 10.606 14.054 14.054 14.054 37.464 0 51.518-19.841 19.84-19.841 52.89 0 72.73 13.261 13.261 14.145 35.077 2.027 49.32h-19.018c9.886-19.14 5.767-44.783-9.377-59.927-14.054-14.054-14.054-37.463 0-51.518 2.929-2.929 2.929-7.677 0-10.606-2.929-2.93-7.678-2.929-10.606 0-19.841 19.84-19.841 52.89 0 72.73 13.261 13.261 14.145 35.077 2.027 49.32h-6.241c-32.291-34.72-52.065-81.233-52.065-132.277 0-34.649 9.005-67.914 25.906-97.124 19.98 13.421 47.508 11.286 65.088-6.293 14.046-14.048 37.467-14.047 51.513 0 19.843 19.843 52.89 19.846 72.733.003 14.061-14.044 37.454-14.05 51.516-.003 19.846 19.844 52.892 19.845 72.738 0 14.045-14.047 37.467-14.047 51.512 0 17.254 17.252 45.07 19.877 65.137 6.281 16.725 29.001 25.857 62.31 25.857 97.136 0 49.518-18.391 96.211-51.941 132.28h-102.049c-4.143 0-7.5 3.358-7.5 7.5s3.357 7.5 7.5 7.5h86.495c-35.276 30.493-79.818 47.13-126.915 47.13z"/><path d="m385.03 337.584c26.378-6.814 49.656-23.102 65.165-46.365 1.68-2.519 1.68-5.801 0-8.32-15.28-22.919-38.101-39.068-63.998-46.057l-37.274-27.318c-7.344-5.376-16.044-8.218-25.16-8.218-11.381 0-22.084 4.43-30.147 12.481-7.187 7.198-11.489 16.511-12.323 26.532-5.692 2.214-11.209 4.917-16.501 8.093l-19.512-19.792c-27.12-27.09-68.034 14.941-41.483 41.489 8.084 9.751 8.084 19.502 0 29.253-26.789 26.789 14.76 68.269 41.524 41.439l17.967-18.222c5.672 3.815 11.685 7.079 17.943 9.757 1.417 22.228 19.952 39.879 42.533 39.879 9.108 0 17.81-2.843 25.162-8.221zm-129.055-52.568c-.024-28.057 43.474-37.051 64.701-37.051 0 0 38.547.021 39.706.062-13.088 24.283-13.088 53.773 0 78.062-1.159.041-36.307.062-36.307.062-20.513.001-68.075-11.819-68.1-41.135zm178.807 2.042c-13.963 18.758-35.219 32.332-58.109 37.071-14.821-22.407-14.82-51.744.001-74.142 22.591 4.678 44.369 18.615 58.108 37.071zm-130.558-62.666c5.223-5.215 12.162-8.087 19.54-8.087 5.908 0 11.544 1.84 16.296 5.319l15.474 11.341h-34.858c-7.879 0-15.651.839-23.215 2.483 1.323-4.125 3.617-7.905 6.763-11.056zm-69.554 105.846c-13.086 13.116-33.365-7.172-20.267-20.27 13.772-13.771 13.771-36.696 0-50.467-13.087-13.085 7.156-33.374 20.236-20.311l17.957 18.214c-14.944 15.037-15.415 40.093-1.017 55.684zm89.094 26.976c-12.371 0-22.869-8.176-26.374-19.408 8.686 2.204 17.655 3.346 26.685 3.346h30.671l-14.676 10.735c-4.764 3.485-10.403 5.327-16.306 5.327z"/><path d="m457.904 247.965c12.699 0 23.031-10.332 23.031-23.031s-10.332-23.031-23.031-23.031-23.031 10.332-23.031 23.031 10.332 23.031 23.031 23.031zm0-31.062c4.429 0 8.031 3.603 8.031 8.031s-3.603 8.031-8.031 8.031-8.031-3.603-8.031-8.031 3.603-8.031 8.031-8.031z"/><path d="m395.78 216.903c12.699 0 23.031-10.332 23.031-23.031 0-12.7-10.332-23.031-23.031-23.031s-23.031 10.332-23.031 23.031 10.332 23.031 23.031 23.031zm0-31.062c4.429 0 8.031 3.603 8.031 8.031s-3.603 8.031-8.031 8.031-8.031-3.603-8.031-8.031 3.603-8.031 8.031-8.031z"/><path d="m54.095 201.903c-12.699 0-23.031 10.332-23.031 23.031s10.332 23.031 23.031 23.031c12.7 0 23.031-10.332 23.031-23.031s-10.331-23.031-23.031-23.031zm0 31.062c-4.428 0-8.031-3.603-8.031-8.031s3.603-8.031 8.031-8.031 8.031 3.603 8.031 8.031-3.603 8.031-8.031 8.031z"/></g><g><path d="m397.362 294.26c-4.142 0-7.5-3.358-7.5-7.5 0-4.142 3.358-7.5 7.5-7.5 4.142 0 7.5 3.358 7.5 7.5 0 4.142-3.358 7.5-7.5 7.5z"/><path d="m349.187 434.339c-4.142 0-7.5-3.358-7.5-7.5 0-4.142 3.358-7.5 7.5-7.5 4.142 0 7.5 3.358 7.5 7.5 0 4.142-3.358 7.5-7.5 7.5z"/><path d="m287.062 434.339c-4.142 0-7.5-3.358-7.5-7.5 0-4.142 3.358-7.5 7.5-7.5 4.142 0 7.5 3.358 7.5 7.5 0 4.142-3.358 7.5-7.5 7.5z"/><path d="m224.938 434.339c-4.142 0-7.5-3.358-7.5-7.5 0-4.142 3.358-7.5 7.5-7.5 4.142 0 7.5 3.358 7.5 7.5 0 4.142-3.358 7.5-7.5 7.5z"/><path d="m162.813 434.339c-4.142 0-7.5-3.358-7.5-7.5 0-4.142 3.358-7.5 7.5-7.5 4.142 0 7.5 3.358 7.5 7.5 0 4.142-3.358 7.5-7.5 7.5z"/></g></g></svg>