<svg id="Capa_1" enable-background="new 0 0 512 512" height="512" viewBox="0 0 512 512" width="512" xmlns="http://www.w3.org/2000/svg"><g><path d="m218.25 99.822c15.577 0 28.249-15.366 28.249-34.254s-12.673-34.255-28.249-34.255-28.249 15.366-28.249 34.255c0 18.888 12.673 34.254 28.249 34.254zm0-53.508c7.182 0 13.25 8.818 13.25 19.255s-6.067 19.254-13.25 19.254c-7.182 0-13.25-8.818-13.25-19.254.001-10.438 6.068-19.255 13.25-19.255z"/><path d="m187.604 123.947c0-16.362-11.079-29.675-24.698-29.675-13.618 0-24.697 13.312-24.697 29.675s11.079 29.675 24.697 29.675c13.619 0 24.698-13.312 24.698-29.675zm-24.698 14.675c-5.166 0-9.697-6.857-9.697-14.675s4.531-14.675 9.697-14.675 9.698 6.857 9.698 14.675-4.532 14.675-9.698 14.675z"/><path d="m322.345 65.568c0-18.888-12.673-34.255-28.249-34.255s-28.249 15.366-28.249 34.255c0 18.888 12.673 34.254 28.249 34.254s28.249-15.366 28.249-34.254zm-41.499 0c0-10.437 6.067-19.255 13.25-19.255s13.25 8.818 13.25 19.255-6.067 19.254-13.25 19.254-13.25-8.817-13.25-19.254z"/><path d="m374.137 123.947c0-16.362-11.079-29.675-24.697-29.675-13.619 0-24.698 13.312-24.698 29.675s11.079 29.675 24.698 29.675c13.618 0 24.697-13.312 24.697-29.675zm-34.395 0c0-7.818 4.532-14.675 9.698-14.675s9.697 6.857 9.697 14.675-4.531 14.675-9.697 14.675c-5.165 0-9.698-6.857-9.698-14.675z"/><path d="m179.592 240.552c15.053 11.699 35.532 11.142 48.312 5.717 16.519-7.012 15.265-16.023 28.105-15.875 9.838.113 15.164 8.113 28.433 15.875 13.966 8.17 35.409 4.311 48.312-5.717 9.31-7.237 19.484-21.618 15.071-49.03-3.402-21.141-16.197-28.581-26.478-34.559-6.657-3.871-11.953-6.951-14.46-13.097-5.483-26.558-29.723-36.042-50.715-36.042s-45.231 9.484-50.715 36.042c-2.507 6.147-7.803 9.226-14.46 13.097-10.281 5.978-23.076 13.418-26.478 34.559-4.411 27.412 5.763 41.793 15.073 49.03zm-.262-46.646c2.274-14.129 9.748-18.474 19.209-23.975 7.913-4.601 16.882-9.817 21.175-21.339 6.412-17.235 17.927-25.767 36.459-25.767 18.777 0 30.164 8.847 36.459 25.767 4.293 11.522 13.262 16.737 21.175 21.339 9.462 5.501 16.935 9.847 19.209 23.975 2.568 15.958-.705 27.992-9.468 34.802-9.747 7.573-24.447 7.568-33.332 3.717-12.396-5.375-19.331-17.277-34.044-17.03-15.768-.254-20.96 11.357-34.044 17.03-8.885 3.85-23.588 3.856-33.332-3.717-8.761-6.81-12.035-18.844-9.466-34.802z"/><path d="m392.258 84.496c-9.713-12.53-23.624-20.166-38.657-21.36-.219-6.632-1.329-13.147-3.31-19.399-1.25-3.948-5.463-6.134-9.415-4.885-3.948 1.251-6.135 5.467-4.884 9.415 1.758 5.549 2.649 11.371 2.649 17.304 0 8.365 1.684 12.4 10.8 12.4 39.57 0 50.135 49.785 30.804 76.455-9.716 12.475-15.064 27.714-15.064 42.922v69.228c0 4.142 3.357 7.5 7.5 7.5 4.142 0 7.5-3.358 7.5-7.5v-69.228c.74-16.839 7.787-26.315 12.205-34.109 14.292-25.216 18.989-54.138-.128-78.743z"/><path d="m132.167 356.724c0 4.142 3.357 7.5 7.5 7.5 4.142 0 7.5-3.358 7.5-7.5v-15.564h54.649c16.981 0 30.796-13.815 30.796-30.796s-13.815-30.796-30.796-30.796h-54.649v-82.22c0-15.175-5.325-30.38-15.054-42.908-19.047-26.733-9.043-76.469 30.794-76.469 9.115 0 10.8-4.035 10.8-12.4 0-38.906 47.036-70.208 76.741-35.086 3.818 3.542 7.635 3.542 11.453 0 14.849-17.556 40.633-20.487 58.395-5.915 3.202 2.626 7.927 2.161 10.555-1.041 2.627-3.203 2.16-7.928-1.042-10.555-21.596-17.717-52.9-16.791-73.635 1.91-40.419-36.454-95.811-.384-97.427 48.252-47.151 3.746-66.88 65.407-38.529 100.44 7.706 9.866 11.95 21.86 11.95 33.772v159.376zm15.001-62.156h54.647c8.71 0 15.796 7.086 15.796 15.796s-7.087 15.796-15.796 15.796h-54.647z"/><path d="m372.68 291.765c-4.142 0-7.5 3.358-7.5 7.5v26.895h-54.649c-16.981 0-30.796 13.815-30.796 30.796s13.815 30.796 30.796 30.796h54.649v62.654h-54.649c-16.981 0-30.796 13.815-30.796 30.796 0 5.771 1.596 11.177 4.37 15.798h-136.939v-31.594h54.649c16.981 0 30.796-13.815 30.796-30.796s-13.815-30.796-30.796-30.796h-54.649v-14.411c0-4.142-3.357-7.5-7.5-7.5-4.142 0-7.5 3.358-7.5 7.5v115.097c0 4.142 3.357 7.5 7.5 7.5h233.014c4.142 0 7.5-3.358 7.5-7.5v-205.235c0-4.142-3.357-7.5-7.5-7.5zm-7.502 80.988h-54.647c-8.71 0-15.796-7.086-15.796-15.796s7.087-15.796 15.796-15.796h54.647zm-218.01 46.06h54.647c8.71 0 15.796 7.086 15.796 15.796s-7.087 15.796-15.796 15.796h-54.647zm163.363 46.593h54.647v31.592h-54.647c-8.71 0-15.796-7.086-15.796-15.796s7.087-15.796 15.796-15.796z"/></g></svg>