<svg id="Capa_1" enable-background="new 0 0 512 512" height="512" viewBox="0 0 512 512" width="512" xmlns="http://www.w3.org/2000/svg"><g><path d="m450.204 226.868c.72-2.88-.325-5.913-2.665-7.738l-23.416-18.274 23.302-17.48c4.292-4.555 3.975-8.762-.953-12.622-.137-.073-13.875-7.475-27.639-16.769-22.512-15.203-25.631-22.176-26.058-23.697l2.536-40.66c.258-4.139-2.887-7.703-7.027-7.961-4.15-.256-7.703 2.888-7.961 7.027 0 0-2.607 42.242-2.573 42.621.535 5.963 4.505 16.091 32.677 35.117 6.827 4.61 13.56 8.727 18.812 11.814l-21.979 16.487c-3.966 3.938-4.003 7.913-.114 11.926l26.51 20.689c-2.86 4.924-9.407 13.494-23.464 22.242-20.435 12.717-60.996 28.269-138.18 30.138-4.145.1-7.425 3.542-7.325 7.688 1.551 4.974 4.114 7.415 7.689 7.324 31.811-.77 59.823-3.793 83.885-9.033l22.974 45.953c-7.86 2.296-14.469 6.293-19.727 11.947-2.824 3.037-2.652 7.788.385 10.612 3.59 2.803 7.127 2.675 10.612-.384 3.969-4.267 9.102-7.049 15.599-8.435l13.629 27.261c-14.234 2.291-21.849 11.337-25.877 19.454-1.843 3.715-.326 8.22 3.39 10.063 3.821 1.729 7.176.599 10.063-3.389 4.317-8.703 11.493-12.391 22.531-11.545 19.354 8.824 32.032 35.136 20.948 55.251-7.72-12.535-27.854-15.01-39.212-6.26-3.285 2.531-3.897 7.246-1.366 10.531 2.53 3.284 7.244 3.899 10.531 1.366 8.525-6.571 19.06.703 19.06 9.624 0 26.988-36.422 28.576-53.977 19.166-2.133-3.51-5.112-6.55-8.888-8.622v-88.424c0-4.147-3.361-7.509-7.509-7.509-4.147 0-7.509 3.362-7.509 7.509v20.023c-11.407-2.191-24.427 2.587-30.214 13.042-2.008 3.628-.695 8.198 2.933 10.206 3.805 1.9 7.207.922 10.205-2.933 4.494-5.819 10.186-7.403 17.075-4.753v14.919c-11.406-2.192-24.427 2.588-30.214 13.042-2.008 3.628-.695 8.198 2.933 10.206 3.805 1.9 7.207.922 10.205-2.933 4.494-5.818 10.186-7.402 17.075-4.753v27.454c0 3.485 2.397 6.511 5.789 7.309 6.905 1.625 10.904 16.277 1.72 16.277h-31.153c-15.027 0-23.646-8.597-23.646-23.586v-77.946c0-4.147-3.361-7.509-7.509-7.509s-7.509 3.362-7.509 7.509v70.431h-47.609v-12.179c0-4.147-3.361-7.509-7.509-7.509-4.147 0-7.509 3.362-7.509 7.509v19.688c0 14.993-8.617 23.593-23.644 23.593h-31.151c-9.187 0-5.182-14.66 1.72-16.284 3.392-.798 5.789-3.825 5.789-7.309v-27.451c6.888-2.648 12.579-1.063 17.073 4.754 2.998 3.855 6.4 4.833 10.205 2.933 3.628-2.009 4.941-6.578 2.933-10.206-5.786-10.454-18.805-15.232-30.211-13.043v-14.919c6.888-2.649 12.579-1.064 17.073 4.753 2.998 3.855 6.4 4.833 10.205 2.933 3.628-2.009 4.941-6.578 2.933-10.206-5.786-10.454-18.805-15.233-30.211-13.043v-20.021c0-4.147-3.361-7.509-7.509-7.509-4.147 0-7.509 3.362-7.509 7.509v88.418c-3.781 2.073-6.763 5.118-8.897 8.632-17.596 9.427-53.928 7.779-53.974-19.118.067-8.909 10.429-16.331 19.063-9.677 3.286 2.532 8 1.918 10.531-1.366 2.531-3.285 1.919-8-1.366-10.531-11.359-8.75-31.495-6.275-39.214 6.263-11.086-20.114 1.59-46.428 20.945-55.253 11.043-.845 18.218 2.842 22.537 11.545 2.888 3.987 6.243 5.117 10.064 3.388 3.714-1.843 5.232-6.349 3.389-10.064-4.028-8.117-11.651-17.161-25.88-19.452l13.632-27.262c6.497 1.386 11.631 4.168 15.6 8.436 3.485 3.059 7.022 3.187 10.612.384 3.036-2.825 3.208-7.576.383-10.612-5.259-5.653-11.867-9.65-19.725-11.946l23.017-46.029c24.038 5.263 52.033 8.307 83.832 9.097.064.002.127.002.191.002 4.059 0 7.401-3.24 7.503-7.322.103-4.146-3.175-7.59-7.32-7.693-77.005-1.914-117.472-17.46-137.86-30.164-14.018-8.735-20.551-17.288-23.407-22.205l26.51-20.69c3.89-4.013 3.852-7.988-.113-11.926l-21.979-16.487c5.252-3.087 11.985-7.204 18.812-11.814 28.172-19.026 32.143-29.154 32.677-35.117.034-.379-6.451-104.973-6.451-104.973-.516-9.074 10.983-14.94 18.016-9.665l50.86 38.142c2.345 1.758 5.495 1.993 8.073.6 4.156-2.244 8.355-4.21 12.591-5.897v19.763c0 4.147 3.361 7.509 7.509 7.509 4.147 0 7.509-3.362 7.509-7.509v-24.533c5.342-1.275 10.726-2.117 16.137-2.521v39.071c0 4.147 3.361 7.509 7.509 7.509 4.147 0 7.509-3.362 7.509-7.509v-39.071c5.518.412 11.008 1.28 16.455 2.598v24.397c0 4.147 3.361 7.509 7.509 7.509 4.147 0 7.509-3.362 7.509-7.509v-19.574c4.128 1.658 8.221 3.581 12.273 5.769 2.577 1.393 5.729 1.159 8.073-.6l50.859-38.142c7-5.249 18.534.557 18.02 9.624l-1.845 29.667c-.257 4.139 2.889 7.703 7.028 7.96 4.165.262 7.703-2.89 7.96-7.028l1.848-29.707c1.201-21.175-25.614-34.834-42.02-22.531l-47.089 35.314c-34.137-16.932-74.001-16.95-108.174 0l-47.085-35.314c-16.442-12.328-43.22 1.389-42.017 22.572l6.419 103.054c-.427 1.518-3.537 8.475-25.971 23.637-13.763 9.303-27.591 16.756-27.728 16.83-4.927 3.859-5.244 8.066-.952 12.621l23.302 17.48-23.416 18.275c-2.34 1.826-3.384 4.859-2.665 7.738.445 1.785 5.07 17.906 29.936 34.107 13.217 8.612 29.493 15.605 48.73 20.958l-46.108 92.208c-30.94 15.065-45.299 62.362-17.406 87.271 2.652 31.766 39.501 41.217 65.176 33.237 1.583 10.416 9.549 17.352 20.072 17.352h31.151c20.873 0 35.182-11.972 38.107-31.102h48.717c2.924 19.128 17.233 31.1 38.109 31.1h31.153c10.521 0 18.486-6.935 20.067-17.352 25.628 7.968 62.53-1.565 65.173-33.235 27.782-24.808 13.513-72.217-17.406-87.271l-46.053-92.115c19.348-5.356 35.712-12.367 48.994-21.01 24.917-16.214 29.552-32.36 29.997-34.147z"/><path d="m216.989 395.45v25.465c0 4.147 3.361 7.509 7.509 7.509 4.147 0 7.509-3.362 7.509-7.509v-25.465c0-4.147-3.361-7.509-7.509-7.509-4.148.001-7.509 3.362-7.509 7.509z"/><path d="m321.606 324.358c3.717-1.838 5.24-6.342 3.402-10.059-1.837-3.717-6.339-5.24-10.059-3.403-39.929 19.744-78.614 19.746-118.259.009-3.714-1.849-8.22-.336-10.068 3.375-1.848 3.712-.337 8.22 3.375 10.068 21.766 10.836 43.716 16.252 65.707 16.252 21.981 0 44.004-5.415 65.902-16.242z"/><path d="m187.287 77.633c2.488-3.318 1.816-8.024-1.502-10.512l-28.083-21.062c-2.337-1.752-5.479-1.992-8.054-.61-2.575 1.381-4.115 4.13-3.947 7.047l2.969 51.742c.229 3.994 3.539 7.078 7.489 7.078.145 0 .29-.004.437-.012 4.141-.238 7.303-3.787 7.066-7.927l-2.043-35.61 15.156 11.367c3.319 2.488 8.024 1.816 10.512-1.501z"/><path d="m348.328 103.349c-.238 4.14 2.927 7.688 7.067 7.925.147.008.291.012.436.012 3.951 0 7.261-3.086 7.489-7.08l2.958-51.712c.167-2.917-1.373-5.666-3.948-7.046s-5.718-1.141-8.054.611l-28.063 21.052c-3.317 2.489-3.989 7.195-1.5 10.512 2.488 3.316 7.195 3.99 10.513 1.501l15.137-11.356z"/><path d="m294.663 225.053c0-4.147-3.361-7.509-7.509-7.509-10.734-.482-22.001-6.552-23.486-18.633l13.592-15.743c2.71-3.139 2.362-7.881-.776-10.59-3.14-2.711-7.88-2.363-10.59.776l-9.894 11.459-9.893-11.459c-2.71-3.139-7.453-3.486-10.59-.776-3.138 2.71-3.486 7.451-.776 10.59l13.592 15.743c-1.485 12.081-12.752 18.151-23.486 18.633-4.147 0-7.509 3.362-7.509 7.509s3.361 7.509 7.509 7.509c11.665-.144 23.834-4.675 31.154-14.188 6.635 8.622 17.054 14.188 28.749 14.188 4.484.247 9.913-2.085 9.913-7.509z"/><path d="m380.616 186.329h-31.154c-4.147 0-7.509 3.362-7.509 7.509s3.361 7.509 7.509 7.509h31.154c4.147 0 7.509-3.362 7.509-7.509s-3.362-7.509-7.509-7.509z"/><path d="m352.653 218.256c-3.753-1.762-8.225-.148-9.988 3.606s-.148 8.225 3.606 9.988l31.154 14.628c3.826 1.646 7.156.444 9.988-3.606 1.763-3.754.148-8.225-3.606-9.988z"/><path d="m131.384 201.347h31.154c4.147 0 7.509-3.362 7.509-7.509s-3.361-7.509-7.509-7.509h-31.154c-4.147 0-7.509 3.362-7.509 7.509s3.361 7.509 7.509 7.509z"/><path d="m124.587 242.872c2.833 4.05 6.162 5.252 9.988 3.606l31.154-14.628c3.753-1.763 5.369-6.234 3.606-9.988-1.763-3.753-6.233-5.366-9.988-3.606l-31.154 14.628c-3.754 1.763-5.369 6.234-3.606 9.988z"/><path d="m209.406 172.25c21.264 0 38.562-13.815 38.562-30.797s-17.299-30.797-38.562-30.797-38.562 13.815-38.562 30.797 17.3 30.797 38.562 30.797zm0-46.594c12.772 0 23.562 7.234 23.562 15.797 0 7.366-7.984 13.748-18.346 15.389 1.408-1.363 2.284-3.274 2.284-5.389 0-4.142-3.358-7.5-7.5-7.5s-7.5 3.358-7.5 7.5c0 2.115.876 4.025 2.284 5.389-10.362-1.64-18.346-8.023-18.346-15.389.001-8.563 10.791-15.797 23.562-15.797z"/><path d="m341.155 141.453c0-16.981-17.299-30.797-38.562-30.797-21.264 0-38.562 13.815-38.562 30.797s17.299 30.797 38.562 30.797 38.562-13.815 38.562-30.797zm-62.124 0c0-8.563 10.79-15.797 23.562-15.797 12.771 0 23.562 7.234 23.562 15.797 0 7.366-7.984 13.749-18.346 15.389 1.408-1.363 2.284-3.274 2.284-5.389 0-4.142-3.358-7.5-7.5-7.5s-7.5 3.358-7.5 7.5c0 2.115.876 4.025 2.284 5.389-10.361-1.64-18.346-8.023-18.346-15.389z"/></g></svg>