<svg id="Capa_1" enable-background="new 0 0 512 512" height="512" viewBox="0 0 512 512" width="512" xmlns="http://www.w3.org/2000/svg"><g><path d="m454.466 0h-291.56c-4.142 0-7.5 3.357-7.5 7.5s3.358 7.5 7.5 7.5h163.19c23.231 0 41.222 21.791 36.825 44.602l-6.468 33.587h-17.113l3.091-16.04c4.508-23.409-13.964-45.778-37.803-45.778l-253.506-.07-1.411-7.335c-.355-5.308 2.1-8.297 7.364-8.967h73.15c4.142 0 7.5-3.357 7.5-7.5s-3.358-7.5-7.5-7.5h-73.15c-15.771 1.989-23.136 10.921-22.094 26.797l74.085 385.229v92.475c0 4.143 3.358 7.5 7.5 7.5h279.56c4.142 0 7.5-3.357 7.5-7.5v-92.486l32.929-173.928c.771-4.07-1.904-7.994-5.974-8.765-4.067-.77-7.994 1.904-8.764 5.974l-31.905 168.515h-78.049l15.065-78.186h20.073c12.699 0 23.031-10.331 23.031-23.03s-10.332-23.031-23.031-23.031h-11.193l3.15-16.35h18.574c12.7 0 23.031-10.332 23.031-23.031s-10.332-23.031-23.031-23.031h-9.693l3.04-15.774h19.185c12.7 0 23.031-10.332 23.031-23.031s-10.332-23.031-23.031-23.031h-10.314l3.098-16.062h17.747c12.7 0 23.031-10.332 23.031-23.031s-10.332-23.031-23.031-23.031h-8.867l5.922-30.75c3.313-17.191-2.344-35.203-14.806-47.438h91.622c5.25.666 7.706 3.644 7.371 8.935l-33.94 179.25c-.771 4.07 1.904 7.994 5.974 8.765 3.748.686 6.669-1.305 8.765-5.974l33.94-179.253c2.862-11.893-5.804-26.726-22.11-26.726zm-330.4 418.81h62.16c4.142 0 7.5-3.357 7.5-7.5s-3.358-7.5-7.5-7.5h-63.466l-68.753-357.508 250.619.068c16.464 2.069 24.156 11.383 23.075 27.941l-3.637 18.877h-21.124c-12.7 0-23.031 10.332-23.031 23.031s10.332 23.031 23.031 23.031h12.245l-3.093 16.062h-19.683c-12.699 0-23.031 10.332-23.031 23.031s10.332 23.031 23.031 23.031h10.806l-3.04 15.774h-20.296c-12.7 0-23.031 10.332-23.031 23.031s10.332 23.031 23.031 23.031h11.425l-3.15 16.35h-18.806c-12.7 0-23.031 10.332-23.031 23.031s10.332 23.03 23.031 23.03h9.926l-15.065 78.186h-45.301c-4.142 0-7.5 3.357-7.5 7.5s3.358 7.5 7.5 7.5h68.5c50.418 0 50.466 78.19 0 78.19h-163.34v-78.187zm264.56 78.19h-63.833c21.456-20.543 21.472-57.641-.031-78.19h63.864zm-92.039-93.19h-17.104l15.065-78.186h17.104zm58.445-101.216c0 4.428-3.603 8.03-8.031 8.03h-77.656c-4.428 0-8.031-3.603-8.031-8.03 0-4.429 3.603-8.031 8.031-8.031h77.656c4.429-.001 8.031 3.602 8.031 8.031zm-34.5-23.032h-17.104l3.15-16.35h17.104zm45.032-39.38c0 4.429-3.603 8.031-8.031 8.031h-77.655c-4.428 0-8.031-3.603-8.031-8.031s3.603-8.031 8.031-8.031h77.655c4.428-.001 8.031 3.602 8.031 8.031zm-33-23.032h-17.115l3.04-15.774h17.114zm45.531-38.805c0 4.429-3.603 8.031-8.031 8.031h-77.656c-4.428 0-8.031-3.603-8.031-8.031s3.603-8.031 8.031-8.031h77.656c4.428-.001 8.031 3.602 8.031 8.031zm-33.622-23.032h-17.107l3.093-16.062h17.112zm44.153-39.093c0 4.429-3.603 8.031-8.031 8.031h-77.656c-4.428 0-8.031-3.603-8.031-8.031s3.603-8.031 8.031-8.031h77.656c4.428-.001 8.031 3.602 8.031 8.031z"/><path d="m294.908 457.904c0-12.699-10.332-23.031-23.031-23.031s-23.031 10.332-23.031 23.031 10.332 23.031 23.031 23.031 23.031-10.331 23.031-23.031zm-23.031 8.032c-4.428 0-8.031-3.603-8.031-8.031s3.603-8.031 8.031-8.031 8.031 3.603 8.031 8.031-3.603 8.031-8.031 8.031z"/></g></svg>