<svg id="Capa_1" enable-background="new 0 0 512 512" height="512" viewBox="0 0 512 512" width="512" xmlns="http://www.w3.org/2000/svg"><g><g><path d="m289.099 292.986c56.515-16.765 98.326-74.998 98.326-144.06 0-82.118-59.105-148.926-131.755-148.926-66.247 0-122.439 55.937-130.708 130.114-.459 4.117 2.506 7.826 6.623 8.285 4.116.454 7.826-2.507 8.285-6.623 7.42-66.573 57.204-116.776 115.8-116.776 64.379 0 116.755 60.079 116.755 133.926 0 73.842-52.376 133.916-116.755 133.916-64.822 0-110.626-59.29-116.126-119.894-.375-4.125-4.021-7.159-8.147-6.792-4.125.375-7.166 4.022-6.791 8.147 5.15 56.753 41.204 112.021 97.638 128.694l4.469 17.85c3.157 12.652-.604 26.229-9.823 35.439-10.006 10.3-15.109 22.63-15.311 36.988v74.623c0 29.832 24.266 54.102 54.092 54.102 29.514 0 54.092-24.592 54.092-54.102v-27.371c0-4.143-3.358-7.5-7.5-7.5s-7.5 3.357-7.5 7.5v27.371c-.001 21.326-17.763 39.103-39.093 39.103-21.555 0-39.092-17.541-39.092-39.102v-74.623c.144-10.243 3.784-19.038 10.921-26.386 15.843-15.828 17.941-39.881 11.108-60.292 5.624.824 11.321 1.244 17.062 1.244 5.781 0 11.476-.424 17.062-1.244-7.242 20.051-4.484 44.718 11.103 60.286 7.046 7.055 10.927 16.428 10.927 26.392v14.561c0 4.143 3.358 7.5 7.5 7.5s7.5-3.357 7.5-7.5v-14.561c0-13.968-5.438-27.104-15.32-36.998-8.733-8.722-12.814-23.427-9.815-35.424z"/><path d="m232.639 442.371c0 12.7 10.332 23.032 23.032 23.032s23.032-10.332 23.032-23.032c0-12.699-10.332-23.031-23.032-23.031s-23.032 10.332-23.032 23.031zm31.063 0c0 4.429-3.603 8.032-8.032 8.032s-8.032-3.604-8.032-8.032 3.603-8.031 8.032-8.031 8.032 3.602 8.032 8.031z"/><path d="m255.67 46.301c41.928 0 77.371 36.032 84.275 85.678.571 4.102 4.352 6.968 8.462 6.396 4.103-.571 6.966-4.359 6.396-8.462-6.943-49.917-45.242-98.611-99.132-98.611-55.39 0-100.454 52.767-100.454 117.625 0 64.853 45.063 117.614 100.454 117.614 50.19 0 92.999-43.881 99.576-102.071.465-4.116-2.494-7.83-6.61-8.295-4.118-.481-7.83 2.494-8.295 6.609-5.719 50.6-42.12 88.757-84.671 88.757-47.119 0-85.454-46.032-85.454-102.614 0-56.589 38.334-102.626 85.453-102.626z"/></g><g><g><path d="m255.67 77.008c-4.142 0-7.5-3.358-7.5-7.5 0-4.142 3.358-7.5 7.5-7.5 4.142 0 7.5 3.358 7.5 7.5 0 4.142-3.357 7.5-7.5 7.5z"/><path d="m255.67 108.192c-4.142 0-7.5-3.358-7.5-7.5 0-4.142 3.358-7.5 7.5-7.5 4.142 0 7.5 3.358 7.5 7.5 0 4.143-3.357 7.5-7.5 7.5z"/><path d="m255.67 139.377c-4.142 0-7.5-3.358-7.5-7.5 0-4.142 3.358-7.5 7.5-7.5 4.142 0 7.5 3.358 7.5 7.5 0 4.142-3.357 7.5-7.5 7.5z"/><path d="m255.67 170.319c-4.142 0-7.5-3.358-7.5-7.5 0-4.142 3.358-7.5 7.5-7.5 4.142 0 7.5 3.358 7.5 7.5 0 4.143-3.357 7.5-7.5 7.5z"/><path d="m255.67 201.262c-4.142 0-7.5-3.358-7.5-7.5 0-4.142 3.358-7.5 7.5-7.5 4.142 0 7.5 3.358 7.5 7.5 0 4.142-3.357 7.5-7.5 7.5z"/><path d="m255.67 232.447c-4.142 0-7.5-3.358-7.5-7.5 0-4.142 3.358-7.5 7.5-7.5 4.142 0 7.5 3.358 7.5 7.5 0 4.142-3.357 7.5-7.5 7.5z"/></g><g><path d="m286.734 92.6c-4.142 0-7.5-3.358-7.5-7.5 0-4.142 3.358-7.5 7.5-7.5 4.142 0 7.5 3.358 7.5 7.5 0 4.142-3.358 7.5-7.5 7.5z"/><path d="m286.734 123.785c-4.142 0-7.5-3.358-7.5-7.5 0-4.142 3.358-7.5 7.5-7.5 4.142 0 7.5 3.358 7.5 7.5 0 4.142-3.358 7.5-7.5 7.5z"/><path d="m286.734 154.969c-4.142 0-7.5-3.358-7.5-7.5 0-4.142 3.358-7.5 7.5-7.5 4.142 0 7.5 3.358 7.5 7.5 0 4.143-3.358 7.5-7.5 7.5z"/><path d="m286.734 185.912c-4.142 0-7.5-3.358-7.5-7.5 0-4.142 3.358-7.5 7.5-7.5 4.142 0 7.5 3.358 7.5 7.5 0 4.142-3.358 7.5-7.5 7.5z"/><path d="m286.734 216.854c-4.142 0-7.5-3.358-7.5-7.5 0-4.142 3.358-7.5 7.5-7.5 4.142 0 7.5 3.358 7.5 7.5 0 4.142-3.358 7.5-7.5 7.5z"/></g><g><path d="m224.607 92.6c-4.142 0-7.5-3.358-7.5-7.5 0-4.142 3.358-7.5 7.5-7.5 4.142 0 7.5 3.358 7.5 7.5 0 4.142-3.358 7.5-7.5 7.5z"/><path d="m224.607 123.785c-4.142 0-7.5-3.358-7.5-7.5 0-4.142 3.358-7.5 7.5-7.5 4.142 0 7.5 3.358 7.5 7.5 0 4.142-3.358 7.5-7.5 7.5z"/><path d="m224.607 154.969c-4.142 0-7.5-3.358-7.5-7.5 0-4.142 3.358-7.5 7.5-7.5 4.142 0 7.5 3.358 7.5 7.5 0 4.143-3.358 7.5-7.5 7.5z"/><path d="m224.607 185.912c-4.142 0-7.5-3.358-7.5-7.5 0-4.142 3.358-7.5 7.5-7.5 4.142 0 7.5 3.358 7.5 7.5 0 4.142-3.358 7.5-7.5 7.5z"/><path d="m224.607 216.854c-4.142 0-7.5-3.358-7.5-7.5 0-4.142 3.358-7.5 7.5-7.5 4.142 0 7.5 3.358 7.5 7.5 0 4.142-3.358 7.5-7.5 7.5z"/></g><g><path d="m193.543 108.192c-4.142 0-7.5-3.358-7.5-7.5 0-4.142 3.358-7.5 7.5-7.5 4.142 0 7.5 3.358 7.5 7.5 0 4.143-3.357 7.5-7.5 7.5z"/><path d="m193.543 139.377c-4.142 0-7.5-3.358-7.5-7.5 0-4.142 3.358-7.5 7.5-7.5 4.142 0 7.5 3.358 7.5 7.5 0 4.142-3.357 7.5-7.5 7.5z"/><path d="m193.543 170.319c-4.142 0-7.5-3.358-7.5-7.5 0-4.142 3.358-7.5 7.5-7.5 4.142 0 7.5 3.358 7.5 7.5 0 4.143-3.357 7.5-7.5 7.5z"/><path d="m193.543 201.262c-4.142 0-7.5-3.358-7.5-7.5 0-4.142 3.358-7.5 7.5-7.5 4.142 0 7.5 3.358 7.5 7.5 0 4.142-3.357 7.5-7.5 7.5z"/></g><g><path d="m317.797 108.192c-4.142 0-7.5-3.358-7.5-7.5 0-4.142 3.358-7.5 7.5-7.5 4.142 0 7.5 3.358 7.5 7.5 0 4.143-3.357 7.5-7.5 7.5z"/><path d="m317.797 139.377c-4.142 0-7.5-3.358-7.5-7.5 0-4.142 3.358-7.5 7.5-7.5 4.142 0 7.5 3.358 7.5 7.5 0 4.142-3.357 7.5-7.5 7.5z"/><path d="m317.797 170.319c-4.142 0-7.5-3.358-7.5-7.5 0-4.142 3.358-7.5 7.5-7.5 4.142 0 7.5 3.358 7.5 7.5 0 4.143-3.357 7.5-7.5 7.5z"/><path d="m317.797 201.262c-4.142 0-7.5-3.358-7.5-7.5 0-4.142 3.358-7.5 7.5-7.5 4.142 0 7.5 3.358 7.5 7.5 0 4.142-3.357 7.5-7.5 7.5z"/></g></g></g></svg>