<svg id="Capa_1" enable-background="new 0 0 512 512" height="512" viewBox="0 0 512 512" width="512" xmlns="http://www.w3.org/2000/svg"><g><path d="m473.442 92.659c4.143 0 7.5-3.357 7.5-7.5v-31.06c0-4.143-3.357-7.5-7.5-7.5h-76.801c-4.143 0-7.5 3.357-7.5 7.5s3.357 7.5 7.5 7.5h38.233v16.061h-109.25v-16.061h38.326c4.143 0 7.5-3.357 7.5-7.5s-3.357-7.5-7.5-7.5h-38.326v-39.099c0-4.143-3.357-7.5-7.5-7.5h-124.25c-4.143 0-7.5 3.357-7.5 7.5v39.099h-147.816c-4.143 0-7.5 3.357-7.5 7.5v31.061c0 4.143 3.357 7.5 7.5 7.5h23.566v125.511c-17.686 3.501-31.062 19.133-31.062 37.83 0 21.264 17.3 38.562 38.563 38.562s38.562-17.299 38.562-38.562c0-18.698-13.377-34.331-31.063-37.831v-125.511h25.055c4.143 0 7.5-3.357 7.5-7.5s-3.357-7.5-7.5-7.5h-25.055v-16.06h109.251v16.061h-51.516c-4.143 0-7.5 3.357-7.5 7.5s3.357 7.5 7.5 7.5h51.516v31.591h-8.031c-12.699 0-23.031 10.332-23.031 23.031 0 5.979 2.29 11.433 6.039 15.531-8.053 10.354-8.052 20.709.001 31.063-8.054 10.354-8.054 20.709-.001 31.063-8.053 10.354-8.052 20.708.001 31.062-8.052 10.353-8.054 20.706-.004 31.059-3.749 4.098-6.039 9.552-6.039 15.531 0 5.981 2.292 11.437 6.043 15.535-8.056 10.355-8.058 20.71-.004 31.066-8.049 10.354-8.048 20.706.004 31.059-8.053 10.354-8.054 20.708-.001 31.062-8.053 10.354-8.052 20.708.001 31.062-5.996 7.422-7.528 15.276-4.596 23.562h-118.195c-4.143 0-7.5 3.357-7.5 7.5v31.063c0 4.143 3.357 7.5 7.5 7.5h434.875c4.143 0 7.5-3.357 7.5-7.5v-31.062c0-4.143-3.357-7.5-7.5-7.5h-118.194c2.932-8.286 1.4-16.14-4.596-23.562 8.053-10.354 8.054-20.708.001-31.062 8.053-10.354 8.052-20.708-.001-31.062 8.052-10.352 8.054-20.705.004-31.059 8.053-10.356 8.052-20.711-.004-31.066 8.056-10.355 8.058-20.71.004-31.066 8.05-10.354 8.048-20.707-.004-31.059 8.053-10.354 8.054-20.708.001-31.062 8.053-10.354 8.052-20.709-.001-31.063 8.054-10.354 8.054-20.709.001-31.063 3.749-4.098 6.039-9.552 6.039-15.531 0-12.699-10.332-23.031-23.031-23.031h-8.031v-31.593h109.25v125.511c-17.686 3.501-31.062 19.133-31.062 37.83 0 21.264 17.3 38.562 38.563 38.562s38.562-17.299 38.562-38.562c0-18.698-13.377-34.331-31.063-37.831v-125.51zm-380.254 163.342c0 12.992-10.57 23.562-23.562 23.562-12.993 0-23.563-10.57-23.563-23.562 0-12.993 10.57-23.563 23.563-23.563 12.991 0 23.562 10.57 23.562 23.563zm-31.064-178.342h-16.066v-16.06h16.066zm116.22 92.653h155.312.051c4.405.028 7.98 3.619 7.98 8.031 0 4.429-3.603 8.031-8.031 8.031h-155.312c-4.429 0-8.031-3.603-8.031-8.031 0-4.412 3.575-8.003 7.98-8.031zm155.364 47.126c-.017 0-.034 0-.051 0h-155.313c-.017 0-.034 0-.051 0-4.405-.028-7.98-3.619-7.98-8.031 0-4.429 3.603-8.031 8.031-8.031h155.312c4.429 0 8.031 3.603 8.031 8.031.001 4.412-3.574 8.003-7.979 8.031zm7.98 23.031c0 4.429-3.603 8.031-8.031 8.031h-155.313c-4.429 0-8.031-3.603-8.031-8.031 0-4.412 3.575-8.003 7.98-8.031h.051 155.312.051c4.406.028 7.981 3.619 7.981 8.031zm-7.876 39.093c-.05 0-.1-.001-.151-.001h-155.322c-.05 0-.1.001-.151.001-4.357-.083-7.876-3.653-7.876-8.029 0-4.429 3.603-8.031 8.031-8.031h155.312c4.429 0 8.031 3.603 8.031 8.031.002 4.376-3.517 7.945-7.874 8.029zm7.878 23.029c0 4.428-3.602 8.03-8.029 8.03h-61.321c-4.143 0-7.5 3.357-7.5 7.5v.005s0 .003 0 .005c0 4.143 3.357 7.5 7.5 7.5h61.321c4.428 0 8.029 3.603 8.029 8.03 0 4.36-3.492 7.919-7.826 8.028-.069-.001-.139-.001-.208-.001h-155.312c-.07 0-.139.001-.208.001-4.334-.108-7.826-3.668-7.826-8.028 0-4.428 3.602-8.03 8.029-8.03h61.321c4.143 0 7.5-3.357 7.5-7.5 0-.002 0-.003 0-.005s0-.003 0-.005c0-4.143-3.357-7.5-7.5-7.5h-61.321c-4.428 0-8.029-3.603-8.029-8.03 0-4.377 3.52-7.947 7.877-8.028.052 0 .104.001.157.001h155.312c.052 0 .105-.001.157-.001 4.358.081 7.877 3.651 7.877 8.028zm-.002 62.128c0 4.429-3.603 8.031-8.031 8.031h-155.313c-4.429 0-8.031-3.603-8.031-8.031 0-4.36 3.491-7.919 7.824-8.029.067.001.135.001.202.001h155.322c.067 0 .135-.001.202-.001 4.334.11 7.825 3.669 7.825 8.029zm-7.98 39.094c-.017 0-.034 0-.051 0h-155.313c-.017 0-.034 0-.051 0-4.405-.028-7.98-3.619-7.98-8.031 0-4.429 3.603-8.031 8.031-8.031h155.312c4.429 0 8.031 3.603 8.031 8.031.001 4.412-3.574 8.003-7.979 8.031zm7.98 23.031c0 4.429-3.603 8.031-8.031 8.031h-155.313c-4.429 0-8.031-3.603-8.031-8.031 0-4.412 3.575-8.003 7.98-8.031h.051 155.312.051c4.406.028 7.981 3.619 7.981 8.031zm124.25 70.156h-419.876v-16.062h419.875v16.062zm-287.671-31.062c-4.393-.042-7.954-3.627-7.954-8.03 0-4.429 3.603-8.031 8.031-8.031h155.312c4.429 0 8.031 3.603 8.031 8.031 0 4.403-3.561 7.989-7.954 8.03zm163.421-318.657c0 4.412-3.575 8.003-7.98 8.031-.017 0-.034 0-.051 0h-155.313c-.017 0-.034 0-.051 0-4.405-.028-7.98-3.619-7.98-8.031 0-4.429 3.603-8.031 8.031-8.031h155.312c4.429 0 8.032 3.603 8.032 8.031zm-140.313-23.031v-109.25h109.25v109.25zm264.563 131.751c0 12.992-10.57 23.562-23.562 23.562-12.993 0-23.563-10.57-23.563-23.562 0-12.993 10.57-23.563 23.563-23.563 12.992 0 23.562 10.57 23.562 23.563zm-16.063-194.402h16.067v16.061h-16.067z"/><path d="m256 31.062c-21.264 0-38.562 17.299-38.562 38.562s17.299 38.562 38.562 38.562 38.562-17.299 38.562-38.562-17.298-38.562-38.562-38.562zm0 62.126c-12.992 0-23.562-10.57-23.562-23.562s10.57-23.564 23.562-23.564 23.562 10.57 23.562 23.562-10.57 23.564-23.562 23.564z"/></g></svg>