<svg id="Capa_1" enable-background="new 0 0 512 512" height="512" viewBox="0 0 512 512" width="512" xmlns="http://www.w3.org/2000/svg"><g><path d="m512 472.829-10.799-129.535c-2.933-35.275-33.799-63.732-69.258-63.732h-13.11v-147.818c0-21.265-17.3-38.564-38.564-38.564s-38.564 17.3-38.564 38.564v147.818h-13.108c-35.398 0-66.321 28.388-69.267 63.73l-10.792 129.537c.116 4.894 2.608 7.602 7.475 8.123h106.846c4.143 0 7.5-3.358 7.5-7.5s-3.358-7.5-7.5-7.5h-67.609l1.383-16.067h167.271l1.383 16.067h-69.737c-4.143 0-7.5 3.358-7.5 7.5s3.358 7.5 7.5 7.5h108.976c4.868-.521 7.359-3.229 7.474-8.123zm-155.295-302.521h47.126v16.063h-47.126zm23.564-62.128c12.993 0 23.563 10.571 23.563 23.564v23.564h-47.126v-23.564c-.001-12.993 10.57-23.564 23.563-23.564zm-23.564 93.192h47.126v78.19h-47.126zm-58.782 233.511 7.55-87.743c.995-11.93 11.151-21.276 23.121-21.276h103.346c11.97 0 22.127 9.346 23.123 21.296l7.549 87.722h-164.689zm182.42 31.068-10.332-120.056c-1.638-19.644-18.36-35.031-38.07-35.031h-103.346c-19.709 0-36.432 15.387-38.068 35.011l-10.334 120.076h-16.03l10.114-121.413c2.338-28.023 26.198-49.975 54.319-49.975h103.346c28.124 0 51.98 21.951 54.309 49.975l10.123 121.413z"/><path d="m193.947 279.564h-39.158v-23.564c0-4.143-3.358-7.5-7.5-7.5h-.262v-45.162c0-4.143-3.358-7.5-7.5-7.5s-7.5 3.358-7.5 7.5v45.162h-31.602v-109.256h31.602v31.411c0 4.143 3.358 7.5 7.5 7.5s7.5-3.358 7.5-7.5v-108.806c0-16.811-13.992-30.801-30.801-30.801-16.984 0-30.802 13.817-30.802 30.801v186.651h-.262c-4.143 0-7.5 3.358-7.5 7.5v23.564h-39.16c-21.23 0-38.502 17.272-38.502 38.502v155.382c0 4.143 3.358 7.5 7.5 7.5h217.448c4.143 0 7.5-3.358 7.5-7.5v-155.382c.001-21.23-17.272-38.502-38.501-38.502zm-93.524-155.321v-16.063h31.602v16.063zm15.802-78.194c9.635.896 14.902 6.163 15.801 15.801v31.33h-31.602v-31.33c-.001-8.713 7.087-15.801 15.801-15.801zm-23.564 217.451h47.126v16.063h-47.126zm-54.159 31.064h155.445c12.959 0 23.501 10.543 23.501 23.501v23.625h-202.447v-23.625c0-12.958 10.542-23.501 23.501-23.501zm23.626 62.128v109.256h-16.063v-109.256zm15.001 0h16.063v109.256h-16.063zm31.064 0h16.063v109.256h-16.063zm31.064 0h16.062v109.256h-16.062zm-124.256 0h16.063v109.256h-16.063zm186.388 109.255v-38.328c0-4.143-3.358-7.5-7.5-7.5s-7.5 3.358-7.5 7.5v38.328h-16.069v-109.255h16.068v38.236c0 4.143 3.358 7.5 7.5 7.5s7.5-3.358 7.5-7.5v-38.236h16.058v109.256h-16.057z"/></g></svg>