<svg id="Capa_1" enable-background="new 0 0 512 512" height="512" viewBox="0 0 512 512" width="512" xmlns="http://www.w3.org/2000/svg"><g><path d="m227.567 380.198 176.106-176.161c8.595-8.597 8.595-22.588 0-31.188l-5.711-5.713 15.996-16c2.929-3.537 2.929-7.074 0-10.611l-5.346-5.348 79.895-79.919c1.407-1.408 2.197-3.315 2.197-5.305v-42.611c-1.905-7.473-6.173-9.241-12.803-5.305l-101.196 101.225-5.346-5.348c-2.928-2.929-7.677-2.929-10.606 0l-15.996 16-5.713-5.715c-8.595-8.595-22.581-8.597-31.177 0l-50.21 50.226c-2.929 2.931-2.929 7.68 0 10.611 2.929 2.929 7.678 2.929 10.607 0l50.21-50.226c2.747-2.749 7.217-2.749 9.964 0l64.63 64.649c2.747 2.749 2.747 7.22 0 9.967l-27.011 27.019-26.646-26.655c-2.929-2.929-7.678-2.929-10.606 0-2.929 2.931-2.929 7.68 0 10.611l26.646 26.654-31.992 32.002-26.646-26.655c-2.929-2.929-7.678-2.929-10.606 0-2.929 2.931-2.929 7.68 0 10.611l26.646 26.654-31.992 32.002-26.647-26.655c-2.929-2.929-7.678-2.929-10.606 0-2.929 2.931-2.929 7.68 0 10.611l26.646 26.655-10.693 10.696-74.594-74.617 60.188-60.206c2.929-2.931 2.929-7.68 0-10.611-2.929-2.929-7.678-2.929-10.606 0l-102.79 102.819-5.345-5.346c-8.796-8.798-23.108-8.799-31.906.001-8.795 8.799-8.795 23.117 0 31.916l26.644 26.652-77.294 77.318-5.344-5.346c-10.635-8.814-21.271-8.814-31.906-.001-8.811 10.639-8.811 21.277 0 31.916l63.898 63.917c10.635 8.814 21.271 8.814 31.906.001 8.797-8.8 8.797-23.118 0-31.917l-5.346-5.348 27.506-27.514c2.929-2.931 2.929-7.68 0-10.611-2.929-2.929-7.678-2.929-10.606 0l-27.506 27.515-31.994-32.003 77.293-77.317 31.994 32.004-26.667 26.674c-2.929 2.931-2.929 7.68 0 10.611 2.929 2.929 7.678 2.929 10.606 0l26.668-26.676 26.646 26.655c10.635 8.813 21.271 8.813 31.906 0 8.797-8.8 8.797-23.118 0-31.917zm248.135-354.744v21.392l-77.698 77.722-10.693-10.696zm-109.646 88.376 31.992 32.002-10.693 10.695-31.992-32.002zm-274.25 380.95c-3.564 2.954-7.129 2.954-10.693 0l-63.898-63.917c-2.953-3.565-2.953-7.13 0-10.696 3.564-2.954 7.129-2.954 10.693 0l63.899 63.917c2.947 2.948 2.947 7.748-.001 10.696zm82.552-231.81 74.594 74.617-31.992 32.002-74.594-74.617zm47.948 143.882c-3.564 2.954-7.129 2.954-10.693 0l-106.497-106.53c-2.948-2.949-2.948-7.749-.001-10.697 3.565-2.949 7.129-2.949 10.693 0l106.497 106.53c2.953 3.566 2.953 7.132.001 10.697z"/><path d="m473.5 310.557h-6.347v-16.063h6.282c4.142 0 7.5-3.358 7.5-7.502v-31.072c0-4.144-3.358-7.502-7.5-7.502h-93.187c-4.142 0-7.5 3.358-7.5 7.502v31.072c0 4.144 3.358 7.502 7.5 7.502h9.78v16.063h-9.839c-21.229 0-38.5 17.277-38.5 38.512v45.864c0 4.144 3.358 7.502 7.5 7.502s7.5-3.358 7.5-7.502v-45.864c0-12.962 10.542-23.507 23.5-23.507h93.31c12.958 0 23.5 10.545 23.5 23.507v140.424c0 4.137-3.364 7.502-7.5 7.502h-125.31c-4.136 0-7.5-3.365-7.5-7.502v-61.869c0-4.144-3.358-7.502-7.5-7.502s-7.5 3.358-7.5 7.502v61.869c0 12.41 10.093 22.507 22.5 22.507h125.311c12.407 0 22.5-10.097 22.5-22.507v-140.424c0-21.235-17.271-38.512-38.5-38.512zm-85.751-47.135h78.187v16.068h-78.187zm64.404 31.072v16.032h-47.125v-16.032z"/><path d="m426.842 474.576c32.13 0 52.89-16.416 52.89-41.822 0-5.131-.827-10.401-2.459-15.681l2.065-36.067c.633-11.071-13.375-18.2-21.945-11.772l-13.237 9.931c-11.219-4.708-23.409-4.708-34.63.002l-13.239-9.933c-8.57-6.427-22.58.701-21.945 11.772l2.066 36.081c-1.63 5.276-2.456 10.539-2.456 15.667 0 25.406 20.76 41.822 52.89 41.822zm-35.379-56.948-1.99-34.748 14.684 11.016c2.342 1.757 5.491 1.991 8.066.598 9.494-5.132 19.74-5.132 29.235-.001 2.576 1.392 5.724 1.159 8.065-.599l14.682-11.015-1.989 34.735c-.055.956.074 1.915.379 2.822 1.417 4.211 2.136 8.356 2.136 12.318 0 24.883-29.001 26.817-37.89 26.817s-37.89-1.934-37.89-26.817c0-3.959.717-8.099 2.132-12.306.306-.907.435-1.865.38-2.82z"/><path d="m442.373 356.638c4.142 0 7.5-3.358 7.5-7.502s-3.358-7.502-7.5-7.502h-31.063c-4.142 0-7.5 3.358-7.5 7.502s3.358 7.502 7.5 7.502z"/></g></svg>