<svg id="Capa_1" enable-background="new 0 0 512 512" height="512" viewBox="0 0 512 512" width="512" xmlns="http://www.w3.org/2000/svg"><g><path d="m344.25 124.25h-23.625v-23.5c0-4.143-3.358-7.5-7.5-7.5h-23.564v-85.75c0-4.143-3.358-7.5-7.5-7.5h-62.12c-4.142 0-7.5 3.357-7.5 7.5v85.75h-23.564c-4.142 0-7.5 3.357-7.5 7.5v23.5h-23.627c-21.229 0-38.5 17.271-38.5 38.5v310.75c0 21.229 17.271 38.5 38.5 38.5h186.5c21.229 0 38.5-17.271 38.5-38.5v-263.23c0-4.143-3.358-7.5-7.5-7.5s-7.5 3.357-7.5 7.5v263.23c0 12.958-10.542 23.5-23.5 23.5h-186.5c-12.958 0-23.5-10.542-23.5-23.5v-310.75c0-12.958 10.542-23.5 23.5-23.5h186.5c12.958 0 23.5 10.542 23.5 23.5v14.83c0 4.143 3.358 7.5 7.5 7.5s7.5-3.357 7.5-7.5v-14.83c0-21.229-17.271-38.5-38.5-38.5zm-69.689-62.123h-8.029c-4.428 0-8.031-3.603-8.031-8.031s3.603-8.031 8.031-8.031h8.029zm-47.121-47.127h47.12v16.064h-8.029c-12.7 0-23.031 10.332-23.031 23.031s10.332 23.031 23.031 23.031h8.029v16.064h-47.12zm78.185 109.25h-109.249v-16h109.249z"/><path d="m385.25 46.596h-31.062c-4.142 0-7.5 3.357-7.5 7.5s3.358 7.5 7.5 7.5h31.062c4.142 0 7.5-3.357 7.5-7.5s-3.358-7.5-7.5-7.5z"/><path d="m332.01 39.741 31.062-15.531c3.705-1.853 5.207-6.357 3.354-10.062-1.852-3.704-6.356-5.205-10.062-3.354l-31.062 15.531c-3.705 1.853-5.207 6.357-3.354 10.062 1.314 2.629 5.552 5.238 10.062 3.354z"/><path d="m325.302 81.865 31.062 15.531c3.816 1.739 8.136.635 10.062-3.354 1.802-3.73.351-8.21-3.354-10.062l-31.062-15.531c-3.703-1.854-8.209-.351-10.062 3.354-1.852 3.705-.351 8.21 3.354 10.062z"/><path d="m251 373.082c29.688 0 48.87-15.219 48.87-38.771 0-4.706-.752-9.533-2.237-14.369l1.875-32.741c.608-10.619-12.837-17.47-21.063-11.297l-11.762 8.821c-10.168-4.166-21.201-4.164-31.372.001l-11.763-8.822c-8.226-6.168-21.672.673-21.063 11.296l1.876 32.755c-1.482 4.833-2.232 9.655-2.232 14.356.001 23.552 19.184 38.771 48.871 38.771zm-31.582-52.592-1.731-30.233 12.24 9.18c2.341 1.756 5.49 1.989 8.065.599 8.458-4.57 17.559-4.57 26.015-.002 2.575 1.391 5.724 1.159 8.065-.599l12.238-9.178-1.731 30.222c-.055.956.074 1.914.38 2.822 1.269 3.768 1.912 7.472 1.912 11.011 0 22.057-25.924 23.771-33.87 23.771s-33.87-1.714-33.87-23.771c0-3.534.642-7.236 1.909-11.002.304-.908.433-1.865.378-2.82z"/><path d="m347.5 318.18c0-53.21-43.29-96.5-96.5-96.5s-96.5 43.29-96.5 96.5c0 46.503 33.137 86.403 78.792 94.874 4.073.759 7.987-1.933 8.742-6.006.756-4.072-1.933-7.986-6.006-8.742-38.549-7.152-66.528-40.85-66.528-80.126 0-44.939 36.561-81.5 81.5-81.5s81.5 36.561 81.5 81.5c0 39.276-27.979 72.974-66.528 80.126-4.073.756-6.861 4.69-6.006 8.742.992 4.702 4.997 6.679 8.742 6.006 45.656-8.471 78.792-48.371 78.792-94.874z"/><path d="m297.594 201.426c4.142 0 7.5-3.357 7.5-7.5s-3.358-7.5-7.5-7.5h-93.187c-4.142 0-7.5 3.357-7.5 7.5s3.358 7.5 7.5 7.5z"/><path d="m204.407 434.823c-4.142 0-7.5 3.357-7.5 7.5s3.358 7.5 7.5 7.5h93.187c4.142 0 7.5-3.357 7.5-7.5s-3.358-7.5-7.5-7.5z"/></g></svg>