<svg id="Capa_1" enable-background="new 0 0 512 512" height="512" viewBox="0 0 512 512" width="512" xmlns="http://www.w3.org/2000/svg"><g><g><path d="m471.72 402.052c-.645-4.091-4.478-6.883-8.578-6.238-4.091.645-6.884 4.486-6.238 8.578 6.511 41.241-15.703 92.575-63.668 92.575-32.533-.002-64.705-26.167-76.664-65.272-8.923-29.181-4.876-59.522 10.828-81.164 14.938-20.586 11.087-48.775-8.754-64.164-18.875-12.314-34.489-29.909-40.422-52.085l-5.552-20.675 45.569-12.21 40.784 53.262.877 2.869c9.886 32.419 30.155 60.604 58.616 81.511 12.094 8.882 22.161 21.209 29.112 35.648 2.854 4.018 6.19 5.186 10.01 3.505 3.732-1.797 5.301-6.279 3.505-10.01-8.013-16.644-19.683-30.902-33.748-41.232-26.298-19.317-45.304-46.685-54.423-77.969-.262-.855-.674-1.657-1.218-2.367l-42.535-55.549 14.766-66.964c.892-4.045-1.664-8.047-5.709-8.939s-8.046 1.664-8.939 5.709l-8.982 40.732c-.317-.617-.72-1.19-1.198-1.701l-35.194-37.526 16.593-9.586c1.722-.995 2.977-2.633 3.492-4.552l12.104-45.174c.516-1.922.245-3.969-.749-5.692l-12.761-22.097 4.986-18.589 18.58 4.978 18.1 31.344-7.798 35.352c-.892 4.045 1.664 8.046 5.709 8.939 4.041.894 8.046-1.663 8.939-5.709l8.425-38.196c.403-1.829.107-3.743-.829-5.366l-21.11-36.555c-.995-1.722-2.633-2.978-4.553-3.493l-28.822-7.722c-4.004-1.076-8.113 1.301-9.185 5.3l-7.733 28.833c-.516 1.922-.246 3.969.749 5.693l12.761 22.097-10.495 39.174-20.35 11.756h-28.032l-20.346-11.754-10.498-39.177 12.757-22.096c.995-1.723 1.264-3.769.749-5.691l-7.725-28.83c-1.598-4.304-4.659-6.071-9.185-5.302l-28.83 7.725c-1.921.515-3.559 1.771-4.553 3.494l-21.105 36.553c-.936 1.622-1.232 3.536-.829 5.365l30.33 137.502-42.661 55.714c-.544.71-.956 1.512-1.218 2.367-9.198 31.336-28.025 58.577-54.421 77.968-18.81 13.808-33.19 34.578-40.491 58.482-14.245 46.575 1.73 107.651 52.874 123.289 46.465 14.21 91.332-19.869 108.627-61.133 1.601-3.82-.198-8.214-4.018-9.816-3.82-1.604-8.214.197-9.815 4.017-16.992 40.54-55.859 63.146-90.409 52.588-18.041-5.517-32.476-19.256-40.645-38.687-8.368-19.905-9.175-43.299-2.27-65.876 6.364-20.835 18.802-38.867 35.025-50.775 28.461-20.907 48.73-49.093 58.614-81.506l.878-2.874 40.811-53.298 45.553 12.206-5.564 20.722c-5.932 22.167-21.537 39.76-40.407 52.068-19.854 15.399-23.706 43.588-8.768 64.176 11.814 16.277 17.249 38.541 14.911 61.086-.427 4.12 2.566 7.805 6.686 8.233.263.027.524.041.783.041 3.794 0 7.05-2.87 7.45-6.727 2.754-26.558-3.529-51.93-17.69-71.442-10.154-13.994-7.597-33.107 5.838-43.527 21.071-15.248 38.761-34.153 45.685-60.023l6.006-22.368h3.618l6.005 22.361c6.61 24.7 23.765 45.124 44.673 59.251 13.154 11.587 17.882 29.105 6.851 44.306-18.452 25.429-23.324 60.703-13.031 94.359 13.933 45.558 52.102 75.871 91.118 75.869 57.181-.001 86.339-59.432 78.371-109.899zm-285.929-380.383 18.585-4.98 4.98 18.586-12.757 22.095c-.995 1.723-1.264 3.769-.749 5.691l12.106 45.179c.515 1.921 1.771 3.558 3.492 4.552l24.776 14.314c1.141.659 2.434 1.006 3.752 1.006h28.806l38.151 40.68 5.027 18.76-49.463 13.254h-12.988l-52.306-14.016-29.508-133.779z"/><path d="m408.283 352.581c-13.919-10.172-29.902-13.563-43.851-9.297-13.949 4.264-25.305 16.012-31.155 32.229-5.661 15.694-5.858 33.891-.554 51.24 8.916 29.164 39.295 61.766 72.963 51.467 33.633-10.279 40.575-54.473 31.709-83.469-5.303-17.348-15.642-32.324-29.112-42.17zm14.45 88.321c-4.294 11.904-11.905 20.062-21.43 22.975-25.017 7.644-47.956-20.975-54.236-41.51-8.652-28.3 1.513-58.553 21.751-64.741 25.018-7.644 47.956 20.974 54.236 41.51 4.297 14.062 4.18 29.284-.321 41.766z"/><path d="m75.005 445.992c5.85 16.218 17.205 27.964 31.154 32.228 33.575 10.266 64.093-22.456 72.964-51.467 8.919-29.173 2.025-73.157-31.708-83.469-33.821-10.341-64.111 22.341-72.964 51.467-5.304 17.348-5.108 35.545.554 51.241zm13.789-46.855c7.472-24.159 32.712-48.087 54.234-41.511 25.737 7.87 28.181 43.707 21.75 64.741-6.432 21.04-28.495 49.369-54.235 41.51-25.735-7.87-28.18-43.706-21.749-64.74z"/></g><path d="m256.003 173.239c-4.142 0-7.5-3.358-7.5-7.5 0-4.142 3.358-7.5 7.5-7.5 4.142 0 7.5 3.358 7.5 7.5 0 4.142-3.358 7.5-7.5 7.5z"/></g></svg>