<svg id="Capa_1" enable-background="new 0 0 512 512" height="512" viewBox="0 0 512 512" width="512" xmlns="http://www.w3.org/2000/svg"><g><path d="m108.455 69.704c-41.161 0-78.905 35.92-77.389 77.937.291 41.831 35.388 76.843 77.389 76.843 42.213 0 77.39-35.343 77.39-77.391 0-42.031-35.175-77.389-77.39-77.389zm0 15c19.978 0 37.793 9.439 49.22 24.092h-98.441c11.427-14.653 29.243-24.092 49.221-24.092zm0 124.78c-19.738 0-37.364-9.213-48.805-23.564h97.609c-11.441 14.351-29.067 23.564-48.804 23.564zm16.346-54.629h45.563c-.7 5.619-2.151 11.008-4.248 16.064h-115.323c-2.097-5.056-3.547-10.446-4.248-16.064h45.565c4.143 0 7.5-3.357 7.5-7.5s-3.357-7.5-7.5-7.5h-45.628c.651-5.612 2.05-10.999 4.095-16.06h115.756c2.044 5.06 3.443 10.448 4.095 16.06h-45.626c-4.143 0-7.5 3.357-7.5 7.5s3.356 7.5 7.499 7.5z"/><path d="m407.957 31.927-60.214 30.116-231.291-21.027c-61.375-5.612-116.452 44.647-116.452 106.339 0 46.184 31.545 88.736 75.796 102.168l17.395 69.595v77.268c0 12.406 10.094 22.5 22.5 22.5h8.562v23.626c0 21.229 17.271 38.5 38.5 38.5h31.187c21.229 0 38.5-17.271 38.5-38.5v-.124c0-12.958 10.542-23.5 23.5-23.5h93.25c4.143 0 7.5-3.357 7.5-7.5s-3.357-7.5-7.5-7.5h-93.25c-21.229 0-38.5 17.271-38.5 38.5v.124c0 12.958-10.542 23.5-23.5 23.5h-31.187c-12.958 0-23.5-10.542-23.5-23.5v-23.626h8.559c12.406 0 22.5-10.094 22.5-22.5v-86.22h24.101c12.406 0 22.5-10.094 22.5-22.501v-43.092l48.299-4.39c4.125-.374 7.165-4.022 6.79-8.147-.374-4.126-4.025-7.16-8.147-6.791l-148.761 13.521c-52.957 4.826-100.094-38.248-100.094-91.411 0-52.898 47.5-96.192 100.092-91.401l226.6 20.601v141.613l-45.28 4.119c-4.125.375-7.165 4.023-6.789 8.148.375 4.124 4.023 7.173 8.148 6.789l49.975-4.546 60.212 30.105c4.55 2.275 10.854-1.002 10.854-6.708v-92.38c0-4.143-3.357-7.5-7.5-7.5s-7.5 3.357-7.5 7.5v80.245l-16.061-8.031v-177.104l16.061-8.033v80.243c0 4.143 3.357 7.5 7.5 7.5s7.5-3.357 7.5-7.5v-92.38c0-8.311-7.499-8.561-10.855-6.708zm-237.646 216.883 31.601-2.872v41.728c0 4.136-3.364 7.501-7.5 7.501h-24.101zm-15 147.576c0 4.136-3.364 7.5-7.5 7.5h-32.12c-4.136 0-7.5-3.364-7.5-7.5v-8.561h47.12zm-38.862-142.681 38.861-3.532v122.653h-47.12v-54.63c0-.613-.075-1.224-.224-1.818l-15.81-63.256c8.844 2.952 21.09.874 24.293.583zm256.302-25.294-16.06-8.03v-146.04l16.06-8.033z"/><path d="m442.375 108.528h31.062c4.143 0 7.5-3.357 7.5-7.5s-3.357-7.5-7.5-7.5h-31.062c-4.143 0-7.5 3.357-7.5 7.5s3.357 7.5 7.5 7.5z"/><path d="m504.5 139.858h-46.594c-4.143 0-7.5 3.357-7.5 7.5s3.357 7.5 7.5 7.5h46.594c4.143 0 7.5-3.357 7.5-7.5s-3.357-7.5-7.5-7.5z"/><path d="m473.438 186.716h-31.062c-4.143 0-7.5 3.357-7.5 7.5s3.357 7.5 7.5 7.5h31.062c4.143 0 7.5-3.357 7.5-7.5s-3.358-7.5-7.5-7.5z"/></g></svg>