<svg id="Capa_1" enable-background="new 0 0 512 512" height="512" viewBox="0 0 512 512" width="512" xmlns="http://www.w3.org/2000/svg"><g><path d="m74.604 434.929h-59.599v-322.148s53.483 26.433 54.647 26.433h155.36c1.165 0 54.638-26.433 54.638-26.433v64.726c0 4.144 3.359 7.502 7.502 7.502s7.502-3.358 7.502-7.502v-76.864c-1.125-6.272-4.744-8.509-10.857-6.71l-60.556 30.277h-21.801v-54.64c0-4.144-3.359-7.502-7.502-7.502h-93.216c-4.143 0-7.502 3.358-7.502 7.502v54.64h-21.797l-60.566-30.278c-6.113-1.799-9.732.438-10.857 6.71v341.789c0 4.144 3.359 7.502 7.502 7.502h67.101c4.143 0 7.502-3.358 7.502-7.502.001-4.144-3.358-7.502-7.501-7.502zm33.619-357.858h78.211v47.138h-78.211z"/><path d="m511.778 440.058-31.07-93.209c-1.021-3.063-3.888-5.13-7.117-5.13h-61.339c-4.143 0-7.502 3.358-7.502 7.502s3.359 7.502 7.502 7.502h55.932l15.712 47.136h-238.119l15.712-47.136h118.072c4.143 0 7.502-3.358 7.502-7.502s-3.359-7.502-7.502-7.502h-84.907v-131.512c0-4.144-3.359-7.502-7.502-7.502s-7.502 3.358-7.502 7.502v131.513h-23.568c-3.229 0-6.096 2.066-7.118 5.13l-29.36 88.08h-112.3c-4.143 0-7.502 3.358-7.502 7.502s3.359 7.502 7.502 7.502h397.357c5.743-.863 8.115-4.155 7.117-9.876zm-276.357-5.129 5.355-16.064h248.122l5.355 16.064z"/><path d="m395.906 325.648c12.703 0 23.038-10.334 23.038-23.038 0-10.132-12.909-29.608-16.865-35.336-4.115-4.318-8.23-4.318-12.346 0-3.956 5.727-16.866 25.203-16.866 35.336.001 12.703 10.336 23.038 23.039 23.038zm.002-40.233c4.633 7.759 7.991 14.776 8.032 17.197-.001 4.428-3.604 8.031-8.033 8.031-4.43 0-8.034-3.604-8.034-8.03.039-2.414 3.4-9.433 8.035-17.198z"/><path d="m215.437 350.007c0-6.737-1.112-13.666-3.307-20.62l2.784-48.597c.731-12.75-15.413-20.969-25.287-13.561l-18.841 14.13c-15.639-6.805-31.279-6.804-46.918.002l-18.842-14.131c-9.874-7.408-26.02.808-25.288 13.56l2.785 48.616c-2.191 6.947-3.301 13.87-3.301 20.6 0 32.385 26.734 53.312 68.108 53.312s68.107-20.926 68.107-53.311zm-121.211 0c0-5.556 1.002-11.353 2.978-17.228.305-.908-2.486-52.846-2.486-52.846-.013-.233 23.829 16.195 23.829 16.195 2.342 1.757 5.491 1.99 8.068.599 13.419-7.252 28.005-7.253 41.424-.002 2.577 1.392 5.725 1.159 8.068-.599 0 0 23.84-16.426 23.826-16.193 0 0-2.79 51.922-2.484 52.829 1.979 5.881 2.983 11.682 2.983 17.245 0 35.545-40.645 38.307-53.103 38.307s-53.103-2.762-53.103-38.307z"/><path d="m232.512 209.404v-31.072c0-4.144-3.359-7.502-7.502-7.502h-155.361c-4.143 0-7.502 3.358-7.502 7.502v31.072c0 4.144 3.359 7.502 7.502 7.502h155.361c4.143 0 7.502-3.358 7.502-7.502zm-15.005-7.503h-140.356v-16.068h140.356z"/><path d="m100.721 232.973c-4.143 0-7.502 3.358-7.502 7.502s3.359 7.502 7.502 7.502h93.216c4.143 0 7.502-3.358 7.502-7.502s-3.359-7.502-7.502-7.502z"/></g></svg>