<svg id="Capa_1" enable-background="new 0 0 512 512" height="512" viewBox="0 0 512 512" width="512" xmlns="http://www.w3.org/2000/svg"><g><path d="m411.311 402.47c4.142 0 7.5-3.357 7.5-7.5v-232.16c0-.704-31.06-108.591-31.06-108.591v-46.719c0-4.143-3.358-7.5-7.5-7.5h-56.66c-4.142 0-7.5 3.357-7.5 7.5s3.358 7.5 7.5 7.5h49.16v32.78h-233.5v-32.78h151.649c4.142 0 7.5-3.357 7.5-7.5s-3.358-7.5-7.5-7.5h-159.15c-4.142 0-7.5 3.357-7.5 7.5v46.726s-31.061 107.884-31.061 108.588v341.685c0 4.143 3.358 7.5 7.5 7.5l310.622.001c4.142 0 7.5-3.357 7.5-7.5v-76.85c0-4.143-3.358-7.5-7.5-7.5s-7.5 3.357-7.5 7.5v69.35h-47.124v-333.125l23.563-81.569 23.56 81.565v231.099c.001 4.142 3.358 7.5 7.501 7.5zm-69.624-239.657v334.185h-233.498v-333.123l29.202-101.091h232.885s-28.589 99.325-28.589 100.029z"/><path d="m233.78 193.88c0 4.143 3.358 7.5 7.5 7.5h69.34v264.56h-171.37v-264.56h69.34c4.142 0 7.5-3.357 7.5-7.5s-3.358-7.5-7.5-7.5h-76.84c-4.142 0-7.5 3.357-7.5 7.5v279.56c0 4.143 3.358 7.5 7.5 7.5h186.37c4.142 0 7.5-3.357 7.5-7.5v-279.56c0-4.143-3.358-7.5-7.5-7.5h-76.84c-4.142 0-7.5 3.357-7.5 7.5z"/><path d="m267.223 251.684-18.835 14.126c-15.634-6.803-31.269-6.802-46.903.002l-18.836-14.127c-9.873-7.407-26.01.808-25.281 13.556l2.784 48.601c-2.19 6.943-3.3 13.863-3.3 20.594 0 32.375 26.726 53.294 68.086 53.294s68.086-20.919 68.086-53.294c0-6.735-1.111-13.663-3.306-20.613l2.783-48.581c.523-18.242-17.001-20.742-25.278-13.558zm-42.285 121.045c-12.454 0-53.086-2.762-53.086-38.294 0-5.557 1.001-11.351 2.977-17.222.305-.907-2.485-52.83-2.485-52.83-.013-.233 23.822 16.189 23.822 16.189 2.341 1.757 5.491 1.99 8.066.598 13.41-7.246 27.995-7.25 41.41-.001 2.576 1.392 5.725 1.158 8.065-.599 0 0 23.318-17.092 23.598-16.794.16.169-2.568 52.512-2.262 53.419 1.979 5.878 2.982 11.678 2.982 17.239-.001 35.533-40.633 38.295-53.087 38.295z"/><path d="m178.345 403.812c-4.142 0-7.5 3.357-7.5 7.5s3.358 7.5 7.5 7.5h93.187c4.142 0 7.5-3.357 7.5-7.5s-3.358-7.5-7.5-7.5z"/><path d="m162.814 170.313h124.249c4.142 0 7.5-3.357 7.5-7.5s-3.358-7.5-7.5-7.5h-124.249c-4.142 0-7.5 3.357-7.5 7.5s3.358 7.5 7.5 7.5z"/><path d="m193.876 139.251h62.124c4.142 0 7.5-3.357 7.5-7.5s-3.358-7.5-7.5-7.5h-62.125c-4.142 0-7.5 3.357-7.5 7.5s3.359 7.5 7.501 7.5z"/></g></svg>