<svg id="Capa_1" enable-background="new 0 0 512 512" height="512" viewBox="0 0 512 512" width="512" xmlns="http://www.w3.org/2000/svg"><g><path d="m384.97 425.076-5.929-35.552c-.681-4.086-4.547-6.855-8.631-6.164-4.086.681-6.846 4.546-6.164 8.631 2.339 14.028 6.093 28.614 6.691 42.898h-229.873c1.593-38.021 12.344-77.131 18.572-114.667 1.949-11.761 1.949-23.686 0-35.448l-13.849-83.318h52.249c4.142 0 7.5-3.357 7.5-7.5s-3.358-7.5-7.5-7.5h-54.742c-9.498-38.166 16.13-78.167 57.392-78.167h110.653c41.252 0 66.892 40.008 57.384 78.167h-138.005c-4.142 0-7.5 3.357-7.5 7.5s3.358 7.5 7.5 7.5h135.504l-13.903 83.394c-1.97 11.807-1.97 23.781 0 35.59l6.559 39.321c.681 4.085 4.536 6.848 8.632 6.163 4.085-.682 6.845-4.546 6.163-8.632l-6.559-39.32c-1.696-10.171-1.696-20.485 0-30.655l17.857-107.105c6.504-39.05-20.529-77.983-59.304-85.542v-24.126c0-4.143-3.357-7.5-7.5-7.5s-7.5 3.357-7.5 7.5v22.743h-109.34v-78.287h19.968v27.462c0 19.138 15.569 34.707 34.707 34.707s34.707-15.569 34.707-34.707v-27.462h19.958v22.862c0 4.143 3.357 7.5 7.5 7.5s7.5-3.357 7.5-7.5v-30.362c0-4.143-3.357-7.5-7.5-7.5h-124.34c-4.142 0-7.5 3.357-7.5 7.5v87.175c-38.664 7.551-65.782 46.384-59.284 85.493l17.795 107.061c1.679 10.132 1.679 20.406 0 30.538l-17.816 107.364c-7.359 44.346 28.352 86.869 73.643 86.869h110.673c45.322 0 81.022-42.562 73.632-86.924zm-109.261-382.614c0 10.866-8.84 19.707-19.707 19.707-10.866 0-19.707-8.841-19.707-19.707v-27.341h39.413v27.341zm81.137 433.447c-11.356 13.403-27.943 21.091-45.507 21.091h-110.674c-17.558 0-34.142-7.684-45.498-21.079-6.439-7.595-10.79-16.547-12.828-26.032h227.323c-2.036 9.48-6.384 18.427-12.816 26.02z"/><path d="m256.002 335.57c32.123 0 52.879-16.407 52.879-41.799 0-5.132-.827-10.398-2.46-15.674l2.064-36.044c.636-11.069-13.373-18.194-21.943-11.769l-13.232 9.925c-11.54-4.723-23.081-4.723-34.621.001l-13.235-9.926c-8.571-6.426-22.576.7-21.943 11.768l2.065 36.06c-1.629 5.272-2.455 10.533-2.455 15.659.002 25.392 20.758 41.799 52.881 41.799zm-35.368-56.918-1.989-34.726 14.677 11.008c2.342 1.757 5.491 1.989 8.065.599 9.491-5.129 19.737-5.129 29.227-.002 2.572 1.392 5.724 1.159 8.065-.598l14.674-11.007-1.987 34.712c-.056.956.074 1.915.38 2.822 1.416 4.207 2.135 8.349 2.135 12.311 0 24.866-28.992 26.799-37.879 26.799-8.886 0-37.879-1.933-37.879-26.799 0-3.957.717-8.096 2.131-12.299.305-.907.434-1.865.38-2.82z"/><path d="m325.669 363.339c0-4.143-3.357-7.5-7.5-7.5h-124.344c-4.142 0-7.5 3.357-7.5 7.5s3.358 7.5 7.5 7.5h124.344c4.142 0 7.5-3.357 7.5-7.5z"/><path d="m210.623 388.276c-4.142 0-7.5 3.357-7.5 7.5s3.358 7.5 7.5 7.5h91.96c4.143 0 7.5-3.357 7.5-7.5s-3.357-7.5-7.5-7.5z"/></g></svg>