<svg id="Capa_1" enable-background="new 0 0 512 512" height="512" viewBox="0 0 512 512" width="512" xmlns="http://www.w3.org/2000/svg"><g><path d="m380.25 309.28c4.143 0 7.5-3.357 7.5-7.5v-45.9c0-38.322-31.178-69.5-69.5-69.5h-8.156v-23.547c0-4.143-3.357-7.5-7.5-7.5h-8.034v-63.205l33.102 44.123c1.416 1.888 3.639 2.999 5.999 2.999h31.06c6.325-1.154 8.545-4.805 6.658-10.952l-25.922-50.004s6.578-1.695 7.11-1.962l31.042-15.552c2.538-1.271 4.141-3.866 4.141-6.705v-31.042c0-2.84-1.604-5.437-4.145-6.707l-31.043-15.531c-1.044-.524-2.206-.795-3.372-.795h-72.46c-4.143 0-7.5 3.357-7.5 7.5s3.357 7.5 7.5 7.5h64.96v48.773l-56.449 14.11c-3.339.835-5.682 3.835-5.682 7.276v70.17h-47.119v-59.359c0-8.084-7.515-20.005-16.434-21.611l-47.672-8.57c-5.38-1.78-7.172-5.358-5.376-10.734l17.949-35.909c1.278-2.557 3.847-4.145 6.702-4.145h56.439c4.143 0 7.5-3.357 7.5-7.5s-3.357-7.5-7.5-7.5h-56.438c-8.574 0-16.283 4.766-20.119 12.437l-17.949 35.909c-6.833 13.664 2.364 29.733 16.141 32.206l47.049 8.459c2.835 1.133 4.709 3.875 4.709 6.959v59.363h-8.034c-4.143 0-7.5 3.357-7.5 7.5v23.547h-8.156c-38.322 0-69.5 31.178-69.5 69.5v217.619c0 21.229 17.271 38.5 38.5 38.5h186.5c21.229 0 38.5-17.271 38.5-38.5v-139.03c0-4.143-3.357-7.5-7.5-7.5s-7.5 3.357-7.5 7.5v131.53h-160.991c-4.143 0-7.5 3.357-7.5 7.5s3.357 7.5 7.5 7.5h159.763c-3.137 9.292-11.936 16-22.273 16h-186.5c-10.337 0-19.136-6.708-22.273-16h38.593c4.143 0 7.5-3.357 7.5-7.5s-3.357-7.5-7.5-7.5h-39.82v-202.5h233.5v38.28c0 4.143 3.357 7.5 7.5 7.5zm-27.866-185.03h-14.975l-27.761-37.005 20.851-5.212zm4.323-104.609 16.042 8.026v21.777l-16.042 8.036zm-139.801 150.692h78.188v16.047h-78.188zm-23.156 31.047h124.5c27.549 0 50.389 20.546 54.002 47.12h-232.504c3.613-26.574 26.453-47.12 54.002-47.12z"/><path d="m256 449.833c41.36 0 68.086-20.919 68.086-53.294 0-6.735-1.111-13.663-3.306-20.613l2.782-48.582c.731-12.747-15.407-20.963-25.278-13.556l-18.835 14.126c-15.634-6.804-31.268-6.803-46.902.002l-18.837-14.127c-9.873-7.409-26.008.808-25.28 13.555l2.784 48.602c-2.19 6.941-3.3 13.862-3.3 20.594 0 32.374 26.726 53.293 68.086 53.293zm-49.73-73.336-2.864-50.01c-.039-.659.795-1.082 1.304-.699l22.519 16.889c2.342 1.757 5.491 1.991 8.066.598 13.413-7.25 27.996-7.249 41.409-.002 2.575 1.394 5.725 1.159 8.065-.598l22.517-16.888c.811-.259 1.245-.026 1.303.699l-2.863 49.992c-.056.956.073 1.914.379 2.821 1.979 5.878 2.982 11.678 2.982 17.239 0 35.532-40.633 38.294-53.086 38.294s-53.086-2.762-53.086-38.294c0-5.558 1.001-11.352 2.977-17.222.304-.906.432-1.863.378-2.819z"/><path d="m287.062 294.562c4.143 0 7.5-3.357 7.5-7.5s-3.357-7.5-7.5-7.5h-62.125c-4.143 0-7.5 3.357-7.5 7.5s3.357 7.5 7.5 7.5z"/></g></svg>