<svg id="Capa_1" enable-background="new 0 0 512 512" height="512" viewBox="0 0 512 512" width="512" xmlns="http://www.w3.org/2000/svg"><g><path d="m445.111 437.546-4.97-69.58c-.295-4.132-3.88-7.241-8.015-6.947-4.132.296-7.242 3.884-6.947 8.016l4.97 69.579c2.209 30.972-23.685 58.386-54.359 58.386h-239.58c-30.598 0-56.558-27.556-54.359-58.386l15.25-213.539c5.931-82.96 75.727-147.945 158.899-147.945 82.578 0 153.013 65.621 158.899 147.944l7.95 111.36c.295 4.132 3.876 7.242 8.015 6.947 4.131-.296 7.242-3.884 6.947-8.016l-7.95-111.361c-2.727-38.149-17.727-73.887-42.666-102.342l-9.663-51.154c-4.178-22.115-17.494-40.901-36.789-52.13-2.17-10.478-11.471-18.378-22.583-18.378h-124.32c-11.105 0-20.401 7.89-22.578 18.358-19.314 11.227-32.643 30.023-36.824 52.15l-9.671 51.198c-24.917 28.45-39.901 64.171-42.627 102.299l-15.25 213.541c-2.804 39.289 29.822 74.454 69.32 74.454h239.58c39.392 0 72.131-35.06 69.321-74.454zm-271.27-403.014c3.985 6.919 11.457 11.588 19.999 11.588h42.68c4.142 0 7.5-3.357 7.5-7.5s-3.358-7.5-7.5-7.5h-42.68c-10.138 0-10.607-16.12 0-16.12h124.32c10.738 0 10.739 16.12 0 16.12h-48.95c-4.142 0-7.5 3.357-7.5 7.5s3.358 7.5 7.5 7.5h48.95c8.536 0 16.003-4.662 19.99-11.573 12.841 9.199 21.651 22.913 24.643 38.746l5.66 29.963c-31.449-26.581-71.057-41.126-112.453-41.126-41.415 0-81.038 14.555-112.488 41.155l5.665-29.991c2.993-15.843 11.812-29.563 24.664-38.762z"/><path d="m371.395 240.529c0-63.629-51.766-115.395-115.395-115.395s-115.395 51.766-115.395 115.395 51.766 115.395 115.395 115.395 115.395-51.766 115.395-115.395zm-115.395 100.395c-55.358 0-100.395-45.037-100.395-100.395s45.037-100.394 100.395-100.394 100.395 45.037 100.395 100.395-45.037 100.394-100.395 100.394z"/><path d="m333.566 249.505c-4.056-.861-8.036 1.719-8.901 5.77-6.861 32.145-35.739 55.476-68.665 55.476-38.72 0-70.22-31.5-70.22-70.22s31.5-70.221 70.22-70.221c32.895 0 61.769 23.309 68.657 55.424.869 4.05 4.858 6.636 8.906 5.76 4.05-.868 6.629-4.855 5.76-8.906-8.25-38.468-43.952-67.277-83.323-67.277-46.991 0-85.22 38.229-85.22 85.221 0 46.99 38.229 85.22 85.22 85.22 39.958 0 75.005-28.322 83.335-67.345.864-4.053-1.718-8.037-5.769-8.902z"/><path d="m124.251 434.608c0 16.98 13.815 30.796 30.797 30.796 16.981 0 30.796-13.815 30.796-30.796s-13.815-30.797-30.796-30.797c-16.982.001-30.797 13.816-30.797 30.797zm46.593 0c0 8.71-7.086 15.796-15.796 15.796s-15.797-7.086-15.797-15.796 7.086-15.797 15.797-15.797c8.71.001 15.796 7.087 15.796 15.797z"/><path d="m225.203 434.608c0 16.98 13.815 30.796 30.797 30.796s30.797-13.815 30.797-30.796-13.815-30.797-30.797-30.797-30.797 13.816-30.797 30.797zm46.594 0c0 8.71-7.086 15.796-15.797 15.796-8.71 0-15.797-7.086-15.797-15.796s7.086-15.797 15.797-15.797c8.71.001 15.797 7.087 15.797 15.797z"/><path d="m356.952 465.404c16.981 0 30.797-13.815 30.797-30.796s-13.815-30.797-30.797-30.797c-16.981 0-30.796 13.815-30.796 30.797 0 16.981 13.815 30.796 30.796 30.796zm0-46.592c8.71 0 15.797 7.087 15.797 15.797s-7.086 15.796-15.797 15.796c-8.71 0-15.796-7.086-15.796-15.796s7.086-15.797 15.796-15.797z"/><path d="m256 286.02c26.797 0 44.112-13.807 44.112-35.173 0-4.203-.663-8.509-1.972-12.821l1.651-28.823c.577-10.097-12.201-16.598-20.02-10.736l-10.02 7.515c-8.923-3.527-18.581-3.528-27.506.002l-10.022-7.518c-7.819-5.86-20.597.641-20.019 10.737l1.651 28.834c-1.307 4.31-1.968 8.611-1.968 12.811.001 21.365 17.315 35.172 44.113 35.172zm-27.089-47.455-1.426-24.904 9.347 7.011c2.341 1.756 5.491 1.989 8.065.599 7.232-3.908 14.974-3.908 22.202-.002 2.576 1.393 5.725 1.159 8.066-.598l9.346-7.01-1.426 24.894c-.055.956.074 1.914.38 2.822 1.093 3.245 1.647 6.432 1.647 9.47 0 18.718-22.283 20.173-29.112 20.173-6.83 0-29.112-1.455-29.112-20.173 0-3.035.553-6.219 1.644-9.461.305-.907.434-1.865.379-2.821z"/></g></svg>