<svg id="Capa_1" enable-background="new 0 0 512 512" height="512" viewBox="0 0 512 512" width="512" xmlns="http://www.w3.org/2000/svg"><g><path d="m488.857 62.122h-39.074v-8.029c0-12.635-10.278-22.913-22.913-22.913h-.221c-12.635 0-22.913 10.278-22.913 22.913v8.029h-16.047v-8.029c0-12.635-10.278-22.913-22.913-22.913h-.222c-12.635 0-22.913 10.278-22.913 22.913v8.029h-16.345c-3.806-34.873-33.454-62.122-69.296-62.122s-65.489 27.249-69.297 62.122h-16.344v-8.029c0-12.635-10.279-22.913-22.913-22.913h-.221c-12.634 0-22.913 10.278-22.913 22.913v8.029h-16.047v-8.029c0-12.635-10.279-22.913-22.913-22.913h-.221c-12.634 0-22.913 10.278-22.913 22.913v8.029h-39.075c-12.761 0-23.143 10.385-23.143 23.149s10.382 23.148 23.143 23.148h8.022v396.081c0 4.143 3.358 7.5 7.5 7.5h434.67c4.143 0 7.5-3.357 7.5-7.5v-263.158c0-4.143-3.357-7.5-7.5-7.5s-7.5 3.357-7.5 7.5v162.48h-54.599c-4.143 0-7.5 3.357-7.5 7.5v54.621h-255.594c-4.142 0-7.5 3.357-7.5 7.5s3.358 7.5 7.5 7.5h263.093c1.989 0 3.897-.791 5.305-2.197l49.295-49.313v67.567h-419.67v-16.057h69.313c4.142 0 7.5-3.357 7.5-7.5s-3.358-7.5-7.5-7.5h-69.313v-357.524h16.051v8.023c0 12.635 10.279 22.913 22.913 22.913h.221c12.634 0 22.913-10.278 22.913-22.913v-8.023h16.047v8.023c0 12.635 10.279 22.913 22.913 22.913 11.748-1.747 23.134-9.259 23.134-22.913v-8.023h69.31c4.142 0 7.5-3.357 7.5-7.5s-3.358-7.5-7.5-7.5h-11.182c2.598-4.454 4.088-9.63 4.088-15.147v-8.529c0-12.929 10.508-23.446 23.425-23.446 12.916 0 23.425 10.518 23.425 23.446v8.529c0 5.518 1.49 10.694 4.088 15.147h-11.181c-4.143 0-7.5 3.357-7.5 7.5s3.357 7.5 7.5 7.5h69.31v8.023c0 13.654 11.858 22.808 23.135 22.913 12.634.118 22.913-10.278 22.913-22.913v-8.023h16.047v8.023c0 12.635 10.278 22.913 22.913 22.913h.221c12.635 0 22.913-10.278 22.913-22.913v-8.023h16.052v100.236c0 4.143 3.357 7.5 7.5 7.5s7.5-3.357 7.5-7.5v-100.236h8.022c12.761 0 23.143-10.385 23.143-23.148s-10.381-23.149-23.142-23.149zm-33.626 356.7-36.495 36.509v-36.509zm-432.088-325.403c-4.49 0-8.143-3.655-8.143-8.148s3.653-8.148 8.143-8.148h39.074v16.297h-39.074zm70.121 23.023c0 4.363-3.55 7.913-7.913 7.913h-.221c-4.363 0-7.913-3.55-7.913-7.913v-62.35c0-4.363 3.55-7.913 7.913-7.913h.221c4.363 0 7.913 3.55 7.913 7.913zm15-23.023v-16.297h16.047v16.297zm39.181 30.936c-4.099-.542-8.134-3.14-8.134-7.913v-62.35c0-4.363 3.55-7.913 7.913-7.913h.221c4.363 0 7.913 3.55 7.913 7.913v62.35c0 4.364-3.549 7.913-7.913 7.913zm162.119-30.936c-8.348 0-15.14-6.795-15.14-15.147v-8.529c0-21.199-17.237-38.446-38.425-38.446s-38.425 17.247-38.425 38.446v8.529c0 8.353-6.791 15.147-15.139 15.147h-32.078v-16.297h23.432c4.137 0 7.493-3.35 7.5-7.487.054-30.126 24.597-54.635 54.711-54.635 30.115 0 54.657 24.509 54.71 54.635.007 4.138 3.363 7.487 7.5 7.487h23.432v16.297zm63.125 23.023c0 4.363-3.55 7.913-7.913 7.913-4.099-.542-8.135-3.14-8.135-7.913v-62.35c0-4.363 3.55-7.913 7.913-7.913h.222c4.363 0 7.913 3.55 7.913 7.913zm15-23.023v-16.297h16.047v16.297zm39.181 30.936h-.221c-4.363 0-7.913-3.55-7.913-7.913v-62.35c0-4.363 3.55-7.913 7.913-7.913h.221c4.363 0 7.913 3.55 7.913 7.913v62.35c0 4.364-3.55 7.913-7.913 7.913zm61.987-30.936h-39.074v-16.297h39.074c4.49 0 8.143 3.655 8.143 8.148s-3.652 8.149-8.143 8.149z"/><path d="m170.358 193.942c0-4.143-3.358-7.5-7.5-7.5h-62.095c-4.142 0-7.5 3.357-7.5 7.5v62.117c0 4.143 3.358 7.5 7.5 7.5h62.095c4.142 0 7.5-3.357 7.5-7.5zm-15 54.618h-47.095v-47.117h47.095z"/><path d="m287.047 263.56c4.143 0 7.5-3.357 7.5-7.5v-62.117c0-4.143-3.357-7.5-7.5-7.5h-62.094c-4.142 0-7.5 3.357-7.5 7.5v62.117c0 4.143 3.358 7.5 7.5 7.5zm-54.594-62.118h47.094v47.117h-47.094z"/><path d="m418.736 193.942c0-4.143-3.357-7.5-7.5-7.5h-62.095c-4.143 0-7.5 3.357-7.5 7.5v62.117c0 4.143 3.357 7.5 7.5 7.5h62.095c4.143 0 7.5-3.357 7.5-7.5zm-15 54.618h-47.095v-47.117h47.095z"/><path d="m162.858 310.647h-62.095c-4.142 0-7.5 3.357-7.5 7.5v62.116c0 4.143 3.358 7.5 7.5 7.5h62.095c4.142 0 7.5-3.357 7.5-7.5v-62.116c0-4.142-3.358-7.5-7.5-7.5zm-7.5 62.117h-47.095v-47.116h47.095z"/><path d="m411.236 310.647h-62.095c-4.143 0-7.5 3.357-7.5 7.5v62.116c0 4.143 3.357 7.5 7.5 7.5h62.095c4.143 0 7.5-3.357 7.5-7.5v-62.116c0-4.142-3.357-7.5-7.5-7.5zm-7.5 62.117h-47.095v-47.116h47.095z"/><path d="m256 417.177c40.38 0 66.472-20.446 66.472-52.09 0-6.565-1.081-13.319-3.216-20.096l2.706-47.27c.72-12.572-15.191-20.669-24.926-13.367l-18.237 13.684c-15.201-6.583-30.401-6.582-45.602.002l-18.241-13.687c-9.736-7.302-25.645.8-24.925 13.369l2.708 47.288c-2.13 6.769-3.21 13.516-3.21 20.076-.001 31.644 26.091 52.091 66.471 52.091zm-48.206-71.616-2.788-48.695c-.004-.063 22.867 15.933 22.867 15.933 2.342 1.758 5.493 1.991 8.068.599 12.995-7.026 27.121-7.027 40.113-.002 2.578 1.392 5.727 1.158 8.068-.599 0 0 22.867-15.994 22.864-15.931l-2.787 48.677c-.055.956.073 1.913.379 2.82 1.919 5.705 2.893 11.332 2.893 16.725 0 34.415-39.397 37.09-51.472 37.09s-51.472-2.675-51.472-37.09c0-5.389.971-11.01 2.887-16.707.307-.908.435-1.865.38-2.82z"/></g></svg>