<svg id="Capa_1" enable-background="new 0 0 512 512" height="512" viewBox="0 0 512 512" width="512" xmlns="http://www.w3.org/2000/svg"><g><path d="m204.171 135.094c29.693 0 48.88-15.221 48.88-38.777 0-4.707-.752-9.535-2.237-14.373l1.876-32.75c.61-10.625-12.84-17.464-21.065-11.297l-11.765 8.823c-10.174-4.167-21.208-4.165-31.38.002l-11.768-8.826c-8.226-6.167-21.675.674-21.064 11.298l1.876 32.764c-1.482 4.833-2.232 9.656-2.232 14.359-.001 23.556 19.186 38.777 48.879 38.777zm-31.593-52.602-1.731-30.245 12.246 9.185c2.342 1.757 5.491 1.991 8.066.598 8.458-4.571 17.562-4.571 26.021-.001 2.577 1.392 5.725 1.158 8.065-.599l12.244-9.183-1.731 30.232c-.056.956.073 1.914.38 2.822 1.269 3.769 1.912 7.475 1.912 11.015 0 22.062-25.932 23.777-33.88 23.777s-33.88-1.715-33.88-23.777c0-3.537.643-7.239 1.908-11.005.307-.907.435-1.864.38-2.819z"/><path d="m281.537 127.437h67.672c4.143 0 7.5-3.357 7.5-7.5s-3.357-7.5-7.5-7.5h-67.672c-4.143 0-7.5 3.357-7.5 7.5s3.358 7.5 7.5 7.5z"/><path d="m281.537 96.367h67.665c4.143 0 7.5-3.357 7.5-7.5v-31.07c0-4.143-3.357-7.5-7.5-7.5h-67.665c-4.143 0-7.5 3.357-7.5 7.5v31.07c0 4.143 3.358 7.5 7.5 7.5zm7.5-31.07h52.665v16.07h-52.665z"/><path d="m457.949 465.933h-8.03v-272.132c0-4.143-3.357-7.5-7.5-7.5h-27.964l-26.675-26.677v-69.944c0-4.143-3.357-7.5-7.5-7.5s-7.5 3.357-7.5 7.5v65.551h-233.56v-140.231h233.56v41.982c0 4.143 3.357 7.5 7.5 7.5s7.5-3.357 7.5-7.5v-49.482c0-4.143-3.357-7.5-7.5-7.5h-248.56c-4.143 0-7.5 3.357-7.5 7.5v152.124l-26.675 26.677h-27.964c-4.143 0-7.5 3.357-7.5 7.5v272.132h-8.03c-4.143 0-7.5 3.357-7.5 7.5v31.067c0 4.143 3.357 7.5 7.5 7.5h226.625c4.143 0 7.5-3.357 7.5-7.5s-3.357-7.5-7.5-7.5h-219.125v-16.067h388.898v16.067h-137.075c-4.143 0-7.5 3.357-7.5 7.5s3.357 7.5 7.5 7.5h144.575c4.143 0 7.5-3.357 7.5-7.5v-31.067c0-4.143-3.357-7.5-7.5-7.5zm-295.151-76.87c-4.143 0-7.5 3.357-7.5 7.5v69.365h-78.217v-179.478c16.783 12.994 41.883 9.634 54.64-7.681 15.213 20.649 46.927 20.649 62.14 0 15.213 20.649 46.926 20.65 62.139 0 15.213 20.649 46.926 20.649 62.139 0 15.213 20.649 46.927 20.649 62.14 0 12.757 17.315 37.857 20.675 54.64 7.681v179.479h-78.217v-155.616c0-4.143-3.357-7.5-7.5-7.5h-186.404c-4.143 0-7.5 3.357-7.5 7.5v53.562c0 4.143 3.357 7.5 7.5 7.5s7.5-3.357 7.5-7.5v-46.062h78.202v148.115h-78.202v-69.365c0-4.142-3.358-7.5-7.5-7.5zm23.562-156.693v23.57c0 12.996-10.573 23.569-23.569 23.569-12.997 0-23.57-10.573-23.57-23.569v-23.57zm62.14 0v23.57c0 12.996-10.573 23.569-23.569 23.569-12.997 0-23.57-10.573-23.57-23.569v-23.57zm62.14 0v23.57c0 12.996-10.573 23.569-23.57 23.569-12.996 0-23.569-10.573-23.569-23.569v-23.57zm62.139 0v23.57c0 12.996-10.573 23.569-23.57 23.569-12.996 0-23.569-10.573-23.569-23.569v-23.57zm62.14 0v23.57c0 12.996-10.573 23.569-23.57 23.569-12.996 0-23.569-10.573-23.569-23.569v-23.57zm-310.698 23.57c0 12.996-10.573 23.569-23.569 23.569-12.997 0-23.57-10.573-23.57-23.569v-23.57h47.14v23.57zm217.481 61.873v148.115h-78.202v-148.115zm-206.992-147.465h242.58l15.952 15.953h-274.484zm-57.629 30.953h357.838v16.069h-357.838z"/></g></svg>