<svg id="Capa_1" enable-background="new 0 0 512 512" height="512" viewBox="0 0 512 512" width="512" xmlns="http://www.w3.org/2000/svg"><g><path d="m85.157 294.635h155.312c4.142 0 7.5-3.357 7.5-7.5v-155.313c0-4.143-3.358-7.5-7.5-7.5h-155.312c-4.142 0-7.5 3.357-7.5 7.5v155.312c0 4.143 3.358 7.501 7.5 7.501zm7.5-155.313h140.312v140.312h-140.312z"/><path d="m271.53 294.631h155.311c4.142 0 7.5-3.357 7.5-7.5v-61.31c0-4.143-3.358-7.5-7.5-7.5s-7.5 3.357-7.5 7.5v53.81h-140.311v-140.311h140.311v53.811c0 4.143 3.358 7.5 7.5 7.5s7.5-3.357 7.5-7.5v-61.311c0-4.143-3.358-7.5-7.5-7.5h-155.311c-4.142 0-7.5 3.357-7.5 7.5v155.311c0 4.142 3.358 7.5 7.5 7.5z"/><path d="m240.47 310.682h-155.311c-4.142 0-7.5 3.357-7.5 7.5v155.311c0 4.143 3.358 7.5 7.5 7.5h155.311c4.142 0 7.5-3.357 7.5-7.5v-59.86c0-4.143-3.358-7.5-7.5-7.5s-7.5 3.357-7.5 7.5v52.36h-140.311v-140.311h140.311v55.27c0 4.143 3.358 7.5 7.5 7.5s7.5-3.357 7.5-7.5v-62.77c0-4.143-3.358-7.5-7.5-7.5z"/><path d="m271.53 480.988h155.312c4.142 0 7.5-3.357 7.5-7.5v-155.311c0-4.143-3.358-7.5-7.5-7.5h-155.312c-4.142 0-7.5 3.357-7.5 7.5v155.312c0 4.142 3.358 7.499 7.5 7.499zm7.5-155.311h140.312v140.312h-140.312z"/><path d="m480.717 98.96-15.54-62.12c-.835-3.338-3.835-5.68-7.276-5.68h-39.09v-23.66c0-4.143-3.358-7.5-7.5-7.5h-93.19c-4.142 0-7.5 3.357-7.5 7.5v23.66h-131.461c-4.142 0-7.5 3.357-7.5 7.5s3.358 7.5 7.5 7.5h138.96c4.142 0 7.5-3.357 7.5-7.5v-23.66h78.19v23.66c0 4.143 3.358 7.5 7.5 7.5h40.735l11.788 47.12h-415.666l11.788-47.12h86.516c4.142 0 7.5-3.357 7.5-7.5s-3.358-7.5-7.5-7.5h-92.372c-3.441 0-6.441 2.342-7.276 5.68l-15.54 62.12c-.607 5.474 1.818 8.581 7.276 9.32h8.036v396.22c0 4.143 3.358 7.5 7.5 7.5h403.811c4.142 0 7.5-3.357 7.5-7.5v-396.22h8.036c5.456-.739 7.882-3.846 7.275-9.32zm-30.312 398.04h-388.81v-388.72h388.811v388.72z"/><path d="m215.372 169.909c.634-11.072-13.384-18.211-21.959-11.776l-13.261 9.945c-11.237-4.716-23.447-4.715-34.682.001l-13.26-9.944c-8.575-6.438-22.596.701-21.962 11.774l2.069 36.122c-1.632 5.28-2.459 10.55-2.459 15.684 0 25.428 20.786 41.857 52.955 41.857s52.955-16.43 52.955-41.857c0-5.138-.829-10.412-2.464-15.698zm-52.559 78.663c-8.904 0-37.955-1.937-37.955-26.857 0-3.966.718-8.112 2.135-12.323.305-.907.434-1.864.379-2.82l-1.994-34.81 14.723 11.042c2.341 1.756 5.491 1.99 8.066.598 9.507-5.14 19.773-5.141 29.286-.001 2.576 1.391 5.724 1.159 8.065-.599l14.721-11.041-1.993 34.797c-.055.956.074 1.914.38 2.822 1.42 4.217 2.14 8.366 2.14 12.335.002 24.921-29.049 26.857-37.953 26.857z"/><path d="m349.186 263.572c32.168 0 52.955-16.43 52.955-41.857 0-5.138-.829-10.412-2.464-15.698l2.068-36.107c.634-11.072-13.384-18.211-21.959-11.776l-13.261 9.945c-11.238-4.717-23.447-4.714-34.682.001l-13.26-9.945c-8.576-6.433-22.596.7-21.961 11.775l2.069 36.122c-1.632 5.282-2.459 10.551-2.459 15.684-.001 25.427 20.786 41.856 52.954 41.856zm-35.44-57.001-1.994-34.81 14.723 11.042c2.342 1.756 5.491 1.99 8.066.598 9.507-5.14 19.773-5.141 29.287-.001 2.576 1.391 5.723 1.159 8.065-.599l14.721-11.04-1.993 34.796c-.055.956.074 1.914.38 2.822 1.42 4.217 2.14 8.366 2.14 12.335 0 24.921-29.051 26.857-37.955 26.857s-37.955-1.937-37.955-26.857c0-3.965.718-8.11 2.136-12.324.305-.907.434-1.864.379-2.819z"/><path d="m162.813 449.936c32.168 0 52.955-16.43 52.955-41.856 0-5.139-.828-10.413-2.464-15.698l2.068-36.108c.635-11.077-13.384-18.203-21.959-11.776l-13.261 9.946c-11.561-4.733-23.121-4.733-34.682.001l-13.263-9.947c-8.575-6.432-22.593.704-21.958 11.776l2.069 36.123c-1.632 5.28-2.459 10.55-2.459 15.684-.001 25.425 20.786 41.855 52.954 41.855zm-35.44-57-1.994-34.811 14.723 11.043c2.341 1.757 5.491 1.99 8.066.598 9.508-5.141 19.779-5.139 29.285-.002 2.574 1.393 5.725 1.159 8.066-.598l14.721-11.041-1.993 34.797c-.055.956.074 1.914.38 2.822 1.42 4.216 2.14 8.365 2.14 12.335 0 24.92-29.051 26.856-37.955 26.856s-37.955-1.937-37.955-26.856c0-3.966.718-8.112 2.135-12.323.307-.907.436-1.864.381-2.82z"/><path d="m401.745 356.272c.635-11.077-13.384-18.203-21.959-11.776l-13.26 9.946c-11.234-4.716-23.447-4.715-34.682.001l-13.265-9.948c-8.575-6.427-22.592.703-21.958 11.777l2.069 36.123c-1.632 5.282-2.459 10.551-2.459 15.684 0 25.427 20.786 41.856 52.955 41.856s52.955-16.43 52.955-41.856c0-5.139-.828-10.413-2.464-15.698zm-52.559 78.664c-8.904 0-37.955-1.937-37.955-26.856 0-3.965.718-8.11 2.136-12.324.305-.907.434-1.864.379-2.819l-1.994-34.811 14.723 11.043c2.342 1.757 5.491 1.99 8.066.598 9.509-5.141 19.779-5.139 29.286-.002 2.576 1.393 5.726 1.158 8.066-.598l14.721-11.041-1.993 34.797c-.055.956.074 1.914.38 2.822 1.42 4.216 2.14 8.365 2.14 12.335 0 24.919-29.051 26.856-37.955 26.856z"/></g></svg>