<svg id="Capa_1" enable-background="new 0 0 512 512" height="512" viewBox="0 0 512 512" width="512" xmlns="http://www.w3.org/2000/svg"><g><path d="m279.03 124.638v-16.448h8.029c4.142 0 7.5-3.357 7.5-7.5v-93.19c0-4.143-3.358-7.5-7.5-7.5h-61.31c-4.142 0-7.5 3.357-7.5 7.5s3.358 7.5 7.5 7.5h53.81v78.19l-16.06-.002v-54.624c0-4.143-3.358-7.5-7.5-7.5s-7.5 3.357-7.5 7.5v54.624h-31.593v-54.624c0-4.143-3.358-7.5-7.5-7.5s-7.5 3.357-7.5 7.5v54.624h-31.593v-54.624c0-4.143-3.358-7.5-7.5-7.5s-7.5 3.357-7.5 7.5v54.624l-16.063.002v-78.19h53.81c4.142 0 7.5-3.357 7.5-7.5s-3.358-7.5-7.5-7.5h-61.31c-4.142 0-7.5 3.357-7.5 7.5v93.19c0 4.143 3.358 7.5 7.5 7.5h8.032v16.449c-34.867 3.696-62.122 33.28-62.122 69.111v279.75c0 21.229 17.271 38.5 38.5 38.5h186.5c21.229 0 38.5-17.271 38.5-38.5v-172.95c0-4.143-3.358-7.5-7.5-7.5s-7.5 3.357-7.5 7.5v134.32h-159.41c-4.142 0-7.5 3.357-7.5 7.5s3.358 7.5 7.5 7.5h159.41v23.63c0 12.958-10.542 23.5-23.5 23.5h-186.5c-12.958 0-23.5-10.542-23.5-23.5v-23.63h41.4c4.142 0 7.5-3.357 7.5-7.5s-3.358-7.5-7.5-7.5h-41.4v-202.432h233.5v35.433c0 4.143 3.358 7.5 7.5 7.5s7.5-3.357 7.5-7.5v-74.12c-.001-35.834-27.26-65.42-62.13-69.113zm-15-16.448v16.06h-109.249v-16.06zm62.129 109.248h-233.5v-23.688c0-30.052 24.449-54.5 54.5-54.5l124.371.001c.026 0 .052-.001.077-.001h.051c30.051 0 54.5 24.448 54.5 54.5v23.688z"/><path d="m395.779 341.687c-21.263 0-38.562 17.299-38.562 38.562v93.187c0 21.264 17.299 38.562 38.562 38.562s38.562-17.299 38.562-38.562v-93.187c0-21.264-17.299-38.562-38.562-38.562zm0 15c12.992 0 23.562 10.57 23.562 23.562v39.094h-47.125v-39.094c.001-12.992 10.571-23.562 23.563-23.562zm0 140.311c-12.992 0-23.562-10.57-23.562-23.562v-39.093h47.125v39.093c-.001 12.992-10.571 23.562-23.563 23.562z"/><path d="m209.406 404.792c40.397 0 66.5-20.449 66.5-52.096 0-6.568-1.082-13.322-3.218-20.099l2.708-47.273c.72-12.575-15.194-20.668-24.931-13.37l-18.25 13.688c-15.208-6.585-30.416-6.585-45.624.002l-18.254-13.69c-9.737-7.298-25.649.798-24.93 13.371l2.709 47.293c-2.132 6.769-3.211 13.516-3.211 20.079.001 31.646 26.104 52.095 66.501 52.095zm-48.233-71.624-2.79-48.701c-.004-.063 22.885 15.935 22.885 15.935 2.342 1.757 5.491 1.991 8.066.598 13.004-7.027 27.136-7.028 40.138-.002 2.576 1.393 5.725 1.159 8.066-.598 0 0 22.886-15.996 22.882-15.933l-2.789 48.683c-.055.956.074 1.914.38 2.822 1.92 5.703 2.894 11.33 2.894 16.725 0 34.421-39.418 37.096-51.5 37.096s-51.5-2.675-51.5-37.096c0-5.39.972-11.012 2.888-16.708.306-.908.435-1.866.38-2.821z"/><path d="m271.53 186.376h-124.249c-4.142 0-7.5 3.357-7.5 7.5s3.358 7.5 7.5 7.5h124.249c4.142 0 7.5-3.357 7.5-7.5s-3.358-7.5-7.5-7.5z"/><path d="m240.468 480.936c4.142 0 7.5-3.357 7.5-7.5s-3.358-7.5-7.5-7.5h-62.125c-4.142 0-7.5 3.357-7.5 7.5s3.358 7.5 7.5 7.5z"/></g></svg>