<svg id="Capa_1" enable-background="new 0 0 512 512" height="512" viewBox="0 0 512 512" width="512" xmlns="http://www.w3.org/2000/svg"><g><path d="m434.342 442.373c0-.078-.002-.155-.004-.232v-434.641c0-4.143-3.357-7.5-7.5-7.5h-226.6c-4.142 0-7.5 3.357-7.5 7.5s3.358 7.5 7.5 7.5h219.1v419.873h-54.621c-4.143 0-7.5 3.357-7.5 7.5v54.627h-264.559v-482h74.89c4.142 0 7.5-3.357 7.5-7.5s-3.358-7.5-7.5-7.5h-82.39c-4.142 0-7.5 3.357-7.5 7.5v497c0 4.143 3.358 7.5 7.5 7.5h279.56c1.977 0 3.898-.79 5.304-2.197l61.933-61.942c1.468-1.37 2.387-3.321 2.387-5.488zm-25.612 7.5-36.513 36.519v-36.519z"/><path d="m395.779 31.06h-279.561c-4.142 0-7.5 3.357-7.5 7.5v124.25c0 4.143 3.358 7.5 7.5 7.5h279.561c4.143 0 7.5-3.357 7.5-7.5v-45.78c0-4.143-3.357-7.5-7.5-7.5s-7.5 3.357-7.5 7.5v38.279h-264.561v-109.249h264.561v38.29c0 4.143 3.357 7.5 7.5 7.5s7.5-3.357 7.5-7.5v-45.79c0-4.143-3.358-7.5-7.5-7.5z"/><path d="m403.279 411.31v-93.19c0-4.143-3.357-7.5-7.5-7.5h-279.561c-4.142 0-7.5 3.357-7.5 7.5v93.189c0 4.143 3.358 7.5 7.5 7.5h152.92c4.143 0 7.5-3.357 7.5-7.5s-3.357-7.5-7.5-7.5h-145.42v-78.189h264.561v78.189h-86.45c-4.143 0-7.5 3.357-7.5 7.5s3.357 7.5 7.5 7.5h93.95c4.142.001 7.5-3.357 7.5-7.499z"/><path d="m183.893 145.719c26.797 0 44.112-13.807 44.112-35.174 0-4.203-.663-8.509-1.972-12.821l1.651-28.823c.577-10.094-12.2-16.602-20.02-10.736l-10.02 7.516c-8.921-3.528-18.581-3.528-27.506.001l-10.021-7.517c-7.82-5.864-20.597.641-20.02 10.736l1.652 28.835c-1.307 4.309-1.968 8.611-1.968 12.81 0 21.366 17.315 35.173 44.112 35.173zm-27.089-47.455-1.426-24.904 9.347 7.011c2.341 1.756 5.49 1.99 8.065.599 7.23-3.908 14.976-3.906 22.202-.002 2.576 1.393 5.725 1.159 8.066-.598l9.346-7.01-1.426 24.894c-.055.956.074 1.914.38 2.822 1.093 3.245 1.647 6.432 1.647 9.47 0 18.719-22.283 20.174-29.112 20.174s-29.112-1.455-29.112-20.174c0-3.035.553-6.219 1.644-9.462.305-.908.434-1.865.379-2.82z"/><path d="m255.999 77.127h62.125c4.143 0 7.5-3.357 7.5-7.5s-3.357-7.5-7.5-7.5h-62.125c-4.142 0-7.5 3.357-7.5 7.5s3.358 7.5 7.5 7.5z"/><path d="m364.717 124.251h-108.718c-4.142 0-7.5 3.357-7.5 7.5s3.358 7.5 7.5 7.5h108.718c4.143 0 7.5-3.357 7.5-7.5s-3.357-7.5-7.5-7.5z"/><path d="m364.717 93.188h-108.718c-4.142 0-7.5 3.357-7.5 7.5s3.358 7.5 7.5 7.5h108.718c4.143 0 7.5-3.357 7.5-7.5s-3.357-7.5-7.5-7.5z"/><path d="m116.219 201.376h77.656c4.142 0 7.5-3.357 7.5-7.5s-3.358-7.5-7.5-7.5h-77.656c-4.142 0-7.5 3.357-7.5 7.5s3.358 7.5 7.5 7.5z"/><path d="m395.78 186.376h-155.312c-4.142 0-7.5 3.357-7.5 7.5s3.358 7.5 7.5 7.5h155.312c4.143 0 7.5-3.357 7.5-7.5s-3.358-7.5-7.5-7.5z"/><path d="m116.219 232.438h77.656c4.142 0 7.5-3.357 7.5-7.5s-3.358-7.5-7.5-7.5h-77.656c-4.142 0-7.5 3.357-7.5 7.5s3.358 7.5 7.5 7.5z"/><path d="m395.78 217.438h-155.312c-4.142 0-7.5 3.357-7.5 7.5s3.358 7.5 7.5 7.5h155.312c4.143 0 7.5-3.357 7.5-7.5s-3.358-7.5-7.5-7.5z"/><path d="m116.219 263.5h77.656c4.142 0 7.5-3.357 7.5-7.5s-3.358-7.5-7.5-7.5h-77.656c-4.142 0-7.5 3.357-7.5 7.5s3.358 7.5 7.5 7.5z"/><path d="m395.78 248.5h-155.312c-4.142 0-7.5 3.357-7.5 7.5s3.358 7.5 7.5 7.5h155.312c4.143 0 7.5-3.357 7.5-7.5s-3.358-7.5-7.5-7.5z"/><path d="m116.219 294.562h77.656c4.142 0 7.5-3.357 7.5-7.5s-3.358-7.5-7.5-7.5h-77.656c-4.142 0-7.5 3.357-7.5 7.5s3.358 7.5 7.5 7.5z"/><path d="m395.78 279.562h-155.312c-4.142 0-7.5 3.357-7.5 7.5s3.358 7.5 7.5 7.5h155.312c4.143 0 7.5-3.357 7.5-7.5s-3.358-7.5-7.5-7.5z"/><path d="m147.281 341.687c-4.142 0-7.5 3.357-7.5 7.5s3.358 7.5 7.5 7.5h46.593c4.142 0 7.5-3.357 7.5-7.5s-3.358-7.5-7.5-7.5z"/><path d="m372.217 349.187c0-4.143-3.357-7.5-7.5-7.5h-124.249c-4.142 0-7.5 3.357-7.5 7.5s3.358 7.5 7.5 7.5h124.249c4.143 0 7.5-3.358 7.5-7.5z"/><path d="m271.531 387.749h93.187c4.143 0 7.5-3.357 7.5-7.5s-3.357-7.5-7.5-7.5h-93.187c-4.143 0-7.5 3.357-7.5 7.5s3.357 7.5 7.5 7.5z"/><path d="m240.468 434.873c-4.142 0-7.5 3.357-7.5 7.5s3.358 7.5 7.5 7.5h93.187c4.143 0 7.5-3.357 7.5-7.5s-3.357-7.5-7.5-7.5z"/></g></svg>