<svg id="Capa_1" enable-background="new 0 0 512 512" height="512" viewBox="0 0 512 512" width="512" xmlns="http://www.w3.org/2000/svg"><g><path d="m458.441 248.5h-8.971c-3.511-32.632-29.664-58.584-62.386-61.787-2.93-15.53-15.196-27.802-30.721-30.734-.778-8.039-2.937-15.798-6.445-23.143-1.787-3.738-6.266-5.318-10.001-3.534-3.737 1.786-5.319 6.264-3.534 10.001 2.558 5.352 4.199 10.988 4.907 16.823-17.488 3.654-30.664 19.191-30.664 37.749 0 4.143 3.357 7.5 7.5 7.5s7.5-3.357 7.5-7.5c0-12.992 10.57-23.562 23.562-23.562.052 0 .103-.001.155-.002 12.922.082 23.409 10.623 23.409 23.569 0 4.143 3.357 7.5 7.5 7.5 27.573 0 50.44 20.539 54.107 47.12h-263.77c-4.143 0-7.5 3.357-7.5 7.5s3.357 7.5 7.5 7.5h287.853c4.136 0 7.5 3.364 7.5 7.5v16.59c0 4.136-3.364 7.501-7.5 7.501h-404.883c-4.136 0-7.5-3.365-7.5-7.501v-16.59c0-4.136 3.364-7.5 7.5-7.5h84.351c4.143 0 7.5-3.357 7.5-7.5s-3.357-7.5-7.5-7.5h-61.072c1.837-28.035 21.626-57.17 53.771-44.391 4.827 1.32 8.163-.346 10.007-4.998 5.901-21.656 29.818-34.068 50.846-26.541 6.156 1.073 9.489-1.504 9.998-7.732-1.209-13.59 9.717-25.588 23.479-25.588 12.992 0 23.562 10.57 23.562 23.562 0 4.143 3.357 7.5 7.5 7.5s7.5-3.357 7.5-7.5c0-14.356-7.886-26.904-19.552-33.542 17.167-22.046 50.511-27.406 73.661-11.75 3.432 2.321 8.095 1.421 10.414-2.01 2.321-3.431 1.421-8.094-2.01-10.414-31.426-21.26-76.196-12.231-97.062 19.359-19.789-2.049-38.446 11.863-41.969 31.541-23.696-3.812-48.655 9.777-58.258 31.831-39.818-9.429-64.832 24.456-66.915 60.672h-8.251c-12.406 0-22.5 10.094-22.5 22.5v16.59c0 9.979 6.53 18.461 15.54 21.399v71.452c0 52.926 41.124 96.427 93.096 100.229v23.831c0 4.143 3.357 7.5 7.5 7.5h62.312c4.143 0 7.5-3.357 7.5-7.5v-23.559h77.993v23.559c0 4.143 3.357 7.5 7.5 7.5h62.312c4.143 0 7.5-3.357 7.5-7.5v-23.826c51.544-3.735 92.744-47.855 93.079-99.564.026-4.143-3.31-7.521-7.451-7.549h-.05c-4.119 0-7.473 3.326-7.499 7.451-.302 46.786-38.581 84.857-85.358 84.929-.073-.002-217.987-.002-218.06 0-47.088-.069-85.374-38.397-85.374-85.5v-70.231h388.803v38.161c0 4.143 3.357 7.5 7.5 7.5s7.5-3.357 7.5-7.5v-39.382c9.01-2.938 15.54-11.42 15.54-21.399v-16.59c-.001-12.406-10.094-22.5-22.501-22.5zm-256.434 248.5h-47.312v-16.059h47.312zm107.993 0v-16.059h47.312v16.059z"/><path d="m162.819 139.25c12.699 0 23.031-10.332 23.031-23.031s-10.332-23.031-23.031-23.031-23.031 10.332-23.031 23.031 10.332 23.031 23.031 23.031zm0-31.062c4.429 0 8.031 3.603 8.031 8.031s-3.603 8.031-8.031 8.031-8.031-3.603-8.031-8.031 3.603-8.031 8.031-8.031z"/><path d="m248.234 77.125c16.981 0 30.797-13.815 30.797-30.797s-13.815-30.797-30.797-30.797-30.797 13.815-30.797 30.797 13.816 30.797 30.797 30.797zm0-46.594c8.71 0 15.797 7.087 15.797 15.797s-7.087 15.797-15.797 15.797-15.797-7.087-15.797-15.797 7.087-15.797 15.797-15.797z"/><path d="m100.688 92.656c12.699 0 23.031-10.332 23.031-23.031s-10.332-23.031-23.031-23.031-23.032 10.332-23.032 23.031 10.332 23.031 23.032 23.031zm0-31.062c4.429 0 8.031 3.603 8.031 8.031s-3.603 8.031-8.031 8.031-8.031-3.603-8.031-8.031 3.602-8.031 8.031-8.031z"/><path d="m388.016 92.656c25.546 0 46.328-20.782 46.328-46.328s-20.782-46.328-46.328-46.328-46.328 20.782-46.328 46.328 20.782 46.328 46.328 46.328zm0-77.656c17.274 0 31.328 14.054 31.328 31.328s-14.054 31.328-31.328 31.328-31.328-14.054-31.328-31.328 14.053-31.328 31.328-31.328z"/><path d="m393.016 61.355c8.287 0 15.028-6.741 15.028-15.027 0-4.143-3.372-7.486-7.515-7.486-4.142 0-7.514 3.371-7.514 7.514-4.143 0-7.5 3.357-7.5 7.5s3.358 7.499 7.501 7.499z"/><path d="m256 450.524c36.964 0 60.848-18.771 60.848-47.823 0-5.971-.977-12.107-2.903-18.263l2.44-42.612c.688-11.948-14.44-19.644-23.69-12.705l-16.165 12.124c-13.688-5.81-27.376-5.81-41.063.001l-16.163-12.122c-9.251-6.947-24.379.754-23.694 12.701l2.441 42.632c-1.923 6.149-2.897 12.28-2.897 18.244-.002 29.052 23.882 47.823 60.846 47.823zm-43.273-62.702c.306-.907.434-1.864.379-2.819l-2.5-43.652 19.521 14.642c2.342 1.758 5.491 1.99 8.066.598 11.542-6.239 24.061-6.24 35.61-.001 2.577 1.392 5.725 1.158 8.065-.599l19.519-14.64-2.499 43.636c-.056.956.073 1.914.379 2.822 1.712 5.084 2.58 10.094 2.58 14.893 0 30.456-35.093 32.823-45.848 32.823s-45.848-2.367-45.848-32.823c.001-4.794.868-9.8 2.576-14.88z"/><path d="m162.819 357.219h-62.132c-4.143 0-7.5 3.357-7.5 7.5s3.357 7.5 7.5 7.5h62.132c4.143 0 7.5-3.357 7.5-7.5s-3.357-7.5-7.5-7.5z"/><path d="m162.819 388.281h-62.132c-4.143 0-7.5 3.357-7.5 7.5s3.357 7.5 7.5 7.5h62.132c4.143 0 7.5-3.357 7.5-7.5s-3.357-7.5-7.5-7.5z"/><path d="m411.312 357.219h-62.132c-4.143 0-7.5 3.357-7.5 7.5s3.357 7.5 7.5 7.5h62.132c4.143 0 7.5-3.357 7.5-7.5s-3.357-7.5-7.5-7.5z"/><path d="m411.312 388.281h-62.132c-4.143 0-7.5 3.357-7.5 7.5s3.357 7.5 7.5 7.5h62.132c4.143 0 7.5-3.357 7.5-7.5s-3.357-7.5-7.5-7.5z"/></g></svg>