<svg id="Capa_1" enable-background="new 0 0 512 512" height="512" viewBox="0 0 512 512" width="512" xmlns="http://www.w3.org/2000/svg"><path d="m504.5 104.382h-54.63v-14.94c0-24.701-23.882-43.329-47.84-37.347l-23.6 5.9c-.97.243-1.882.677-2.682 1.277l-60.129 45.109h-43.28c-4.143 0-7.5 3.357-7.5 7.5s3.357 7.5 7.5 7.5h38.28v78.189h-31.59v-8.03c-1.318-14.035-8.995-21.711-23.03-23.029-12.699 0-23.03 10.331-23.03 23.029v8.03h-31.594v-78.189h38.284c4.143 0 7.5-3.357 7.5-7.5s-3.357-7.5-7.5-7.5h-43.29l-60.118-45.107c-.8-.601-1.712-1.034-2.682-1.277l-23.605-5.901c-23.96-5.991-47.838 12.653-47.838 37.351v14.936h-54.626c-4.143 0-7.5 3.357-7.5 7.5v93.189c0 4.143 3.357 7.5 7.5 7.5h54.627v14.902c0 24.506 24.438 43.193 47.838 37.351l23.605-5.901c.97-.243 1.881-.677 2.681-1.276l60.102-45.075h36.617v49.781c-31.175 7.339-57.523 29.292-70.014 59.476h-.147c-12.696 0-23.026 10.33-23.026 23.026 0 10.146 6.597 18.779 15.726 21.839 3.286 52.536 47.051 94.283 100.379 94.337.035 0 .069.001.104.001.033 0 .067-.001.1-.001 24.757-.024 48.544-9.121 66.99-25.62 3.088-2.762 3.352-7.503.59-10.59-2.761-3.086-7.502-3.354-10.59-.59-13.844 12.383-31.225 19.865-49.59 21.472v-16.971c9.028-3.118 15.531-11.702 15.531-21.776 0-12.699-10.332-23.031-23.031-23.031s-23.031 10.332-23.031 23.031c0 10.075 6.503 18.658 15.531 21.776v16.973c-41.256-3.596-74.24-36.568-77.852-77.826h170.698c-1.011 11.444-4.303 22.616-9.673 32.683-1.95 3.654-.567 8.197 3.088 10.146 3.807 1.84 7.189.81 10.146-3.088 6.707-12.574 10.661-26.605 11.57-40.919 9.142-3.052 15.75-11.692 15.75-21.847 0-12.696-10.33-23.026-23.026-23.026h-.166c-12.49-30.177-38.829-52.128-69.995-59.471v-49.786h36.616l60.104 45.08c.8.6 1.711 1.033 2.681 1.276l23.601 5.9c23.382 5.84 47.839-12.933 47.839-37.356v-14.9h54.63c4.143 0 7.5-3.357 7.5-7.5v-93.189c-.003-4.143-3.36-7.501-7.503-7.501zm-489.5 93.19v-31.592h23.564c4.143 0 7.5-3.357 7.5-7.5s-3.357-7.5-7.5-7.5h-23.564v-31.598h47.127v78.189h-47.127zm113.463 47.166-22.137 5.534c-17.15 1.9-26.883-5.699-29.199-22.798v-138.027c0-14.786 15.671-26.182 29.199-22.798l22.136 5.533 57.914 43.454v26.246l-50.25-36.087c-3.363-2.416-8.051-1.649-10.467 1.717-2.416 3.364-1.647 8.051 1.717 10.467l43.199 31.023h-38.824c-4.143 0-7.5 3.357-7.5 7.5s3.357 7.5 7.5 7.5h40.349l-44.967 35.143c-3.264 2.551-3.842 7.264-1.291 10.527 3.332 3.349 6.841 3.779 10.527 1.291l50.007-39.081v29.422zm127.527 154.187c4.429 0 8.031 3.603 8.031 8.031s-3.603 8.03-8.031 8.03-8.031-3.603-8.031-8.03c0-4.428 3.603-8.031 8.031-8.031zm101.228-54.07c0 4.425-3.601 8.025-8.026 8.025h-186.383c-4.426 0-8.026-3.601-8.026-8.025 0-4.426 3.601-8.026 8.026-8.026h186.383c4.425-.001 8.026 3.6 8.026 8.026zm-24.679-23.027h-153.097c14.391-28.585 43.932-47.146 76.548-47.146s62.157 18.562 76.549 47.146zm-84.569-61.826v-70.46c0-4.428 3.603-8.029 8.03-8.029 4.892.461 7.569 3.138 8.03 8.029v70.462c-2.659-.214-13.408-.214-16.06-.002zm201.9-62.43v-22.77c0-4.143-3.357-7.5-7.5-7.5s-7.5 3.357-7.5 7.5v52.67c-2.316 17.1-12.05 24.701-29.201 22.804l-22.131-5.532-57.918-43.441v-27.841l50.128 37.612c3.706 2.415 7.206 1.916 10.5-1.498 2.486-3.312 1.815-8.014-1.498-10.5l-44.108-33.095h39.607c4.143 0 7.5-3.357 7.5-7.5s-3.357-7.5-7.5-7.5h-39.643l44.142-33.092c3.313-2.484 3.986-7.186 1.502-10.5-2.485-3.313-7.184-3.985-10.5-1.502l-50.13 37.581v-27.836l57.919-43.451 22.129-5.532c17.149-1.898 26.883 5.7 29.202 22.794v52.68c0 4.143 3.357 7.5 7.5 7.5s7.5-3.357 7.5-7.5v-22.739h47.13v31.578h-23.564c-4.143 0-7.5 3.357-7.5 7.5s3.357 7.5 7.5 7.5h23.564v31.611h-47.13z"/></svg>